<svg xmlns="http://www.w3.org/2000/svg" viewBox="0 0 54.12 52.37"><defs><style>.cls-1{fill:#fff;}</style></defs><g id="Ebene_2" data-name="Ebene 2"><g id="Ebene_1-2" data-name="Ebene 1"><path class="cls-1" d="M27.88,19.53h0A1.49,1.49,0,0,0,26.39,21V37.88a1.49,1.49,0,0,0,1.49,1.44h.05a1.49,1.49,0,0,0,1.44-1.46V21A1.49,1.49,0,0,0,27.88,19.53Z"/><path class="cls-1" d="M27.88,16.12h0a2.33,2.33,0,0,0,1.65-4,2.29,2.29,0,0,0-1.65-.69h0a2.35,2.35,0,1,0,0,4.69Zm0-.37Z"/><path class="cls-1" d="M52.12,16.13a26.18,26.18,0,0,0-48.38,20L0,51a1.06,1.06,0,0,0,.28,1,1.07,1.07,0,0,0,.76.32h0a1,1,0,0,0,.25,0L15.11,49a26.19,26.19,0,0,0,37-32.87ZM14.91,46.84l-12.38,3L5.9,36.32a1.06,1.06,0,0,0-.05-.68,23.9,23.9,0,0,1-2-9.61A24.21,24.21,0,1,1,15.8,46.92a1.08,1.08,0,0,0-.53-.14h0A.93.93,0,0,0,14.91,46.84Z"/></g></g></svg>