<svg xmlns="http://www.w3.org/2000/svg" viewBox="0 0 49.82 49.76"><defs><style>.cls-1{fill:#fff;}</style></defs><g id="Ebene_2" data-name="Ebene 2"><g id="Ebene_1-2" data-name="Ebene 1"><path class="cls-1" d="M24.91,20.31h0A10.16,10.16,0,0,0,25,0h0A10.16,10.16,0,0,0,14.79,10.12v0A10.19,10.19,0,0,0,24.91,20.31ZM16.78,10.14A8.15,8.15,0,0,1,24.91,2H25a8.14,8.14,0,1,1-8.26,8.14Z"/><path class="cls-1" d="M41.73,25.42a6,6,0,1,0-5.95-6A6,6,0,0,0,41.73,25.42Zm-4-6a4,4,0,0,1,4-4h.09a4,4,0,1,1-4.12,4Z"/><path class="cls-1" d="M41.73,27h0a8.21,8.21,0,0,0-4.93,1.69c-1.47-4.31-5.57-6.88-11-6.88H24c-5.43,0-9.53,2.57-11,6.88A8.09,8.09,0,0,0,0,35.14V47a1,1,0,0,0,1,1H12.4v.76a1,1,0,0,0,.29.72,1,1,0,0,0,.71.3h23a1,1,0,0,0,1-1V48H48.81a1,1,0,0,0,1-1V35.14A8.1,8.1,0,0,0,41.73,27ZM37.33,31a6.08,6.08,0,0,1,10.48,4.16V45.62a.34.34,0,0,1-.34.34h-10V32.48A12.59,12.59,0,0,0,37.33,31Zm-1.92,1.5V47.39a.34.34,0,0,1-.34.34H14.76a.34.34,0,0,1-.34-.34V32.48c0-5.07,4-8.61,9.61-8.61H25.8C31.46,23.87,35.41,27.41,35.41,32.48ZM12.5,31a10.8,10.8,0,0,0-.1,1.5V46h-10A.34.34,0,0,1,2,45.62V35.14a6.06,6.06,0,0,1,1.8-4.29A6,6,0,0,1,8.1,29.09h0A6,6,0,0,1,12.5,31Z"/><path class="cls-1" d="M8.09,25.42a6,6,0,1,0-5.95-6A6,6,0,0,0,8.09,25.42Zm-4-6a4,4,0,0,1,4-4h.09a4,4,0,1,1-4.12,4Z"/></g></g></svg>