<?xml version="1.0" encoding="utf-8"?>
<!-- Generator: Adobe Illustrator 25.2.0, SVG Export Plug-In . SVG Version: 6.00 Build 0)  -->
<svg version="1.1" id="Ebene_1" xmlns="http://www.w3.org/2000/svg" xmlns:xlink="http://www.w3.org/1999/xlink" x="0px" y="0px"
	 viewBox="0 0 62 61.9" style="enable-background:new 0 0 62 61.9;" xml:space="preserve">
<style type="text/css">
	.st0{fill:#FFFFFF;}
</style>
<g>
	<path class="st0" d="M54.2,31.8c0.4,1.7,2,2.9,3.8,2.9c2.1,0,3.9-1.7,3.9-3.9s-1.7-3.9-3.9-3.9c-1.8,0-3.3,1.2-3.8,2.9l0,0.1h-6
		l0-0.1c-0.2-3.8-1.7-7.5-4.3-10.3l-0.1-0.1l4.2-4.2l0.1,0c0.6,0.4,1.3,0.5,2,0.5c1,0,2-0.4,2.7-1.1c0.7-0.7,1.1-1.7,1.1-2.7
		s-0.4-2-1.1-2.7c-0.7-0.7-1.7-1.1-2.7-1.1s-2,0.4-2.7,1.1c-1.3,1.3-1.5,3.2-0.6,4.7l0,0.1l-4.2,4.2l-0.1-0.1
		c-2.8-2.5-6.5-4.1-10.3-4.3l-0.1,0v-6l0.1,0c1.7-0.4,2.9-2,2.9-3.8c0-2.1-1.7-3.9-3.9-3.9S27.3,2,27.3,4.1c0,1.8,1.2,3.3,2.9,3.8
		l0.1,0v6l-0.1,0c-3.8,0.2-7.5,1.7-10.3,4.3l-0.1,0.1L15.6,14l0-0.1c0.9-1.5,0.7-3.5-0.6-4.7c-1.5-1.5-4-1.5-5.5,0
		C8.9,10,8.4,10.9,8.4,12s0.4,2,1.1,2.7c0.7,0.7,1.7,1.1,2.7,1.1c0.7,0,1.4-0.2,2-0.5l0.1,0l4.2,4.2l-0.1,0.1
		c-2.5,2.9-4.1,6.5-4.3,10.3l0,0.1H8.3l0-0.1c-0.4-1.7-2-2.9-3.8-2.9c-2.1,0-3.9,1.7-3.9,3.9s1.7,3.9,3.9,3.9c1.8,0,3.3-1.2,3.8-2.9
		l0-0.1h5.9l0,0.1c0.2,3.8,1.8,7.5,4.3,10.3l0.1,0.1l-4.2,4.2l-0.1,0c-1.5-0.9-3.5-0.7-4.7,0.6c-0.7,0.7-1.1,1.7-1.1,2.7
		c0,1,0.4,2,1.1,2.7c0.7,0.7,1.7,1.1,2.7,1.1c1,0,2-0.4,2.7-1.1c1.3-1.3,1.5-3.2,0.6-4.7l0-0.1l4.2-4.2l0.1,0.1
		c2.9,2.5,6.5,4,10.3,4.2l0.1,0v6l-0.1,0c-1.7,0.4-2.9,2-2.9,3.8c0,2.1,1.7,3.9,3.9,3.9c2.1,0,3.9-1.7,3.9-3.9
		c0-1.8-1.2-3.3-2.9-3.8l-0.1,0v-6l0.1,0c3.8-0.2,7.5-1.8,10.3-4.3l0.1-0.1l4.2,4.2l0,0.1c-0.9,1.5-0.7,3.5,0.6,4.7
		c0.7,0.7,1.7,1.1,2.7,1.1s2-0.4,2.7-1.1c0.7-0.7,1.1-1.7,1.1-2.7c0-1-0.4-2-1.1-2.7c-1.3-1.3-3.2-1.5-4.7-0.6l-0.1,0l-4.2-4.2
		l0.1-0.1c2.5-2.9,4-6.5,4.2-10.3l0-0.1L54.2,31.8L54.2,31.8z M58,28.7c1.2,0,2.2,1,2.2,2.2c0,1.2-1,2.2-2.2,2.2s-2.2-1-2.2-2.2
		C55.8,29.6,56.8,28.7,58,28.7z M48.6,10.4c0.4-0.4,0.9-0.6,1.5-0.6c0.6,0,1.1,0.2,1.5,0.6c0.8,0.8,0.8,2.2,0,3
		c-0.4,0.4-0.9,0.6-1.5,0.6c-0.6,0-1.1-0.2-1.5-0.6S48,12.5,48,11.9C48,11.4,48.2,10.8,48.6,10.4z M13.8,13.5
		c-0.4,0.4-0.9,0.6-1.5,0.6c-0.6,0-1.1-0.2-1.5-0.6c-0.4-0.4-0.6-0.9-0.6-1.5c0-0.6,0.2-1.1,0.6-1.5c0.4-0.4,0.9-0.6,1.5-0.6
		s1.1,0.2,1.5,0.6s0.6,0.9,0.6,1.5C14.5,12.6,14.3,13.1,13.8,13.5z M4.5,33c-1.2,0-2.2-1-2.2-2.2c0-1.2,1-2.2,2.2-2.2s2.2,1,2.2,2.2
		C6.7,32.1,5.7,33,4.5,33z M13.9,51.3c-0.4,0.4-0.9,0.6-1.5,0.6c-0.6,0-1.1-0.2-1.5-0.6c-0.8-0.8-0.8-2.2,0-3
		c0.4-0.4,0.9-0.6,1.5-0.6c0.6,0,1.1,0.2,1.5,0.6s0.6,0.9,0.6,1.5C14.5,50.3,14.3,50.9,13.9,51.3z M48.6,48.2
		c0.4-0.4,0.9-0.6,1.5-0.6s1.1,0.2,1.5,0.6c0.4,0.4,0.6,0.9,0.6,1.5c0,0.6-0.2,1.1-0.6,1.5c-0.4,0.4-1,0.6-1.5,0.6s-1.1-0.2-1.5-0.6
		c-0.4-0.4-0.6-0.9-0.6-1.5S48.2,48.6,48.6,48.2z M29.1,4.1c0-1.2,1-2.2,2.2-2.2c1.2,0,2.2,1,2.2,2.2s-1,2.2-2.2,2.2
		C30,6.3,29.1,5.3,29.1,4.1z M33.4,57.6c0,1.2-1,2.2-2.2,2.2c-1.2,0-2.2-1-2.2-2.2s1-2.2,2.2-2.2C32.5,55.4,33.4,56.4,33.4,57.6z
		 M42,41.6c-2.9,2.9-6.7,4.5-10.8,4.5s-7.9-1.6-10.8-4.5c-2.9-2.9-4.5-6.7-4.5-10.8c0-4.1,1.6-7.9,4.5-10.8
		c2.9-2.9,6.7-4.5,10.8-4.5S39.1,17.2,42,20c2.9,2.9,4.5,6.7,4.5,10.8C46.5,34.9,44.9,38.8,42,41.6z"/>
	<path class="st0" d="M26.8,22c-2.7,0-4.9,2.2-4.9,4.9s2.2,4.9,4.9,4.9c2.7,0,4.9-2.2,4.9-4.9S29.5,22,26.8,22z M26.8,30.2
		c-1.8,0-3.2-1.4-3.2-3.2s1.4-3.2,3.2-3.2c1.8,0,3.2,1.4,3.2,3.2S28.6,30.2,26.8,30.2z"/>
	<path class="st0" d="M30.8,35.5c-1.7,0-3.1,1.4-3.1,3.1c0,1.7,1.4,3.1,3.1,3.1c1.7,0,3.1-1.4,3.1-3.1
		C33.9,36.9,32.5,35.5,30.8,35.5z M30.8,39.9c-0.8,0-1.4-0.6-1.4-1.4s0.6-1.4,1.4-1.4s1.4,0.6,1.4,1.4S31.5,39.9,30.8,39.9z"/>
	<path class="st0" d="M38.7,28.3c-1.4,0-2.6,1.2-2.6,2.6c0,1.4,1.2,2.6,2.6,2.6s2.6-1.2,2.6-2.6C41.3,29.5,40.1,28.3,38.7,28.3z
		 M38.7,31.8c-0.5,0-0.9-0.4-0.9-0.9s0.4-0.9,0.9-0.9s0.9,0.4,0.9,0.9S39.2,31.8,38.7,31.8z"/>
</g>
</svg>
