<svg xmlns="http://www.w3.org/2000/svg" viewBox="0 0 45.83 59.59"><defs><style>.cls-1{fill:#fff;}</style></defs><g id="Ebene_2" data-name="Ebene 2"><g id="Ebene_1-2" data-name="Ebene 1"><path class="cls-1" d="M45.82,7h0a.49.49,0,0,0-.21-.31L40,2.93a.49.49,0,0,0-.67.14L37.66,5.49H28.31V3.94a.48.48,0,0,0-.49-.48H24A4.3,4.3,0,0,0,22.21.78,4.26,4.26,0,0,0,19,.07a4.31,4.31,0,0,0-3.48,3.39H11.66a.48.48,0,0,0-.49.48V5.49H.49A.49.49,0,0,0,0,6V59.11a.48.48,0,0,0,.49.48H39a.48.48,0,0,0,.48-.48V16.76l6.26-9.37A.5.5,0,0,0,45.82,7Zm-23-1.87H26.6V7.52H12.87V5.15h3.78a.49.49,0,0,0,.48-.49V4.3a2.61,2.61,0,0,1,5.21,0v.36A.49.49,0,0,0,22.83,5.15ZM11.66,9.21H27.82a.52.52,0,0,0,.35-.14.48.48,0,0,0,.14-.34V7.18h8.22L27,21.5l-2.61,10a.55.55,0,0,0,.23.6.56.56,0,0,0,.65,0l8.12-6.14,4.44-6.6V57.9H1.7V7.18h9.48V8.73A.48.48,0,0,0,11.66,9.21ZM31.33,25.33,26.75,29a.08.08,0,0,1-.1,0,.09.09,0,0,1,0-.1l1.59-5.61ZM32.38,24l-3.33-2.22A.2.2,0,0,1,29,21.5L39.91,5.17A.2.2,0,0,1,40,5.09a.17.17,0,0,1,.14,0L43.5,7.34a.22.22,0,0,1,.08.13.17.17,0,0,1,0,.14L32.65,23.94A.19.19,0,0,1,32.38,24Z"/><path class="cls-1" d="M6.77,23.81v.72a.48.48,0,0,0,.44.49v0H20.43a.48.48,0,0,0,.44-.49v-.71a.49.49,0,0,0-.45-.5H7.21A.48.48,0,0,0,6.77,23.81Z"/><path class="cls-1" d="M7.21,32.26v0H20.43a.48.48,0,0,0,.44-.49v-.71a.49.49,0,0,0-.45-.5H7.21a.48.48,0,0,0-.44.49v.72A.47.47,0,0,0,7.21,32.26Z"/><path class="cls-1" d="M6.77,38.29V39a.48.48,0,0,0,.48.49H32.5A.49.49,0,0,0,33,39v-.73a.49.49,0,0,0-.49-.48H7.25A.49.49,0,0,0,6.77,38.29Z"/><path class="cls-1" d="M32.5,45H7.25a.48.48,0,0,0-.48.48v.73a.47.47,0,0,0,.48.48H32.5a.48.48,0,0,0,.49-.48v-.73A.48.48,0,0,0,32.5,45Z"/></g></g></svg>