<svg id="Ebene_1" data-name="Ebene 1" xmlns="http://www.w3.org/2000/svg" viewBox="0 0 100 100"><defs><style>.cls-1{fill:#0061ad;}</style></defs><path class="cls-1" d="M83.7,37.2V28.6a3.76,3.76,0,0,0-1.1-2.8L63.3,6.5a4.47,4.47,0,0,0-2.9-1.1h-40a3.93,3.93,0,0,0-3.9,4V37.2H9a4.12,4.12,0,0,0-4,4.2v37a4,4,0,0,0,4,3.9h7.4v8.4a4,4,0,0,0,3.9,4H79.5a4,4,0,0,0,4.1-4V82.3H91a3.93,3.93,0,0,0,4-3.9v-37a4.06,4.06,0,0,0-4-4.2ZM24.5,86.3V60.4H75.7V86.3Zm0-49.1V13.5H56.3V28.6a4.12,4.12,0,0,0,4.1,4.1H75.7v4.6H24.5ZM83.7,52.8a4.2,4.2,0,1,1,4.1-4.3,4.17,4.17,0,0,1-4.1,4.3ZM30.5,65v6H69.3V65Zm0,9.7v5.9H69.3V74.7Z"/></svg>