<svg xmlns="http://www.w3.org/2000/svg" width="63.839" height="98.921" viewBox="0 0 63.839 98.921">
  <g id="Gruppe_321" data-name="Gruppe 321" transform="translate(-0.185 -0.252)">
    <g id="Gruppe_317" data-name="Gruppe 317" transform="translate(0.185 0.252)">
      <g id="Gruppe_314" data-name="Gruppe 314" transform="translate(3.676 0)">
        <path id="Pfad_333" data-name="Pfad 333" d="M147.741,35.371l5.558-8.909,5.571-8.9,5.577-8.9.7-1.11.088-.139.022-.035c.007-.011,0,0,0,0s0,0,0,.006a.057.057,0,0,0-.008.029.061.061,0,0,0,.01.03s.007.011.011.012l-.138-.087-2.219-1.4L158.486,3.14l-2.1-1.351a.146.146,0,0,0,.155-.022.127.127,0,0,0,.028-.03l-.081.126-.178.276-.715,1.1-1.434,2.2-1.449,2.189q-2.9,4.374-5.853,8.718L143.927,20.7l-2.953,4.342c-1.964,2.9-3.955,5.778-5.939,8.662a.092.092,0,0,1-.154-.1c1.828-2.986,3.649-5.976,5.5-8.949l2.765-4.463,2.782-4.453c1.853-2.969,3.706-5.939,5.583-8.893l1.41-2.214,1.425-2.2.714-1.1.18-.274.1-.149a1.376,1.376,0,0,1,.246-.274A1.347,1.347,0,0,1,156.97.417a1.247,1.247,0,0,1,.164.083l.06.037.034.022.137.09.274.18.549.359,1.1.719,4.38,2.893,2.184,1.457.137.091a1.278,1.278,0,0,1,.258.227,1.251,1.251,0,0,1,.213,1.289,1.23,1.23,0,0,1-.076.153l-.041.067-.023.034-.091.136L165.5,9.347l-5.86,8.713-5.865,8.709-5.878,8.7a.092.092,0,0,1-.154-.1Z" transform="translate(-110.226 -0.298)" fill="#0061ad"/>
        <path id="Pfad_334" data-name="Pfad 334" d="M37.5,201.295l-5.54,8.881-5.553,8.873-5.558,8.869-.7,1.107-.087.138-.022.034c0,.006,0,0,0,0s0,0,0-.006a.054.054,0,0,0,.008-.029.063.063,0,0,0-.01-.03s-.007-.01-.011-.012l.138.087,2.212,1.4,4.411,2.816,2.125,1.369a.15.15,0,0,0-.155.012.173.173,0,0,0-.03.029.025.025,0,0,0-.005.008l.017-.026.044-.069.177-.275.713-1.1,1.43-2.191L32.549,229q2.894-4.36,5.835-8.69l2.927-4.339,2.944-4.328c1.958-2.888,3.943-5.759,5.921-8.634a.092.092,0,0,1,.154.1c-1.822,2.977-3.637,5.957-5.479,8.921L42.1,216.48l-2.773,4.439q-2.771,4.44-5.565,8.865l-1.406,2.207-1.42,2.2-.712,1.1-.179.274-.045.068-.028.042-.054.074a1.325,1.325,0,0,1-.263.257,1.344,1.344,0,0,1-1.393.126,1.68,1.68,0,0,1-.148-.084L28.042,236l-.137-.09-.274-.179-.547-.358-1.094-.717-4.367-2.884-2.177-1.452-.137-.091a1.282,1.282,0,0,1-.257-.226,1.252,1.252,0,0,1-.216-1.285,1.3,1.3,0,0,1,.075-.153l.042-.069.023-.034.091-.136.727-1.088,5.842-8.685,5.847-8.682,5.86-8.673a.092.092,0,0,1,.154.1Z" transform="translate(-18.521 -158.914)" fill="#0061ad"/>
        <path id="Pfad_335" data-name="Pfad 335" d="M168.542,180.223q2.892,4.2,5.753,8.425l5.738,8.435,2.823,4.161a.052.052,0,0,0-.051-.026.045.045,0,0,0-.017,0s-.011,0,0,0l.066-.044.265-.177,1.06-.708,2.125-1.409,4.258-2.807,1.018-.667a.15.15,0,0,0-.059.14.189.189,0,0,0,.011.04c0,.006.005.012.009.017s0-.008-.012-.019l-.022-.033-.174-.267-1.387-2.14c-3.7-5.707-7.29-11.481-10.908-17.239s-7.2-11.539-10.763-17.333a.092.092,0,0,1,.154-.1q5.766,8.417,11.457,16.882c3.788,5.647,7.6,11.279,11.312,16.977l1.39,2.137.173.268.052.082a1.267,1.267,0,0,1,.083.158,1.32,1.32,0,0,1,.1.344,1.344,1.344,0,0,1-.512,1.267l-.072.052-.04.027-.067.043-.134.086-.268.173-.536.345-4.3,2.748-2.152,1.368-1.078.681-.27.17-.067.043a1.571,1.571,0,0,1-.14.078,1.275,1.275,0,0,1-.319.1,1.255,1.255,0,0,1-1.193-.442c-.018-.021-.033-.044-.049-.066l-.039-.057-.042-.067-.085-.135-.169-.27-.338-.541-.672-1.084-1.344-2.167-5.372-8.673q-2.686-4.336-5.357-8.683a.092.092,0,0,1,.154-.1Z" transform="translate(-136.6 -125.177)" fill="#0061ad"/>
        <path id="Pfad_336" data-name="Pfad 336" d="M42.21,22.66q-2.9-4.215-5.768-8.449L30.689,5.752l-2.863-4.22a.055.055,0,0,0,.048.03.044.044,0,0,0,.017,0s.005,0,.008,0l0,0-.029.019-.266.177-1.063.71L24.413,3.876,20.143,6.69,19.1,7.374a.152.152,0,0,0,.063-.138.157.157,0,0,0-.01-.04.142.142,0,0,0-.008-.018s-.008-.012,0,0l.022.033.175.267,1.391,2.145c3.707,5.723,7.31,11.512,10.939,17.286s7.22,11.571,10.793,17.38a.092.092,0,0,1-.154.1q-5.781-8.44-11.488-16.929C27.023,21.8,23.2,16.15,19.48,10.437L18.086,8.293l-.173-.268-.022-.034-.042-.07a1.341,1.341,0,0,1,.389-1.761l1.1-.711,4.308-2.756L25.8,1.322,26.884.639l.27-.171.038-.024L27.265.4a1.353,1.353,0,0,1,.152-.07,1.278,1.278,0,0,1,.327-.075A1.251,1.251,0,0,1,28.9.8L31.6,5.158l5.388,8.7q2.694,4.348,5.372,8.706a.092.092,0,0,1-.154.1Z" transform="translate(-17.671 -0.252)" fill="#0061ad"/>
      </g>
      <g id="Gruppe_315" data-name="Gruppe 315" transform="translate(47.939 36.303)">
        <path id="Pfad_337" data-name="Pfad 337" d="M228.194,177.117a.139.139,0,0,1,.158-.158h.839v-3.39a.8.8,0,0,1,.006-.11h-.013a1.16,1.16,0,0,1-.073.1,1.705,1.705,0,0,1-.142.158l-.372.366a.126.126,0,0,1-.214,0l-.057-.063q-.126-.095-.006-.214l.814-.807a.259.259,0,0,1,.189-.082h.145q.151,0,.151.158v3.885h.82a.139.139,0,0,1,.158.158v.075a.139.139,0,0,1-.158.158h-2.088a.139.139,0,0,1-.158-.158Z" transform="translate(-228.194 -172.916)" fill="#0061ad"/>
        <path id="Pfad_338" data-name="Pfad 338" d="M246.765,176.909a.13.13,0,0,1,0-.215l.076-.088a.134.134,0,0,1,.214,0,1.221,1.221,0,0,0,.407.3,1.218,1.218,0,0,0,.924.025,1.081,1.081,0,0,0,.35-.217,1.025,1.025,0,0,0,0-1.492,1.086,1.086,0,0,0-.356-.221,1.23,1.23,0,0,0-.445-.079,1.588,1.588,0,0,0-.706.189.245.245,0,0,1-.208.019l-.044-.013a.148.148,0,0,1-.114-.183l.208-1.873a.149.149,0,0,1,.164-.145h1.842a.139.139,0,0,1,.158.158v.076a.139.139,0,0,1-.158.158h-1.608l-.126,1.141c-.008.059-.017.111-.025.155l-.019.1h.013a1.557,1.557,0,0,1,.271-.11,1.29,1.29,0,0,1,.4-.06,1.632,1.632,0,0,1,.6.11,1.48,1.48,0,0,1,.486.305,1.429,1.429,0,0,1,.322.456,1.383,1.383,0,0,1,.116.57,1.369,1.369,0,0,1-.12.573,1.428,1.428,0,0,1-.328.459,1.554,1.554,0,0,1-.489.308,1.593,1.593,0,0,1-.6.113,1.646,1.646,0,0,1-.653-.136A1.629,1.629,0,0,1,246.765,176.909Z" transform="translate(-242.816 -172.916)" fill="#0061ad"/>
        <path id="Pfad_339" data-name="Pfad 339" d="M267.226,176.12a.134.134,0,0,1-.151-.151v-.025a.307.307,0,0,1,.057-.189l2.056-2.744a.233.233,0,0,1,.189-.095h.2q.151,0,.151.158v2.668h.479a.134.134,0,0,1,.151.151v.076c0,.1-.046.151-.139.151h-.492v1.072q0,.158-.151.158h-.126a.139.139,0,0,1-.158-.158V176.12Zm2.063-.378v-1.861c0-.067,0-.142.006-.224a1.738,1.738,0,0,1,.019-.2H269.3q-.038.063-.1.158t-.123.183l-1.482,1.93v.013Z" transform="translate(-258.9 -172.916)" fill="#0061ad"/>
        <path id="Pfad_340" data-name="Pfad 340" d="M288.366,176.12a.134.134,0,0,1-.151-.151v-.025a.307.307,0,0,1,.057-.189l2.056-2.744a.233.233,0,0,1,.189-.095h.2q.151,0,.151.158v2.668h.479a.134.134,0,0,1,.151.151v.076c0,.1-.046.151-.139.151h-.492v1.072q0,.158-.151.158h-.126a.139.139,0,0,1-.158-.158V176.12Zm2.063-.378v-1.861q0-.1.006-.224a1.88,1.88,0,0,1,.019-.2h-.012q-.038.063-.1.158t-.123.183l-1.483,1.93v.013Z" transform="translate(-275.595 -172.916)" fill="#0061ad"/>
      </g>
      <g id="Gruppe_316" data-name="Gruppe 316" transform="translate(0 36.227)">
        <path id="Pfad_341" data-name="Pfad 341" d="M.185,177.117a.139.139,0,0,1,.158-.158h.839v-3.39a.8.8,0,0,1,.006-.11H1.175q-.019.032-.072.1a1.738,1.738,0,0,1-.142.158l-.372.366a.126.126,0,0,1-.214,0l-.057-.063c-.084-.063-.086-.135-.006-.214L1.125,173a.26.26,0,0,1,.189-.082h.145q.151,0,.151.158v3.885h.82a.139.139,0,0,1,.158.158v.075a.139.139,0,0,1-.158.158H.343a.139.139,0,0,1-.158-.158Z" transform="translate(-0.185 -172.84)" fill="#0061ad"/>
        <path id="Pfad_342" data-name="Pfad 342" d="M19.274,176.782a1.324,1.324,0,0,1,.167-.678,2.131,2.131,0,0,1,.419-.514,4.375,4.375,0,0,1,.549-.419q.3-.192.549-.391a2.224,2.224,0,0,0,.419-.426.87.87,0,0,0,.167-.53.8.8,0,0,0-.255-.615.94.94,0,0,0-.665-.237,1.041,1.041,0,0,0-.5.132,1.2,1.2,0,0,0-.4.347q-.107.139-.221.038l-.069-.057a.13.13,0,0,1-.038-.208,1.362,1.362,0,0,1,.243-.274,1.681,1.681,0,0,1,.306-.211,1.554,1.554,0,0,1,.344-.136,1.419,1.419,0,0,1,.363-.047,1.591,1.591,0,0,1,.552.091,1.286,1.286,0,0,1,.429.255,1.118,1.118,0,0,1,.278.394,1.27,1.27,0,0,1,.1.5,1.218,1.218,0,0,1-.167.647,2.224,2.224,0,0,1-.416.5,4.076,4.076,0,0,1-.542.41q-.293.186-.542.381a2.323,2.323,0,0,0-.42.419.836.836,0,0,0-.17.521h2.17a.139.139,0,0,1,.158.158v.075a.139.139,0,0,1-.158.158H19.444q-.17,0-.17-.158Z" transform="translate(-15.261 -172.556)" fill="#0061ad"/>
        <path id="Pfad_343" data-name="Pfad 343" d="M40.3,176.782a1.324,1.324,0,0,1,.167-.678,2.131,2.131,0,0,1,.419-.514,4.375,4.375,0,0,1,.549-.419q.3-.192.549-.391a2.224,2.224,0,0,0,.419-.426.87.87,0,0,0,.167-.53.8.8,0,0,0-.255-.615.941.941,0,0,0-.665-.237,1.041,1.041,0,0,0-.5.132,1.2,1.2,0,0,0-.4.347q-.107.139-.221.038l-.069-.057a.13.13,0,0,1-.038-.208,1.362,1.362,0,0,1,.243-.274,1.687,1.687,0,0,1,.306-.211,1.56,1.56,0,0,1,.344-.136,1.419,1.419,0,0,1,.363-.047,1.591,1.591,0,0,1,.552.091,1.286,1.286,0,0,1,.429.255,1.118,1.118,0,0,1,.278.394,1.27,1.27,0,0,1,.1.5,1.218,1.218,0,0,1-.167.647,2.224,2.224,0,0,1-.416.5,4.077,4.077,0,0,1-.542.41q-.293.186-.542.381a2.328,2.328,0,0,0-.419.419.836.836,0,0,0-.17.521h2.17a.139.139,0,0,1,.158.158v.075a.139.139,0,0,1-.158.158H40.474q-.17,0-.17-.158Z" transform="translate(-31.869 -172.556)" fill="#0061ad"/>
        <path id="Pfad_344" data-name="Pfad 344" d="M61.421,176.909a.13.13,0,0,1,0-.215l.076-.088a.134.134,0,0,1,.214,0,1.221,1.221,0,0,0,.407.3,1.219,1.219,0,0,0,.924.025,1.082,1.082,0,0,0,.35-.217,1.025,1.025,0,0,0,0-1.492,1.083,1.083,0,0,0-.356-.221,1.228,1.228,0,0,0-.445-.079,1.59,1.59,0,0,0-.706.189.245.245,0,0,1-.208.019l-.044-.013a.148.148,0,0,1-.114-.183l.208-1.873a.149.149,0,0,1,.164-.145h1.842a.139.139,0,0,1,.158.158v.076a.139.139,0,0,1-.158.158H62.121l-.126,1.141q-.013.089-.025.155l-.019.1h.013a1.557,1.557,0,0,1,.271-.11,1.291,1.291,0,0,1,.4-.06,1.631,1.631,0,0,1,.6.11,1.478,1.478,0,0,1,.486.305,1.429,1.429,0,0,1,.322.456,1.438,1.438,0,0,1,0,1.142,1.434,1.434,0,0,1-.328.459,1.558,1.558,0,0,1-.489.308,1.6,1.6,0,0,1-.6.113,1.648,1.648,0,0,1-.653-.136A1.63,1.63,0,0,1,61.421,176.909Z" transform="translate(-48.501 -172.84)" fill="#0061ad"/>
      </g>
    </g>
    <g id="Gruppe_320" data-name="Gruppe 320" transform="translate(0.767 84.654)">
      <g id="Gruppe_318" data-name="Gruppe 318" transform="translate(0.046)">
        <path id="Pfad_345" data-name="Pfad 345" d="M3.171,402.5a.3.3,0,0,1,.337-.345h2.67a.3.3,0,0,1,.345.342v.228a.3.3,0,0,1-.345.334H4.223v1.668H5.817a.3.3,0,0,1,.345.334v.228a.3.3,0,0,1-.345.342H4.223v2.013a.3.3,0,0,1-.337.345H3.508a.3.3,0,0,1-.337-.345Z" transform="translate(-3.171 -402.056)" fill="#0061ad"/>
        <path id="Pfad_346" data-name="Pfad 346" d="M23.181,402.5a.3.3,0,0,1,.337-.345H25.1a4.74,4.74,0,0,1,.678.037,1.741,1.741,0,0,1,.431.119,1.573,1.573,0,0,1,.711.6,1.781,1.781,0,0,1,.267,1,1.973,1.973,0,0,1-.066.509,1.819,1.819,0,0,1-.189.456,1.593,1.593,0,0,1-.3.374,1.321,1.321,0,0,1-.411.255v.016l.049.074q.025.041.061.094a1.145,1.145,0,0,1,.078.136l.961,1.758a.282.282,0,0,1,.037.3.3.3,0,0,1-.275.115h-.444a.431.431,0,0,1-.4-.238l-1.027-1.939H24.233v1.832a.3.3,0,0,1-.337.345h-.378a.3.3,0,0,1-.337-.345Zm2,2.391a.908.908,0,0,0,.674-.247.928.928,0,0,0,.246-.685,1.039,1.039,0,0,0-.111-.491.671.671,0,0,0-.349-.31,1,1,0,0,0-.251-.074,2.356,2.356,0,0,0-.382-.025h-.78v1.832Z" transform="translate(-18.974 -402.056)" fill="#0061ad"/>
        <path id="Pfad_347" data-name="Pfad 347" d="M48.645,402.5a.3.3,0,0,1,.337-.345h2.81a.3.3,0,0,1,.345.342v.228a.3.3,0,0,1-.345.334H49.7V404.6h1.627a.3.3,0,0,1,.345.334v.228a.3.3,0,0,1-.345.342H49.7v1.578h2.227a.3.3,0,0,1,.345.334v.228a.3.3,0,0,1-.345.342H48.982a.3.3,0,0,1-.337-.345Z" transform="translate(-39.084 -402.056)" fill="#0061ad"/>
        <path id="Pfad_348" data-name="Pfad 348" d="M70.1,402.5a.3.3,0,0,1,.337-.345h.37a.305.305,0,0,1,.345.345v3.385a1.175,1.175,0,0,0,.349.912,1.337,1.337,0,0,0,.941.321,1.352,1.352,0,0,0,.945-.321,1.168,1.168,0,0,0,.353-.912V402.5a.3.3,0,0,1,.337-.345h.378a.3.3,0,0,1,.337.345v3.393a2.3,2.3,0,0,1-.169.9,1.975,1.975,0,0,1-.476.69,2.182,2.182,0,0,1-.739.448,2.96,2.96,0,0,1-1.923,0,2.18,2.18,0,0,1-.739-.448,1.972,1.972,0,0,1-.477-.69,2.3,2.3,0,0,1-.168-.9Z" transform="translate(-56.026 -402.056)" fill="#0061ad"/>
        <path id="Pfad_349" data-name="Pfad 349" d="M98.835,402.5a.3.3,0,0,1,.337-.345h.444a.429.429,0,0,1,.411.23l2.071,3.138q.082.132.173.288t.156.3q.082.156.156.32h.016q-.016-.164-.033-.32-.017-.14-.021-.3c0-.1,0-.2,0-.288V402.5a.305.305,0,0,1,.345-.345h.37a.305.305,0,0,1,.345.345v5.143a.305.305,0,0,1-.345.345h-.444a.422.422,0,0,1-.4-.23l-2.079-3.13q-.082-.131-.168-.288t-.152-.3a3.483,3.483,0,0,1-.164-.321h-.017c.005.11.014.216.025.321s.019.192.025.3.008.2.008.288v3.015a.3.3,0,0,1-.337.345h-.378a.3.3,0,0,1-.337-.345Z" transform="translate(-78.722 -402.056)" fill="#0061ad"/>
        <path id="Pfad_350" data-name="Pfad 350" d="M127.782,402.5a.3.3,0,0,1,.337-.345h1.652a3.612,3.612,0,0,1,1.224.2,2.6,2.6,0,0,1,.936.567,2.525,2.525,0,0,1,.6.912,3.666,3.666,0,0,1,0,2.465,2.605,2.605,0,0,1-.6.92,2.549,2.549,0,0,1-.936.575,3.612,3.612,0,0,1-1.224.2h-1.652a.3.3,0,0,1-.337-.345Zm1.931,4.585a1.931,1.931,0,0,0,1.413-.516,2.017,2.017,0,0,0,.526-1.506,2.469,2.469,0,0,0-.14-.862,1.641,1.641,0,0,0-1.006-1.01,2.273,2.273,0,0,0-.793-.132h-.879v4.026Z" transform="translate(-101.582 -402.056)" fill="#0061ad"/>
        <path id="Pfad_351" data-name="Pfad 351" d="M155.995,402.5a.3.3,0,0,1,.337-.345h2.81a.3.3,0,0,1,.345.342v.228a.3.3,0,0,1-.345.334h-2.095V404.6h1.627a.3.3,0,0,1,.345.334v.228a.3.3,0,0,1-.345.342h-1.627v1.578h2.227a.3.3,0,0,1,.345.334v.228a.3.3,0,0,1-.345.342h-2.941a.3.3,0,0,1-.337-.345Z" transform="translate(-123.864 -402.056)" fill="#0061ad"/>
        <path id="Pfad_352" data-name="Pfad 352" d="M177.245,407.125a.477.477,0,0,1-.136-.2.312.312,0,0,1,.086-.275l.181-.263a.313.313,0,0,1,.21-.152.456.456,0,0,1,.267.078l.185.123a1.673,1.673,0,0,0,.263.14,2.418,2.418,0,0,0,.337.115,1.543,1.543,0,0,0,.4.049,1,1,0,0,0,.641-.185.621.621,0,0,0,.029-.941,2.185,2.185,0,0,0-.505-.329q-.3-.148-.653-.3a3.8,3.8,0,0,1-.653-.353,1.845,1.845,0,0,1-.505-.505,1.32,1.32,0,0,1-.2-.752,1.573,1.573,0,0,1,.152-.7,1.613,1.613,0,0,1,.415-.534,1.861,1.861,0,0,1,.62-.341,2.445,2.445,0,0,1,.776-.119,2.582,2.582,0,0,1,.489.045,3.206,3.206,0,0,1,.427.111,2.546,2.546,0,0,1,.345.144,1.877,1.877,0,0,1,.242.144.323.323,0,0,1,.107.468l-.148.271q-.091.181-.214.181a.566.566,0,0,1-.255-.066,4,4,0,0,0-.423-.214,1.453,1.453,0,0,0-.587-.107,1.052,1.052,0,0,0-.649.181.6.6,0,0,0-.037.924,2.081,2.081,0,0,0,.505.316q.3.14.653.283a3.631,3.631,0,0,1,.653.349,1.826,1.826,0,0,1,.505.509,1.357,1.357,0,0,1,.2.764,1.725,1.725,0,0,1-.131.669,1.591,1.591,0,0,1-.378.55,1.776,1.776,0,0,1-.6.37,2.294,2.294,0,0,1-.817.136,2.741,2.741,0,0,1-.592-.062,3.386,3.386,0,0,1-.509-.152,2.944,2.944,0,0,1-.407-.193A2.651,2.651,0,0,1,177.245,407.125Z" transform="translate(-140.532 -401.686)" fill="#0061ad"/>
        <path id="Pfad_353" data-name="Pfad 353" d="M200.463,402.5a.3.3,0,0,1,.337-.345h.378a.3.3,0,0,1,.337.346v2.036h.764l1.232-2.144a.431.431,0,0,1,.4-.239h.4a.283.283,0,0,1,.271.119.291.291,0,0,1-.033.292l-1.413,2.366v.016l1.52,2.629a.282.282,0,0,1,.037.3.3.3,0,0,1-.275.115h-.452a.431.431,0,0,1-.4-.238l-1.29-2.309h-.764v2.2a.3.3,0,0,1-.337.345H200.8a.3.3,0,0,1-.337-.345Z" transform="translate(-158.982 -402.056)" fill="#0061ad"/>
        <path id="Pfad_354" data-name="Pfad 354" d="M225.758,402.5a.3.3,0,0,1,.337-.345h1.578a4.741,4.741,0,0,1,.678.037,1.741,1.741,0,0,1,.431.119,1.573,1.573,0,0,1,.711.6,1.781,1.781,0,0,1,.267,1,1.973,1.973,0,0,1-.066.509,1.82,1.82,0,0,1-.189.456,1.6,1.6,0,0,1-.3.374,1.322,1.322,0,0,1-.411.255v.016l.049.074q.025.041.061.094a1.143,1.143,0,0,1,.078.136l.961,1.758a.282.282,0,0,1,.037.3.3.3,0,0,1-.275.115h-.444a.431.431,0,0,1-.4-.238l-1.027-1.939H226.81v1.832a.3.3,0,0,1-.337.345h-.378a.3.3,0,0,1-.337-.345Zm2,2.391a.908.908,0,0,0,.674-.247.928.928,0,0,0,.246-.685,1.04,1.04,0,0,0-.111-.491.671.671,0,0,0-.349-.31,1,1,0,0,0-.251-.074,2.358,2.358,0,0,0-.382-.025h-.78v1.832Z" transform="translate(-178.959 -402.056)" fill="#0061ad"/>
        <path id="Pfad_355" data-name="Pfad 355" d="M251.224,402.5a.3.3,0,0,1,.337-.345h2.81a.3.3,0,0,1,.345.342v.228a.3.3,0,0,1-.345.334h-2.095V404.6H253.9a.3.3,0,0,1,.345.334v.228a.3.3,0,0,1-.345.342h-1.627v1.578H254.5a.3.3,0,0,1,.345.334v.228a.3.3,0,0,1-.345.342h-2.941a.3.3,0,0,1-.337-.345Z" transform="translate(-199.071 -402.056)" fill="#0061ad"/>
        <path id="Pfad_356" data-name="Pfad 356" d="M273.378,402.5a.3.3,0,0,1,.337-.345h.378a.3.3,0,0,1,.337.345v5.143a.3.3,0,0,1-.337.345h-.378a.3.3,0,0,1-.337-.345Z" transform="translate(-216.567 -402.056)" fill="#0061ad"/>
        <path id="Pfad_357" data-name="Pfad 357" d="M282.69,407.125a.475.475,0,0,1-.136-.2.312.312,0,0,1,.086-.275l.181-.263a.313.313,0,0,1,.21-.152.456.456,0,0,1,.267.078l.185.123a1.674,1.674,0,0,0,.263.14,2.423,2.423,0,0,0,.337.115,1.543,1.543,0,0,0,.4.049,1,1,0,0,0,.641-.185.621.621,0,0,0,.029-.941,2.182,2.182,0,0,0-.505-.329q-.3-.148-.653-.3a3.8,3.8,0,0,1-.653-.353,1.846,1.846,0,0,1-.505-.505,1.32,1.32,0,0,1-.2-.752,1.573,1.573,0,0,1,.152-.7,1.615,1.615,0,0,1,.415-.534,1.864,1.864,0,0,1,.621-.341,2.445,2.445,0,0,1,.776-.119,2.581,2.581,0,0,1,.489.045,3.213,3.213,0,0,1,.427.111,2.546,2.546,0,0,1,.345.144,1.891,1.891,0,0,1,.242.144.323.323,0,0,1,.107.468l-.148.271q-.09.181-.214.181a.566.566,0,0,1-.255-.066,4.02,4.02,0,0,0-.423-.214,1.453,1.453,0,0,0-.587-.107,1.051,1.051,0,0,0-.649.181.6.6,0,0,0-.037.924,2.08,2.08,0,0,0,.505.316q.3.14.653.283a3.632,3.632,0,0,1,.653.349,1.826,1.826,0,0,1,.505.509,1.357,1.357,0,0,1,.2.764,1.725,1.725,0,0,1-.131.669,1.591,1.591,0,0,1-.378.55,1.78,1.78,0,0,1-.6.37,2.293,2.293,0,0,1-.817.136,2.741,2.741,0,0,1-.592-.062,3.385,3.385,0,0,1-.509-.152,2.946,2.946,0,0,1-.407-.193A2.648,2.648,0,0,1,282.69,407.125Z" transform="translate(-223.807 -401.686)" fill="#0061ad"/>
      </g>
      <g id="Gruppe_319" data-name="Gruppe 319" transform="translate(0 8.644)">
        <path id="Pfad_358" data-name="Pfad 358" d="M4.959,442.965a.2.2,0,0,1,.222-.164h.271a.211.211,0,0,1,.222.164l1.988,5.373q.066.238-.164.238H7.318a.2.2,0,0,1-.23-.164l-.616-1.676H4.154l-.608,1.676a.216.216,0,0,1-.23.164H3.144q-.246,0-.173-.238Zm1.348,3.278-.764-2.1a3.333,3.333,0,0,1-.115-.37q-.058-.222-.1-.386H5.313q-.041.165-.107.386t-.115.37l-.772,2.1Z" transform="translate(-2.954 -442.801)" fill="#0061ad"/>
        <path id="Pfad_359" data-name="Pfad 359" d="M37.664,443.006q0-.2.2-.205h.2a.312.312,0,0,1,.246.131l2.859,4.026q.107.165.247.394t.23.386h.017q-.017-.148-.033-.378t-.016-.4v-3.952a.181.181,0,0,1,.205-.205h.164q.2,0,.2.205v5.366q0,.205-.2.205h-.2a.252.252,0,0,1-.238-.131l-2.868-4.026a4.474,4.474,0,0,1-.251-.386q-.136-.23-.226-.394h-.016c.011.1.022.233.033.386s.016.285.016.394v3.952q0,.205-.2.205h-.173q-.2,0-.2-.205Z" transform="translate(-30.366 -442.801)" fill="#0061ad"/>
        <path id="Pfad_360" data-name="Pfad 360" d="M74.593,443.006q0-.2.2-.205h1.668a3.417,3.417,0,0,1,1.2.2,2.48,2.48,0,0,1,1.5,1.487,3.347,3.347,0,0,1,.2,1.2,3.406,3.406,0,0,1-.2,1.208,2.5,2.5,0,0,1-.579.908,2.559,2.559,0,0,1-.916.575,3.417,3.417,0,0,1-1.2.2H74.79q-.2,0-.2-.205Zm1.808,5.061a2.878,2.878,0,0,0,.99-.16,1.963,1.963,0,0,0,1.216-1.22,2.932,2.932,0,0,0,.16-1,2.813,2.813,0,0,0-.164-.99,2.1,2.1,0,0,0-.468-.748,2.026,2.026,0,0,0-.744-.472,2.808,2.808,0,0,0-.99-.164H75.16v4.757Z" transform="translate(-59.531 -442.801)" fill="#0061ad"/>
        <path id="Pfad_361" data-name="Pfad 361" d="M109.975,443.006q0-.2.2-.205h1.561a4.271,4.271,0,0,1,.616.037,1.53,1.53,0,0,1,.436.127,1.435,1.435,0,0,1,.633.575,1.689,1.689,0,0,1,.222.871,1.747,1.747,0,0,1-.3,1.023,1.411,1.411,0,0,1-.793.571v.016c.011.016.029.045.053.086s.056.089.095.144l1.126,2.087q.057.115.016.177a.175.175,0,0,1-.156.062h-.213a.241.241,0,0,1-.239-.14L112,446.145h-1.454v2.227q0,.205-.2.205h-.173q-.2,0-.2-.205Zm1.939,2.629a1.09,1.09,0,0,0,.83-.329,1.223,1.223,0,0,0,.312-.879,1.167,1.167,0,0,0-.16-.612.989.989,0,0,0-.448-.4,1.308,1.308,0,0,0-.3-.082,3.222,3.222,0,0,0-.452-.025h-1.15v2.325Z" transform="translate(-87.474 -442.801)" fill="#0061ad"/>
        <path id="Pfad_362" data-name="Pfad 362" d="M141.589,443.006q0-.2.2-.205h2.851a.181.181,0,0,1,.205.205v.1a.182.182,0,0,1-.205.205h-2.482v2.1h1.989q.205,0,.205.2v.107a.182.182,0,0,1-.205.205h-1.989v2.144h2.629a.182.182,0,0,1,.205.205v.1a.182.182,0,0,1-.205.205h-3q-.2,0-.2-.205Z" transform="translate(-112.441 -442.801)" fill="#0061ad"/>
        <path id="Pfad_363" data-name="Pfad 363" d="M169.853,442.965a.2.2,0,0,1,.222-.164h.271a.211.211,0,0,1,.222.164l1.988,5.373q.066.238-.164.238h-.181a.2.2,0,0,1-.23-.164l-.616-1.676h-2.317l-.608,1.676a.216.216,0,0,1-.23.164h-.173q-.246,0-.172-.238Zm1.348,3.278-.764-2.1a3.332,3.332,0,0,1-.115-.37q-.058-.222-.1-.386h-.016q-.041.165-.107.386t-.115.37l-.772,2.1Z" transform="translate(-133.179 -442.801)" fill="#0061ad"/>
        <path id="Pfad_364" data-name="Pfad 364" d="M202.04,443.006q0-.2.2-.205h.2a.313.313,0,0,1,.246.131l2.859,4.026q.107.165.247.394t.23.386h.016q-.017-.148-.033-.378t-.017-.4v-3.952a.182.182,0,0,1,.205-.205h.164q.2,0,.2.205v5.366q0,.205-.2.205h-.2a.253.253,0,0,1-.238-.131l-2.868-4.026a4.518,4.518,0,0,1-.251-.386q-.135-.23-.226-.394h-.016c.011.1.022.233.033.386s.017.285.017.394v3.952q0,.205-.2.205h-.173q-.2,0-.2-.205Z" transform="translate(-160.182 -442.801)" fill="#0061ad"/>
        <path id="Pfad_365" data-name="Pfad 365" d="M238.227,443.006a.182.182,0,0,1,.206-.205h.164a.182.182,0,0,1,.205.205v3.55a1.543,1.543,0,0,0,.435,1.167,1.918,1.918,0,0,0,2.4-.008,1.563,1.563,0,0,0,.439-1.175v-3.533a.182.182,0,0,1,.206-.205h.164q.2,0,.2.205v3.558a2.262,2.262,0,0,1-.16.867,1.917,1.917,0,0,1-.448.665,2.006,2.006,0,0,1-.694.427,2.552,2.552,0,0,1-.9.152,2.578,2.578,0,0,1-.908-.152,2.048,2.048,0,0,1-.7-.427,1.887,1.887,0,0,1-.452-.665,2.267,2.267,0,0,1-.16-.867Z" transform="translate(-188.761 -442.801)" fill="#0061ad"/>
        <path id="Pfad_366" data-name="Pfad 366" d="M274.379,442.99q0-.189.205-.189h.222a.248.248,0,0,1,.238.156l1.446,3.237.148.37q.082.205.14.337h.016q.041-.132.123-.337t.156-.37l1.446-3.237a.247.247,0,0,1,.238-.156h.222a.2.2,0,0,1,.205.189l.435,5.373q.008.214-.2.214h-.164q-.206,0-.205-.189l-.3-3.853c-.005-.054-.01-.118-.012-.189s-.005-.144-.008-.218,0-.145,0-.214v-.185h-.017c-.016.055-.037.118-.061.189s-.051.144-.078.218-.055.145-.082.213l-.074.185-1.3,2.81a.224.224,0,0,1-.23.156h-.2a.218.218,0,0,1-.238-.156l-1.29-2.81c-.044-.1-.1-.238-.156-.4s-.11-.3-.148-.419h-.017q0,.164,0,.411t-.02.411l-.3,3.853a.184.184,0,0,1-.205.189h-.164c-.148,0-.214-.071-.2-.214Z" transform="translate(-216.966 -442.801)" fill="#0061ad"/>
      </g>
    </g>
  </g>
</svg>
