<svg id="Ebene_1" data-name="Ebene 1" xmlns="http://www.w3.org/2000/svg" viewBox="0 0 415.15 412.41"><defs><style>.cls-1,.cls-10,.cls-11,.cls-12,.cls-13,.cls-14,.cls-15,.cls-16,.cls-17,.cls-18,.cls-19,.cls-7,.cls-8,.cls-9{fill:#fff;}.cls-2,.cls-4{fill:#1d1d1b;}.cls-3,.cls-5{fill:#009640;}.cls-4,.cls-5{fill-rule:evenodd;}.cls-6{fill:none;}.cls-7{font-size:52px;}.cls-10,.cls-11,.cls-12,.cls-13,.cls-14,.cls-15,.cls-16,.cls-17,.cls-18,.cls-19,.cls-7,.cls-8,.cls-9{font-family:Futura-CondensedBold, Futura CondensedBold;font-weight:700;}.cls-8{font-size:51.99px;}.cls-9{font-size:52px;}.cls-10{font-size:51.99px;}.cls-11{font-size:49.62px;}.cls-12{font-size:49.62px;}.cls-13{font-size:49.62px;}.cls-14{font-size:49.62px;}.cls-15{font-size:49.62px;}.cls-16{font-size:49.62px;}.cls-17{font-size:49.62px;}.cls-18{font-size:49.62px;}.cls-19{font-size:49.62px;}</style></defs><circle class="cls-1" cx="206.21" cy="208.03" r="181.48" transform="translate(-90.33 200.85) rotate(-45)"/><path class="cls-2" d="M215.07,10.89c-112.5,0-203.7,91.2-203.7,203.7s91.2,203.71,203.7,203.71,203.71-91.2,203.71-203.71S327.58,10.89,215.07,10.89Zm0,345.93A142.23,142.23,0,1,1,357.29,214.59,142.23,142.23,0,0,1,215.07,356.82Z" transform="translate(-3.63 -5.89)"/><path class="cls-3" d="M207.33,5.89c-112.5,0-203.7,91.2-203.7,203.7S94.83,413.3,207.33,413.3,411,322.1,411,209.59,319.83,5.89,207.33,5.89Zm0,345.93A142.23,142.23,0,1,1,349.55,209.59,142.23,142.23,0,0,1,207.33,351.82Z" transform="translate(-3.63 -5.89)"/><polygon class="cls-4" points="136.37 301.7 142.74 298.61 147.68 295.31 150.75 292.86 151.36 286.5 152.81 256.7 153.42 211.31 153.22 163.45 152.6 134.5 151.78 125.87 150.33 123.6 148.5 121.56 145.21 120.33 138.22 118.89 128.16 117.86 127.95 106.16 136.58 106.37 153.83 106.98 178.07 107.19 205.18 106.98 232.09 106.78 253.24 106.37 272.15 106.37 280.16 106.78 283.02 106.98 284.46 107.99 285.29 110.26 284.46 116.21 282.4 134.09 281.19 150.93 269.06 150.93 268.85 137.79 268.23 130.19 267.62 128.75 265.37 127.31 261.25 125.87 256.13 124.84 250.38 124.22 237.83 123.6 207.44 123.81 200.05 124.02 196.36 124.02 195.13 147.84 194.71 165.51 194.1 182.98 194.1 195.08 198.61 195.91 208.47 195.91 218.95 196.32 232.09 196.32 240.72 195.7 246.67 195.29 249.14 193.44 250.58 190.99 251.39 187.9 252 177.64 252 172.49 265.17 172.49 264.55 197.14 264.55 207.83 264.96 222.82 265.37 236.99 252.42 236.99 252.21 231.45 251.39 221.79 250.38 216.25 249.14 214.61 246.67 213.37 242.57 212.14 235.78 211.93 216.69 211.52 203.55 211.72 195.33 212.14 194.71 231.45 194.71 249.72 195.33 273.75 195.74 289.36 195.95 291.22 200.25 291.42 219.36 291.83 235.98 291.63 252.42 290.81 268.44 289.36 273.17 288.74 275.83 277.25 278.1 265.33 279.33 259.17 293.91 259.17 292.68 267.8 291.24 276.64 289.81 287.71 288.79 297.79 288.17 308.27 265.58 308.89 234.97 308.89 211.15 308.47 190.18 308.06 171.5 308.47 151.36 308.89 136.37 309.09 136.37 301.7"/><polygon class="cls-5" points="130.8 297.38 137.16 294.29 142.1 290.99 145.17 288.54 145.79 282.18 147.23 252.38 147.85 206.99 147.64 159.13 147.03 130.18 146.2 121.55 144.76 119.28 142.93 117.25 139.63 116.01 132.65 114.57 122.58 113.54 122.37 101.84 131 102.05 148.26 102.67 172.5 102.87 199.6 102.67 226.52 102.46 247.67 102.05 266.57 102.05 274.58 102.46 277.45 102.67 278.88 103.67 279.71 105.94 278.88 111.89 276.83 129.77 275.61 146.61 263.48 146.61 263.28 133.47 262.66 125.87 262.04 124.43 259.8 122.99 255.68 121.55 250.55 120.52 244.8 119.9 232.26 119.28 201.87 119.49 194.47 119.7 190.79 119.7 189.55 143.52 189.14 161.19 188.52 178.66 188.52 190.76 193.03 191.59 202.9 191.59 213.38 192 226.52 192 235.15 191.38 241.1 190.97 243.57 189.12 245.01 186.67 245.81 183.58 246.43 173.32 246.43 168.17 259.59 168.17 258.97 192.82 258.97 203.51 259.38 218.5 259.8 232.67 246.84 232.67 246.64 227.13 245.81 217.47 244.8 211.94 243.57 210.29 241.1 209.05 237 207.82 230.2 207.61 211.11 207.2 197.97 207.4 189.76 207.82 189.14 227.13 189.14 245.4 189.76 269.43 190.17 285.04 190.38 286.9 194.68 287.1 213.79 287.51 230.41 287.31 246.84 286.48 262.86 285.04 267.6 284.43 270.26 272.93 272.52 261.01 273.76 254.85 288.34 254.85 287.1 263.48 285.66 272.32 284.24 283.39 283.21 293.46 282.59 303.95 260 304.57 229.4 304.57 205.57 304.15 184.61 303.74 165.93 304.15 145.79 304.57 130.8 304.77 130.8 297.38"/><polyline class="cls-6" points="192 186.06 201.43 185.82 205.34 185.13 208.33 183.52 209.71 180.76 210.63 176.85 211.32 170.64 211.78 162.13 224.44 162.13 224.21 181.22 223.98 193.88 224.44 213.2 224.9 228.15 211.56 227.46"/><line class="cls-6" x1="171.76" y1="284.06" x2="189.24" y2="284.06"/><polyline class="cls-6" points="203.73 284.06 218.46 282.91 232.95 281.76 234.56 273.93 237.32 261.05 239.16 250.93 254.11 250.93 253.19 259.67 251.12 273.47 249.51 284.98 248.59 301.54 228.58 302.46 199.36 302 165.77 301.54"/><polyline class="cls-6" points="139.55 301.08 116.54 301.77 97.91 302.46 92.62 302.23 92.62 294.41 97.68 291.42 102.28 288.66 106.65 285.44 107.34 283.37 108.95 250.47 109.64 204.69 109.87 172.48 109.64 141.19 109.18 123.48 107.34 112.21"/><path class="cls-6" d="M60.35,211.8A147.94,147.94,0,1,1,203,364.81,147.92,147.92,0,0,1,60.35,211.8Z" transform="translate(-3.63 -5.89)"/><text class="cls-7" transform="matrix(0.88, -0.66, 0.6, 0.8, 100.75, 91.05)">E</text><text class="cls-7" transform="matrix(0.96, -0.53, 0.48, 0.87, 124.2, 74.56)">i</text><text class="cls-7" transform="matrix(1.04, -0.36, 0.33, 0.95, 140.68, 65.57)">n</text><text class="cls-7" transform="matrix(1.09, -0.17, 0.16, 0.99, 170.17, 56.25)">t</text><text class="cls-7" transform="matrix(1.1, 0, 0, 1, 194.03, 52.85)">r</text><text class="cls-7" transform="matrix(1.08, 0.19, -0.17, 0.98, 218.74, 52.84)">a</text><text class="cls-8" transform="matrix(1.03, 0.38, -0.34, 0.94, 249.64, 59)">c</text><text class="cls-9" transform="matrix(0.95, 0.55, -0.5, 0.87, 272.76, 67.77)">h</text><text class="cls-10" transform="matrix(0.85, 0.69, -0.63, 0.78, 299, 83.83)">t</text><path class="cls-6" d="M60.47,225C49,138.2,105.21,59.22,186,48.57s155.51,51.06,167,137.84-44.74,165.76-125.5,176.41S71.92,311.76,60.47,225Z" transform="translate(-3.63 -5.89)"/><text class="cls-11" transform="translate(60.68 327.36) rotate(47.48) scale(1.1 1)">H</text><text class="cls-12" transform="matrix(0.87, 0.67, -0.61, 0.79, 91.09, 357.14)">i</text><text class="cls-13" transform="matrix(0.95, 0.56, -0.51, 0.86, 108.78, 369.66)">l</text><text class="cls-14" transform="matrix(1.02, 0.42, -0.38, 0.92, 128.47, 380.7)">d</text><text class="cls-15" transform="matrix(1.08, 0.2, -0.18, 0.98, 163.72, 393.27)">e</text><text class="cls-16" transform="matrix(1.1, -0.05, 0.04, 1, 200.37, 398.19)">s</text><text class="cls-15" transform="matrix(1.07, -0.24, 0.22, 0.98, 233.23, 396.22)">h</text><text class="cls-17" transform="matrix(1.01, -0.44, 0.4, 0.92, 268.22, 386.89)">e</text><text class="cls-18" transform="matrix(0.91, -0.62, 0.57, 0.82, 300.15, 370.85)">i</text><text class="cls-19" transform="matrix(0.78, -0.77, 0.7, 0.71, 319.73, 357.41)">m</text></svg>