<svg id="Ebene_1" data-name="Ebene 1" xmlns="http://www.w3.org/2000/svg" viewBox="0 0 555.56 290.06"><defs><style>.cls-1{fill:#fbba00;}.cls-2{fill:#5c2483;}.cls-3{fill:#9774b1;}.cls-4{fill:#fff;}</style></defs><path class="cls-1" d="M69.61,103.13a4.54,4.54,0,0,1,1.53-2,5,5,0,0,1,2.6-.54c1.74,0,2.86.32,3.35,1s.77,1.92.83,3.84l.18,8.63v.49c0,1.77-.35,3-1,3.71a4.94,4.94,0,0,1-3.58,1.06q-3.18,0-4.76-3.42l-.36-.81a9.92,9.92,0,0,0-3.77-4.2A10.83,10.83,0,0,0,59,109.47a10.66,10.66,0,0,0-6.54,1.86,5.74,5.74,0,0,0-2.5,4.79c0,2.75,3.81,4.93,11.42,6.51l3.06.63Q73,125.15,76.89,129t3.86,10.57q0,8.26-5.61,12.74t-16.09,4.47a44.3,44.3,0,0,1-7.3-.54,33.64,33.64,0,0,1-6.23-1.66,4.53,4.53,0,0,1-1.66,1.68,5.42,5.42,0,0,1-2.61.52c-1.89,0-3.2-.36-4-1.08s-1.14-2-1.17-3.82L36,141.33v-.5c0-2,.36-3.35,1.1-4.13s2-1.17,3.84-1.17,3.58,1.41,4.9,4.23c.3.69.54,1.21.72,1.57a11.71,11.71,0,0,0,4.88,5.17,15.75,15.75,0,0,0,7.66,1.7,10.54,10.54,0,0,0,6.42-1.7,5.65,5.65,0,0,0,2.3-4.81q0-4.81-10.38-7.28c-2.07-.48-3.71-.89-4.9-1.22q-8.73-2.28-12.09-5.73T37,118.05a15.68,15.68,0,0,1,5.77-12.56q5.78-4.87,14.94-4.88a28.56,28.56,0,0,1,6,.63A31.3,31.3,0,0,1,69.61,103.13Z"/><path class="cls-1" d="M126,116.3a5,5,0,0,1,1.69-2.63,4.65,4.65,0,0,1,2.94-.88,4,4,0,0,1,3.46,1.46c.69,1,1,2.66,1,5.06v7.37a6.07,6.07,0,0,1-1.13,4,4.32,4.32,0,0,1-3.46,1.31,4.8,4.8,0,0,1-2.78-.77,9,9,0,0,1-2.39-2.92,11.3,11.3,0,0,0-4.71-4.52,15.93,15.93,0,0,0-7.15-1.46,11.51,11.51,0,0,0-8.61,3.44,13.38,13.38,0,0,0,.12,17.82q3.45,3.42,9.3,3.42a21.26,21.26,0,0,0,10.54-2.95q5.24-2.94,6.4-2.94a3.52,3.52,0,0,1,2.77,1.28,4.76,4.76,0,0,1,1.1,3.21q0,4.23-6.41,7.55a32.57,32.57,0,0,1-15.21,3.33q-10.87,0-17.68-6.11a20.18,20.18,0,0,1-6.81-15.73A20.41,20.41,0,0,1,95.79,119q6.74-6.26,17-6.25a27.12,27.12,0,0,1,6.74.85A27.83,27.83,0,0,1,126,116.3Z"/><path class="cls-1" d="M159.76,118.41a10.33,10.33,0,0,1,4.45-4.18,15.22,15.22,0,0,1,6.88-1.44q7.09,0,10.94,4.14t3.84,11.86v16.76h.77a4.35,4.35,0,0,1,4.85,4.86,5,5,0,0,1-1.28,3.82c-.85.78-2.3,1.16-4.34,1.16H174.73c-2,0-3.44-.38-4.29-1.16a4.93,4.93,0,0,1,3.57-8.68h.72V132.48q0-5.76-1.42-8c-.94-1.48-2.55-2.23-4.83-2.23a8,8,0,0,0-6.16,2.9,10.67,10.67,0,0,0-2.56,7.31v13.07h.72a5,5,0,0,1,3.66,1.24,4.88,4.88,0,0,1,1.24,3.62,5,5,0,0,1-1.3,3.82c-.87.78-2.31,1.16-4.32,1.16H148.62c-2.07,0-3.52-.38-4.36-1.14a5,5,0,0,1-1.26-3.84,4.34,4.34,0,0,1,4.85-4.86h.77v-39h-.77a4.92,4.92,0,0,1-3.66-1.28,5,5,0,0,1-1.28-3.7,4.9,4.9,0,0,1,1.3-3.82q1.31-1.17,4.41-1.17h8.45a2.83,2.83,0,0,1,2.11.63,3.48,3.48,0,0,1,.58,2.33Z"/><path class="cls-1" d="M227.49,123.71h-.72a4.9,4.9,0,0,1-3.66-1.26,5,5,0,0,1-1.24-3.68,4.86,4.86,0,0,1,1.26-3.78c.84-.75,2.29-1.12,4.36-1.12H236a3,3,0,0,1,1.89.52,1.67,1.67,0,0,1,.68,1.41v29.75h.71a5.07,5.07,0,0,1,3.71,1.26,4.8,4.8,0,0,1,1.28,3.6,4.9,4.9,0,0,1-1.3,3.84c-.87.76-2.34,1.14-4.4,1.14H231a3.13,3.13,0,0,1-2-.53,1.8,1.8,0,0,1-.7-1.49V150a14.1,14.1,0,0,1-5.28,4.85,15.73,15.73,0,0,1-7.34,1.62q-7.25,0-10.75-4.36t-3.5-13.35v-15h-.76a4.42,4.42,0,0,1-5-4.94A4.83,4.83,0,0,1,197,115c.86-.75,2.33-1.12,4.43-1.12h8.45a2.8,2.8,0,0,1,1.84.52,1.71,1.71,0,0,1,.63,1.41v20.9c0,3.68.51,6.28,1.53,7.77s2.69,2.25,5,2.25a7.79,7.79,0,0,0,6.14-2.76,10.67,10.67,0,0,0,2.4-7.26Z"/><path class="cls-1" d="M277.47,145.55h9.66c2.07,0,3.52.38,4.36,1.13a4.78,4.78,0,0,1,1.26,3.73,5,5,0,0,1-1.28,3.82c-.86.78-2.3,1.16-4.34,1.16H256.66c-2,0-3.44-.38-4.29-1.16a5,5,0,0,1-1.28-3.82,4.87,4.87,0,0,1,1.23-3.76c.83-.73,2.27-1.1,4.34-1.1h9.66v-39h-4.94c-2,0-3.5-.39-4.38-1.19a4.84,4.84,0,0,1-1.33-3.79A4.9,4.9,0,0,1,257,97.74c.86-.78,2.33-1.17,4.4-1.17h13.44a3.25,3.25,0,0,1,1.95.51,1.67,1.67,0,0,1,.7,1.42Z"/><path class="cls-1" d="M311.53,123.71l3.6,22.11,4.8-17.12a6.56,6.56,0,0,1,1.94-3.55,5.83,5.83,0,0,1,3.46-.85,6.16,6.16,0,0,1,3.46.8c.78.54,1.44,1.74,2,3.6l5,17.12,3.42-22.11h-.76a4.42,4.42,0,0,1-5-4.94,4.83,4.83,0,0,1,1.28-3.78c.86-.75,2.33-1.12,4.43-1.12h10.56c2.07,0,3.53.38,4.4,1.15a4.75,4.75,0,0,1,1.31,3.75,4.93,4.93,0,0,1-1.28,3.68,5,5,0,0,1-3.67,1.26h-.76l-5.62,28.36a4.91,4.91,0,0,1-2.07,3.39,10.93,10.93,0,0,1-9.39,0,5.86,5.86,0,0,1-2.33-3.39l-5.26-17.48-4.68,17.48a5.4,5.4,0,0,1-2.33,3.35,9,9,0,0,1-4.77,1.1,8.38,8.38,0,0,1-4.67-1.06,5,5,0,0,1-2-3.39l-5.71-28.36h-.76a4.84,4.84,0,0,1-3.62-1.26,5,5,0,0,1-1.24-3.68,4.85,4.85,0,0,1,1.26-3.75c.84-.77,2.29-1.15,4.36-1.15h10.65c2.07,0,3.52.38,4.36,1.15a4.85,4.85,0,0,1,1.26,3.75,5,5,0,0,1-1.24,3.68,4.84,4.84,0,0,1-3.62,1.26Z"/><path class="cls-2" d="M372,137.28a12.29,12.29,0,0,0,4.51,7.46,14.67,14.67,0,0,0,8.92,2.48,24.39,24.39,0,0,0,11-2.72c3.63-1.82,5.82-2.72,6.56-2.72a3.41,3.41,0,0,1,2.72,1.23,4.69,4.69,0,0,1,1.06,3.17q0,4.23-6.25,7.28t-15.46,3.06q-10.87,0-17.68-6.11a21.53,21.53,0,0,1,0-31.42q6.81-6.1,17.68-6.11,9.7,0,16.09,5.73a18.13,18.13,0,0,1,6.38,14c0,1.77-.42,3-1.28,3.65s-2.61,1-5.28,1Zm24.22-7a9.85,9.85,0,0,0-3.93-6.47,13.77,13.77,0,0,0-8.25-2.29,13.1,13.1,0,0,0-7.89,2.18,11.38,11.38,0,0,0-4.15,6.58Z"/><path class="cls-1" d="M436.53,131v14.56h10.61c2,0,3.48.38,4.33,1.13a4.72,4.72,0,0,1,1.28,3.73,5,5,0,0,1-1.28,3.82c-.85.78-2.3,1.16-4.33,1.16H422c-2.07,0-3.54-.38-4.41-1.16a4.91,4.91,0,0,1-1.3-3.82,4.75,4.75,0,0,1,1.28-3.73c.86-.75,2.35-1.13,4.45-1.13h3.44V123.71h-2c-2,0-3.5-.38-4.36-1.14a6.31,6.31,0,0,1-.05-7.58c.82-.75,2.28-1.12,4.38-1.12h9.57a3,3,0,0,1,1.89.52,1.66,1.66,0,0,1,.67,1.41v6.65a36.66,36.66,0,0,1,9.15-7.5,19.23,19.23,0,0,1,9.14-2.25,11.34,11.34,0,0,1,7.06,2,6.41,6.41,0,0,1,2.61,5.37,5.61,5.61,0,0,1-1.8,4.29,6.47,6.47,0,0,1-4.63,1.69,10.63,10.63,0,0,1-4.79-1.48,10.32,10.32,0,0,0-3.84-1.49,9.67,9.67,0,0,0-5.08,1.94A46.06,46.06,0,0,0,436.53,131Z"/><path class="cls-1" d="M485.72,131l9.48-8.54a3.53,3.53,0,0,1-1.91-1.21,4.36,4.36,0,0,1-.51-2.38c0-1.83.4-3.12,1.21-3.87s2.25-1.12,4.31-1.12h9.93c2,0,3.49.37,4.34,1.12a4.79,4.79,0,0,1,1.28,3.78,4.43,4.43,0,0,1-.74,2.87,5.22,5.22,0,0,1-3,1.35,11.91,11.91,0,0,0-3.75,1.35,18.7,18.7,0,0,0-3.8,3.15l-3.19,3.32,11.86,14.74h1.12a5.53,5.53,0,0,1,3.91,1.22,4.72,4.72,0,0,1,1.31,3.64,4.92,4.92,0,0,1-1.31,3.82c-.86.78-2.33,1.16-4.4,1.16h-11a7.09,7.09,0,0,1-4.23-1,3.72,3.72,0,0,1-1.3-3.15,4,4,0,0,1,.77-2.58,5.7,5.7,0,0,1,2.51-1.64l-7.32-8.95-5.53,5.08v9.26a3.56,3.56,0,0,1-.58,2.34,2.84,2.84,0,0,1-2.12.62h-8.09c-2,0-3.39-.38-4.24-1.16a6.18,6.18,0,0,1-.07-7.44,4.84,4.84,0,0,1,3.59-1.24h.72v-39h-.72a4.84,4.84,0,0,1-3.64-1.3,5.13,5.13,0,0,1-1.25-3.68,4.91,4.91,0,0,1,1.3-3.8c.87-.8,2.31-1.19,4.31-1.19H483a2.84,2.84,0,0,1,2.12.63,3.54,3.54,0,0,1,.58,2.33Z"/><path class="cls-2" d="M42.3,72.05a8.89,8.89,0,0,0,2.84,6.52,10.43,10.43,0,0,0,7.15,2.3,18.1,18.1,0,0,0,7.44-1.82,20.26,20.26,0,0,1,4.88-1.83,2,2,0,0,1,1.46.56,1.81,1.81,0,0,1,.59,1.37A2.3,2.3,0,0,1,66,80.7a6.31,6.31,0,0,1-2,1.36,29.62,29.62,0,0,1-6,2.18,26.37,26.37,0,0,1-6.18.75q-6.66,0-10.67-3.84a13.48,13.48,0,0,1-4-10.18,13.72,13.72,0,0,1,4.24-10.46,15.44,15.44,0,0,1,11-4,14.5,14.5,0,0,1,10.22,3.74,11.85,11.85,0,0,1,4.06,9.06,2.73,2.73,0,0,1-.68,2.19c-.46.37-1.7.55-3.73.55H42.3Zm.14-3.82h19a8.46,8.46,0,0,0-2.91-5.6,9,9,0,0,0-6.06-2.12A10.42,10.42,0,0,0,46,62.56,9.63,9.63,0,0,0,42.44,68.23Z"/><path class="cls-2" d="M76.49,61.39a5.4,5.4,0,0,1-2.65-.46,1.82,1.82,0,0,1-.71-1.63,1.9,1.9,0,0,1,.58-1.52,2.59,2.59,0,0,1,1.75-.51h8.18a3.78,3.78,0,0,1,2.22.45,1.94,1.94,0,0,1,.56,1.58,1.8,1.8,0,0,1-.73,1.63,5.59,5.59,0,0,1-2.69.46H81.92l7.59,18.93L98,61.39H96.2a6.82,6.82,0,0,1-3-.45,1.72,1.72,0,0,1-.79-1.64,1.94,1.94,0,0,1,.55-1.58,3.78,3.78,0,0,1,2.22-.45h9a2.59,2.59,0,0,1,1.75.51,1.9,1.9,0,0,1,.59,1.52,1.8,1.8,0,0,1-.72,1.63,5.38,5.38,0,0,1-2.64.46h-.53L93,82.71a5.05,5.05,0,0,1-1.45,2.09,3.72,3.72,0,0,1-2.08.48,3.47,3.47,0,0,1-1.95-.46,5.21,5.21,0,0,1-1.41-2.11Z"/><path class="cls-2" d="M134.28,80.55a17.68,17.68,0,0,1-5.22,3.3A15.28,15.28,0,0,1,123.27,85a10.08,10.08,0,0,1-7-2.42,8.13,8.13,0,0,1-2.67-6.31,8.29,8.29,0,0,1,3.55-7.16q3.54-2.53,10-2.54a26.41,26.41,0,0,1,3.42.22,27.92,27.92,0,0,1,3.54.69v-.21a6.76,6.76,0,0,0-1.61-5c-1.07-1.08-2.74-1.61-5-1.61a12.8,12.8,0,0,0-5.08,1.23,12.65,12.65,0,0,1-3.71,1.22,1.75,1.75,0,0,1-1.4-.68,2.74,2.74,0,0,1-.56-1.77q0-1.72,3.23-2.92a24,24,0,0,1,8.25-1.2q5.15,0,7.77,2.61c1.76,1.75,2.63,4.32,2.63,7.73V80.14H140a5.9,5.9,0,0,1,2.78.44,1.71,1.71,0,0,1,.7,1.58,2,2,0,0,1-.58,1.58,2.57,2.57,0,0,1-1.76.52h-4.58a1.89,1.89,0,0,1-1.35-.49,2.61,2.61,0,0,1-.7-1.44Zm-.23-9.2a20.55,20.55,0,0,0-3.12-.77,17.83,17.83,0,0,0-3-.25,14,14,0,0,0-7.1,1.52,4.59,4.59,0,0,0-2.6,4.09,4,4,0,0,0,1.62,3.27A6.44,6.44,0,0,0,124,80.49a12.9,12.9,0,0,0,6.88-1.94q3.17-1.93,3.17-4Z"/><path class="cls-2" d="M154.39,80.14V61.42h-.56A5.6,5.6,0,0,1,151.1,61a1.79,1.79,0,0,1-.74-1.63,1.88,1.88,0,0,1,.61-1.57,3.25,3.25,0,0,1,2-.48h4.18a2.06,2.06,0,0,1,1.22.32,1,1,0,0,1,.44.88v2A15.87,15.87,0,0,1,163,57.52a10.42,10.42,0,0,1,4.34-1,9,9,0,0,1,6.94,2.75,10.8,10.8,0,0,1,2.52,7.59V80.14h1.39a3.51,3.51,0,0,1,2.11.49,1.76,1.76,0,0,1,.65,1.53,1.83,1.83,0,0,1-.69,1.62,4.49,4.49,0,0,1-2.44.48h-6.47a4.15,4.15,0,0,1-2.4-.44,2.08,2.08,0,0,1-.53-1.66,1.81,1.81,0,0,1,.62-1.58,4.33,4.33,0,0,1,2.32-.44h1V68a7.7,7.7,0,0,0-1.55-5.21,5.63,5.63,0,0,0-4.51-1.8,7.72,7.72,0,0,0-5.27,2,6.38,6.38,0,0,0-2.28,5V80.14h1a4.44,4.44,0,0,1,2.37.44,1.81,1.81,0,0,1,.61,1.58,2.08,2.08,0,0,1-.52,1.66,4.6,4.6,0,0,1-2.57.44h-6.9a2.67,2.67,0,0,1-1.79-.51,2,2,0,0,1-.6-1.59,1.73,1.73,0,0,1,.68-1.59,5.59,5.59,0,0,1,2.68-.43Z"/><path class="cls-2" d="M214.84,82.71a28.41,28.41,0,0,1-.41,5.8,8,8,0,0,1-1.41,3,10.16,10.16,0,0,1-4.6,3.28,19.53,19.53,0,0,1-7,1.13,13.4,13.4,0,0,1-4.86-.65,2.15,2.15,0,0,1-1.54-2,2.11,2.11,0,0,1,.75-1.59,2.53,2.53,0,0,1,1.77-.69,19.5,19.5,0,0,1,2.42.22,19.63,19.63,0,0,0,2.48.22c2.89,0,4.93-.66,6.14-2s1.81-3.59,1.81-6.8V79.06a11.18,11.18,0,0,1-3.94,3,13.16,13.16,0,0,1-14-2.67,12.6,12.6,0,0,1-3.58-9.22,12.64,12.64,0,0,1,3.68-9.3,12.34,12.34,0,0,1,9.12-3.7,12.13,12.13,0,0,1,4.39.83,17.67,17.67,0,0,1,4.34,2.53v-2.1a1.07,1.07,0,0,1,.39-.91,2.17,2.17,0,0,1,1.25-.29h4.41a2.59,2.59,0,0,1,1.75.51,1.93,1.93,0,0,1,.58,1.54,1.8,1.8,0,0,1-.72,1.63,5.5,5.5,0,0,1-2.73.47h-.52ZM202.13,61.59A8.57,8.57,0,0,0,195.88,64a8.94,8.94,0,0,0,0,12.23,9.38,9.38,0,0,0,12.49,0,8.85,8.85,0,0,0,0-12.2A8.52,8.52,0,0,0,202.13,61.59Z"/><path class="cls-2" d="M230.77,72.05a8.93,8.93,0,0,0,2.85,6.52,10.41,10.41,0,0,0,7.14,2.3,18.11,18.11,0,0,0,7.45-1.82,20.26,20.26,0,0,1,4.88-1.83,2,2,0,0,1,1.46.56,1.81,1.81,0,0,1,.59,1.37,2.3,2.3,0,0,1-.62,1.55,6.44,6.44,0,0,1-2,1.36,29.49,29.49,0,0,1-6,2.18,26.22,26.22,0,0,1-6.17.75q-6.66,0-10.67-3.84a13.44,13.44,0,0,1-4-10.18,13.72,13.72,0,0,1,4.24-10.46,15.44,15.44,0,0,1,11-4,14.5,14.5,0,0,1,10.22,3.74,11.85,11.85,0,0,1,4.06,9.06,2.76,2.76,0,0,1-.68,2.19c-.46.37-1.7.55-3.73.55H230.77Zm.15-3.82h19a8.51,8.51,0,0,0-2.91-5.6A9,9,0,0,0,241,60.51a10.42,10.42,0,0,0-6.54,2.05A9.58,9.58,0,0,0,230.92,68.23Z"/><path class="cls-2" d="M276.39,50.23h-5a8.36,8.36,0,0,1-3.55-.45,1.79,1.79,0,0,1-.71-1.65,2,2,0,0,1,.59-1.58,2.57,2.57,0,0,1,1.74-.53h9.64a2,2,0,0,1,1.23.33,1,1,0,0,1,.44.87V80.14H290a2.26,2.26,0,0,1,1.62.49,2,2,0,0,1,.51,1.53,2.18,2.18,0,0,1-.49,1.65,2.88,2.88,0,0,1-1.87.45H268.18a2.57,2.57,0,0,1-1.74-.52,2,2,0,0,1-.6-1.58,1.84,1.84,0,0,1,.61-1.52,2.9,2.9,0,0,1,1.84-.5h8.1Z"/><path class="cls-2" d="M318.75,80.14h9.38a2.43,2.43,0,0,1,1.68.49,2,2,0,0,1,.54,1.53,2.14,2.14,0,0,1-.51,1.65,2.92,2.92,0,0,1-1.88.45H305.32a2.52,2.52,0,0,1-1.75-.52,2,2,0,0,1-.59-1.58,1.87,1.87,0,0,1,.61-1.52,2.9,2.9,0,0,1,1.84-.5h8.91V61.39h-5.71a2.77,2.77,0,0,1-1.84-.54,1.93,1.93,0,0,1-.62-1.55,1.9,1.9,0,0,1,.58-1.52,2.59,2.59,0,0,1,1.75-.51h8.56a2.13,2.13,0,0,1,1.24.32,1,1,0,0,1,.45.88Zm-5.4-31.28c0-2.11.19-3.43.57-4s1.19-.82,2.44-.82a3.12,3.12,0,0,1,2.39.68c.39.46.59,1.55.59,3.26s-.18,2.71-.54,3.11a3.41,3.41,0,0,1-2.44.6,3.69,3.69,0,0,1-2.44-.55A3.32,3.32,0,0,1,313.35,48.86Z"/><path class="cls-2" d="M341,82.16V77a2.8,2.8,0,0,1,.48-1.84,2,2,0,0,1,1.56-.56c.8,0,1.43.55,1.9,1.64a8.66,8.66,0,0,0,.85,1.49,8.41,8.41,0,0,0,3.62,2.53,14.31,14.31,0,0,0,5.29,1,8.78,8.78,0,0,0,5-1.26,3.83,3.83,0,0,0,1.86-3.3,3.14,3.14,0,0,0-1.5-3q-1.5-.89-5.16-.88h-1.6c-4,0-7-.69-9.09-2.07a6.78,6.78,0,0,1-3.12-6,6.88,6.88,0,0,1,3.05-6q3-2.13,8.57-2.13a17.61,17.61,0,0,1,4.59.63c1.56.42,2.37.63,2.45.63a3.09,3.09,0,0,0,1.23-.57,3.33,3.33,0,0,1,1.78-.57,1.65,1.65,0,0,1,1.48.73,4,4,0,0,1,.48,2.19V63a4.09,4.09,0,0,1-.47,2.23,1.67,1.67,0,0,1-1.49.69c-.58,0-1.3-.5-2.16-1.49a19.59,19.59,0,0,0-1.49-1.55,9.57,9.57,0,0,0-3.3-2.06,12.18,12.18,0,0,0-4.12-.63,7.42,7.42,0,0,0-4.42,1.21,3.67,3.67,0,0,0-1.68,3.09,2.69,2.69,0,0,0,1.72,2.62q1.73.8,7.42.91c4.05.1,7,.8,8.88,2.12s2.8,3.34,2.8,6.09a7.55,7.55,0,0,1-3.09,6.31c-2.07,1.58-4.85,2.36-8.36,2.36a25.84,25.84,0,0,1-3.71-.3c-1.36-.21-3.07-.55-5.14-1a14.11,14.11,0,0,1-1.75,1,3.14,3.14,0,0,1-1.23.33,1.82,1.82,0,0,1-1.56-.71A3.37,3.37,0,0,1,341,82.16Z"/><path class="cls-2" d="M400.22,59v-.11a1.72,1.72,0,0,1,.56-1.42A2.7,2.7,0,0,1,402.5,57a1.8,1.8,0,0,1,1.65.7,6.09,6.09,0,0,1,.45,2.89v5.43a2.16,2.16,0,0,1-.55,1.62,2.27,2.27,0,0,1-1.67.55,2.12,2.12,0,0,1-1.35-.46,6.84,6.84,0,0,1-1.39-1.88,10.13,10.13,0,0,0-3.4-3.58,8.72,8.72,0,0,0-4.61-1.21,10.32,10.32,0,0,0-7.4,2.69,9.11,9.11,0,0,0-2.85,6.95,9.68,9.68,0,0,0,2.73,7.11,9.47,9.47,0,0,0,7,2.76,12.68,12.68,0,0,0,3.72-.54,12.2,12.2,0,0,0,3.35-1.62c.37-.23.86-.59,1.49-1.08a5.54,5.54,0,0,1,3-1.55,2,2,0,0,1,2,2c0,1.54-1.45,3.12-4.37,4.72A18.86,18.86,0,0,1,391.08,85a14.6,14.6,0,0,1-10.56-4.06,14.33,14.33,0,0,1,0-20.29A14.55,14.55,0,0,1,391,56.57a17.16,17.16,0,0,1,4.46.6A25.76,25.76,0,0,1,400.22,59Z"/><path class="cls-2" d="M418.14,80.14V50.23h-.55a5.44,5.44,0,0,1-2.73-.47,1.76,1.76,0,0,1-.75-1.63,2,2,0,0,1,.6-1.58,2.57,2.57,0,0,1,1.74-.53h4.44a2,2,0,0,1,1.22.33,1,1,0,0,1,.44.87V60.46a15.87,15.87,0,0,1,4.22-2.94,10.45,10.45,0,0,1,4.34-1,9,9,0,0,1,6.94,2.75,10.8,10.8,0,0,1,2.53,7.59V80.14H442a3.54,3.54,0,0,1,2.12.49,1.78,1.78,0,0,1,.64,1.53,2,2,0,0,1-.58,1.58,2.57,2.57,0,0,1-1.76.52h-7.79a2.83,2.83,0,0,1-1.86-.45,2.23,2.23,0,0,1-.48-1.65,1.82,1.82,0,0,1,.6-1.59,4.23,4.23,0,0,1,2.28-.43h1V68a7.7,7.7,0,0,0-1.56-5.21,5.6,5.6,0,0,0-4.5-1.8,7.68,7.68,0,0,0-5.29,2,6.4,6.4,0,0,0-2.27,5V80.14h1a4.43,4.43,0,0,1,2.36.44,1.81,1.81,0,0,1,.61,1.58,2.23,2.23,0,0,1-.48,1.65,2.78,2.78,0,0,1-1.85.45h-7.77a2.45,2.45,0,0,1-1.71-.52,2,2,0,0,1-.57-1.58,1.71,1.71,0,0,1,.69-1.59,5.51,5.51,0,0,1,2.67-.43Z"/><path class="cls-2" d="M457,72.05a8.86,8.86,0,0,0,2.85,6.52,10.39,10.39,0,0,0,7.14,2.3,18.15,18.15,0,0,0,7.45-1.82c2.69-1.22,4.31-1.83,4.88-1.83a2,2,0,0,1,1.46.56,1.8,1.8,0,0,1,.58,1.37,2.29,2.29,0,0,1-.61,1.55,6.37,6.37,0,0,1-2,1.36,29.62,29.62,0,0,1-6,2.18,26.37,26.37,0,0,1-6.18.75q-6.66,0-10.66-3.84a13.44,13.44,0,0,1-4-10.18,13.75,13.75,0,0,1,4.23-10.46,15.46,15.46,0,0,1,11-4,14.54,14.54,0,0,1,10.23,3.74,11.88,11.88,0,0,1,4.06,9.06,2.73,2.73,0,0,1-.69,2.19c-.46.37-1.7.55-3.72.55H457Zm.14-3.82h19a8.46,8.46,0,0,0-2.91-5.6,9,9,0,0,0-6.06-2.12,10.42,10.42,0,0,0-6.54,2.05A9.68,9.68,0,0,0,457.09,68.23Z"/><path class="cls-2" d="M491.78,82.16V77a2.8,2.8,0,0,1,.48-1.84,2,2,0,0,1,1.57-.56c.79,0,1.43.55,1.89,1.64a9.38,9.38,0,0,0,.85,1.49,8.48,8.48,0,0,0,3.62,2.53,14.31,14.31,0,0,0,5.29,1,8.78,8.78,0,0,0,5-1.26,3.84,3.84,0,0,0,1.87-3.3,3.14,3.14,0,0,0-1.51-3,10.84,10.84,0,0,0-5.15-.88h-1.61q-6,0-9.09-2.07a6.78,6.78,0,0,1-3.12-6,6.9,6.9,0,0,1,3.05-6c2-1.42,4.89-2.13,8.57-2.13a17.61,17.61,0,0,1,4.59.63c1.56.42,2.38.63,2.45.63a3.09,3.09,0,0,0,1.23-.57,3.36,3.36,0,0,1,1.78-.57,1.64,1.64,0,0,1,1.48.73,4,4,0,0,1,.48,2.19V63a4,4,0,0,1-.47,2.23,1.66,1.66,0,0,1-1.49.69c-.58,0-1.3-.5-2.16-1.49a19.59,19.59,0,0,0-1.49-1.55,9.57,9.57,0,0,0-3.3-2.06,12.18,12.18,0,0,0-4.12-.63A7.44,7.44,0,0,0,498,61.43a3.67,3.67,0,0,0-1.68,3.09,2.69,2.69,0,0,0,1.72,2.62q1.72.8,7.42.91c4,.1,7,.8,8.88,2.12a6.93,6.93,0,0,1,2.81,6.09,7.56,7.56,0,0,1-3.1,6.31c-2.07,1.58-4.85,2.36-8.36,2.36a25.84,25.84,0,0,1-3.71-.3c-1.36-.21-3.07-.55-5.14-1a14.11,14.11,0,0,1-1.75,1,3.14,3.14,0,0,1-1.23.33,1.82,1.82,0,0,1-1.56-.71A3.37,3.37,0,0,1,491.78,82.16Z"/><path class="cls-2" d="M424.56,243.73a17.83,17.83,0,0,0,5,.72c3.76,0,7.44-1.18,7.44-5.57,0-6.11-8-4.26-8-7,0-1.48,1.89-1.58,3-1.58a8.94,8.94,0,0,1,3.75.78l.3-3.49a14.26,14.26,0,0,0-4.37-.63c-3.39,0-7.36,1.11-7.36,5.18,0,6.16,8,4.17,8,7.32,0,1.36-1.35,1.65-2.79,1.65a9.94,9.94,0,0,1-4.65-1.11l-.38,3.73Zm-13.75-13.28H412c1.72,0,3.3.29,3.3,1.86,0,1.92-1.85,2-3.3,2h-1.19v-3.83Zm-4.5,13.71h4.5v-6.68h.95c1.67,0,2.25.72,3.18,3.63l1,3h4.7l-1.65-4.6c-.84-2.06-.94-3.34-2.39-3.73v-.05a4,4,0,0,0,3.24-4.27c0-2.9-2.44-4.26-5.45-4.26h-8v16.91Zm-17.72,0h12.19V241H393.1v-3.83h7v-3.2h-7v-3.49h7.41v-3.2H388.59v16.91Zm-15.22,0h5.57l5.77-16.91h-4.63l-3.78,13.28h0l-3.76-13.28h-4.8l5.67,16.91Zm-20.5-8.45c0-2.94,1.09-5.41,3.83-5.41s3.83,2.47,3.83,5.41c0,2.79-1.09,5.4-3.83,5.4s-3.83-2.61-3.83-5.4Zm-4.66,0c0,5.38,3,8.74,8.49,8.74s8.48-3.36,8.48-8.74S362.27,227,356.7,227s-8.49,3.32-8.49,8.75Zm-20.33,8.45H332l-.14-11.55h.05l5.9,11.55h5.6V227.25h-4.12l.07,11.49h0l-5.72-11.49h-5.74v16.91Zm-21.76,0h4.14l-.15-11.55h.05l5.91,11.55h5.6V227.25h-4.12l.07,11.49h-.05l-5.71-11.49h-5.74v16.91Zm-11-6.8H290.9l2.18-6.62h.05l2,6.62Zm-11.2,6.8h4.58l1.33-3.61h6.35l1.26,3.61h5l-6.52-16.91h-5.53l-6.42,16.91Zm-18.34,0h4.5v-7.24h5.34v7.24h4.5V227.25h-4.5v6.47H270.1v-6.47h-4.5v16.91Zm-27.7,0h12.18V241H242.4v-3.83h7v-3.2h-7v-3.49h7.42v-3.2H237.9v16.91Zm-20.29,0h4.51v-7.24h5.33v7.24H232V227.25h-4.51v6.47h-5.33v-6.47h-4.51v16.91Zm-4.82-3.92a12,12,0,0,1-4.22.87c-3.3,0-5.65-2-5.65-5.33a5.15,5.15,0,0,1,5.28-5.48,8.89,8.89,0,0,1,4.42,1.19l.36-3.66a17.81,17.81,0,0,0-5-.87c-5.57,0-9.69,2.93-9.69,8.82,0,6.4,5.21,8.67,9.72,8.67a18.94,18.94,0,0,0,5-.67l-.21-3.54Zm-27.12-9.79h1.18c1.73,0,3.3.29,3.3,1.86,0,1.92-1.84,2-3.3,2h-1.18v-3.83Zm-4.51,13.71h4.51v-6.68h.94c1.68,0,2.26.72,3.18,3.63l1,3h4.7l-1.65-4.6c-.85-2.06-.94-3.34-2.4-3.73v-.05a4,4,0,0,0,3.25-4.27c0-2.9-2.45-4.26-5.45-4.26h-8.05v16.91Zm-10.49,0h4.5V227.25h-4.5v16.91Zm-19.78,0h4.51v-7.68h0l5.26,7.68h5.75l-6.74-9,6.25-7.88h-5.43l-5.09,6.91h0v-6.91h-4.51v16.91Zm-17.57-.43a17.85,17.85,0,0,0,5,.72c3.76,0,7.44-1.18,7.44-5.57,0-6.11-8-4.26-8-7,0-1.48,1.89-1.58,3-1.58a9,9,0,0,1,3.76.78l.29-3.49a14.24,14.24,0,0,0-4.36-.63c-3.4,0-7.37,1.11-7.37,5.18,0,6.16,8,4.17,8,7.32,0,1.36-1.36,1.65-2.79,1.65a9.87,9.87,0,0,1-4.65-1.11l-.39,3.73Zm-17,.43h12.18V241h-7.68v-3.83h7v-3.2h-7v-3.49h7.42v-3.2H116.31v16.91ZM100,230.59h1.74c3.3,0,5.27,1.75,5.27,5.12s-1.9,5.11-5.27,5.11H100V230.59Zm-4.51,13.57h6.16c5.77,0,10-2.2,10-8.53,0-6.54-4.12-8.38-10-8.38H95.51v16.91Zm-21.57,0h4.15l-.15-11.55h0l5.91,11.55h5.6V227.25H85.37l.08,11.49h0l-5.72-11.49H73.94v16.91Zm-10.69-6.8H59l2.18-6.62h.05l2,6.62Zm-11.19,6.8h4.58L58,240.55h6.35l1.26,3.61h4.94L64,227.25H58.48l-6.42,16.91Zm-14.32,0H49.22v-3.34h-7V227.25h-4.5v16.91Z"/><path class="cls-3" d="M423.93,218.11h12.18v-3.2h-7.68v-3.83h7v-3.19h-7v-3.5h7.42V201.2H423.93v16.91Zm-20.05,0h4.51v-7.25h5.33v7.25h4.51V201.2h-4.51v6.47h-5.33V201.2h-4.51v16.91Zm-5.06-3.92a12,12,0,0,1-4.22.87c-3.3,0-5.65-2-5.65-5.33a5.15,5.15,0,0,1,5.28-5.48,8.89,8.89,0,0,1,4.42,1.19l.36-3.66a17.46,17.46,0,0,0-5-.87c-5.57,0-9.69,2.93-9.69,8.82,0,6.4,5.21,8.67,9.72,8.67a18.46,18.46,0,0,0,5-.68l-.21-3.53Zm-31.05,3.48a17.56,17.56,0,0,0,5,.73c3.76,0,7.44-1.19,7.44-5.57,0-6.11-8-4.27-8-7,0-1.48,1.9-1.57,3-1.57A9.09,9.09,0,0,1,379,205l.29-3.48a14.24,14.24,0,0,0-4.36-.63c-3.4,0-7.37,1.11-7.37,5.18,0,6.16,8,4.17,8,7.32,0,1.36-1.36,1.65-2.79,1.65a9.75,9.75,0,0,1-4.65-1.12l-.39,3.73Zm-10.42.44h4.51V201.2h-4.51v16.91Zm-14.91-13.72h1.19c1.72,0,3.3.29,3.3,1.87,0,1.92-1.84,2-3.3,2h-1.19v-3.84Zm-4.5,13.72h4.5v-6.69h.95c1.67,0,2.26.73,3.18,3.64l1,3.05h4.69l-1.64-4.6c-.85-2.06-.95-3.35-2.4-3.73v-.05a4,4,0,0,0,3.25-4.27c0-2.91-2.45-4.26-5.45-4.26h-8.05v16.91Zm-17.84,0h12.19v-3.2h-7.68v-3.83h7v-3.19h-7v-3.5H332V201.2H320.1v16.91Zm-20,0h4.5v-7.25h5.34v7.25h4.5V201.2h-4.5v6.47h-5.34V201.2h-4.5v16.91Zm-13.23,0h4.5V204.54h4.17V201.2H282.66v3.34h4.17v13.57Zm-8.25-16.91h-4.5v9.74c0,2.23-.61,4.12-2.91,4.12s-2.91-1.89-2.91-4.12V201.2h-4.51v10.49c0,4.63,3,6.71,7.42,6.71s7.41-2.08,7.41-6.71V201.2Zm-29.39,16.91h11.48v-3.34h-7V201.2h-4.5v16.91Z"/><polygon class="cls-2" points="237.14 212.34 243.71 212.34 243.71 209.15 237.14 209.15 237.14 212.34 237.14 212.34 237.14 212.34"/><path class="cls-3" d="M217.56,218.11h4.51v-7.25h5.33v7.25h4.51V201.2H227.4v6.47h-5.33V201.2h-4.51v16.91Zm-5.07-3.92a11.92,11.92,0,0,1-4.21.87c-3.3,0-5.65-2-5.65-5.33a5.15,5.15,0,0,1,5.28-5.48,8.89,8.89,0,0,1,4.42,1.19l.36-3.66a17.46,17.46,0,0,0-5-.87c-5.57,0-9.69,2.93-9.69,8.82,0,6.4,5.21,8.67,9.72,8.67a18.46,18.46,0,0,0,5-.68l-.22-3.53Zm-31,3.48a17.51,17.51,0,0,0,5,.73c3.76,0,7.44-1.19,7.44-5.57,0-6.11-8-4.27-8-7,0-1.48,1.89-1.57,3-1.57a9.09,9.09,0,0,1,3.75.77l.29-3.48a14.24,14.24,0,0,0-4.36-.63c-3.4,0-7.37,1.11-7.37,5.18,0,6.16,8,4.17,8,7.32,0,1.36-1.36,1.65-2.79,1.65a9.78,9.78,0,0,1-4.65-1.12l-.39,3.73Zm-10.42.44h4.51V201.2H171v16.91Zm-15.87,0h11.48v-3.34h-7V201.2h-4.5v16.91Zm-17.6,0h12.19v-3.2h-7.68v-3.83h7v-3.19h-7v-3.5h7.41V201.2H137.56v16.91Zm-6.13-9.88h-7v3.19h2.65v3.35a4,4,0,0,1-1.6.29c-3.3,0-5.65-2-5.65-5.33,0-3.95,3-5.48,6.67-5.48a8.49,8.49,0,0,1,4.11,1.09l.37-3.68a16.29,16.29,0,0,0-5.11-.75c-6.21,0-10.69,2.44-10.69,8.82s5.21,8.67,9.72,8.67a25.2,25.2,0,0,0,6.54-.77v-9.4Zm-37.08,9.88h4.14l-.14-11.56h0l5.91,11.56h5.6V201.2h-4.12l.07,11.48h0l-5.71-11.48H94.35v16.91ZM83,211.3H78.72l2.18-6.62h0l2,6.62Zm-11.2,6.81h4.58l1.33-3.61H84l1.26,3.61h5L83.71,201.2H78.18l-6.42,16.91Zm-12.48,0h5.57l5.77-16.91H66l-3.78,13.28h-.05L58.41,201.2h-4.8l5.67,16.91Zm-21.66,0H49.8v-3.2H42.12v-3.83h7v-3.19h-7v-3.5h7.42V201.2H37.62v16.91Z"/><polygon class="cls-4" points="490.51 207.82 480.87 207.82 480.87 217.46 471.24 217.46 471.24 226.48 480.87 226.48 480.87 236.42 490.51 236.42 490.51 226.48 500.14 226.48 500.14 217.46 490.51 217.46 490.51 207.82 490.51 207.82"/><polygon class="cls-3" points="500.14 230.33 500.14 226.48 490.51 226.48 490.51 236.42 494.36 236.42 494.36 244.13 507.85 244.13 507.85 230.33 500.14 230.33 500.14 230.33"/><polygon class="cls-3" points="471.24 213.6 471.24 217.46 480.87 217.46 480.87 207.82 477.02 207.82 477.02 200.11 463.53 200.11 463.53 213.6 471.24 213.6 471.24 213.6"/><polygon class="cls-3" points="471.24 226.48 471.24 217.46 463.53 217.46 463.53 213.6 453.89 213.6 453.89 230.33 463.53 230.33 463.53 226.48 471.24 226.48 471.24 226.48"/><polygon class="cls-3" points="507.85 213.6 507.85 217.46 500.14 217.46 500.14 226.48 507.85 226.48 507.85 230.33 517.49 230.33 517.49 213.6 507.85 213.6 507.85 213.6"/><polygon class="cls-3" points="494.36 207.82 490.51 207.82 490.51 217.46 500.14 217.46 500.14 213.6 507.85 213.6 507.85 200.12 494.36 200.12 494.36 207.82 494.36 207.82"/><polygon class="cls-3" points="477.02 236.42 480.87 236.42 480.87 226.48 471.24 226.48 471.24 230.33 463.53 230.33 463.53 244.13 477.02 244.13 477.02 236.42 477.02 236.42"/><polygon class="cls-3" points="480.87 207.82 490.51 207.82 490.51 200.12 494.36 200.12 494.36 190.48 477.02 190.48 477.02 200.12 480.87 200.12 480.87 207.82 480.87 207.82"/><polygon class="cls-3" points="490.51 236.42 480.87 236.42 480.87 244.13 477.02 244.13 477.02 253.77 494.36 253.77 494.36 244.13 490.51 244.13 490.51 236.42 490.51 236.42"/><polygon class="cls-2" points="471.24 213.6 463.53 213.6 463.53 217.46 471.24 217.46 471.24 213.6 471.24 213.6"/><polygon class="cls-2" points="500.14 217.46 507.85 217.46 507.85 213.6 500.14 213.6 500.14 217.46 500.14 217.46"/><polygon class="cls-2" points="471.24 226.48 463.53 226.48 463.53 230.33 471.24 230.33 471.24 226.48 471.24 226.48"/><polygon class="cls-2" points="500.14 230.33 507.85 230.33 507.85 226.48 500.14 226.48 500.14 230.33 500.14 230.33"/><polygon class="cls-2" points="477.02 207.82 480.87 207.82 480.87 200.12 477.02 200.12 477.02 207.82 477.02 207.82"/><polygon class="cls-2" points="490.51 207.82 494.36 207.82 494.36 200.12 490.51 200.12 490.51 207.82 490.51 207.82"/><polygon class="cls-2" points="480.87 236.42 477.02 236.42 477.02 244.13 480.87 244.13 480.87 236.42 480.87 236.42"/><polygon class="cls-2" points="494.36 236.42 490.51 236.42 490.51 244.13 494.36 244.13 494.36 236.42 494.36 236.42"/></svg>