<svg xmlns="http://www.w3.org/2000/svg" width="80.94" height="88.669" viewBox="0 0 80.94 88.669">
  <g id="Gruppe_410" data-name="Gruppe 410" transform="translate(-37.831 -33.964)">
    <g id="Gruppe_408" data-name="Gruppe 408" transform="translate(67.396 54.184)">
      <g id="Gruppe_367" data-name="Gruppe 367" transform="translate(7.949 9.616)">
        <g id="Gruppe_366" data-name="Gruppe 366" transform="translate(10.393 0.695)">
          <path id="Pfad_374" data-name="Pfad 374" d="M191.613,151.71a2.187,2.187,0,0,0-.941.076,2.277,2.277,0,0,1-.719-.046.89.89,0,0,0-.557.083.443.443,0,0,1-.213.052.181.181,0,0,1-.12-.115.19.19,0,0,1,.044-.161.972.972,0,0,1,.852-.264,2.876,2.876,0,0,0,.406.07,2.2,2.2,0,0,0,.431-.044c.089-.016.174-.068.262-.077a2.575,2.575,0,0,1,.411-.008c.138.006.275.023.412.04.161.02.267.109.258.209-.012.129-.13.208-.3.2-.075,0-.151-.009-.226-.014" transform="translate(-180.908 -138.317)" fill="#122659"/>
          <path id="Pfad_375" data-name="Pfad 375" d="M192.424,153.306a.3.3,0,0,1-.225.3,5.249,5.249,0,0,1-.693.165,6.173,6.173,0,0,1-.736.055.436.436,0,0,1-.208-.072c-.145-.082-.285-.173-.426-.262a.144.144,0,0,1-.066-.2c.044-.09.1-.179.219-.139a.532.532,0,0,1,.206.115.743.743,0,0,0,.684.158,5.349,5.349,0,0,0,.658-.149,1.493,1.493,0,0,0,.277-.146c.182-.1.3-.028.31.178" transform="translate(-181.532 -139.46)" fill="#122659"/>
          <path id="Pfad_376" data-name="Pfad 376" d="M175.765,116.414c-.023.048-.028.072-.042.084a1.812,1.812,0,0,1-.3.251,4.378,4.378,0,0,1-.484.2c-.42.166-.847.315-1.258.5-.337.153-.657.346-.979.53a1.073,1.073,0,0,0-.2.184c-.207.2-.413.41-.62.615-.082.083-.148.083-.236-.006a.137.137,0,0,1,0-.217,2.991,2.991,0,0,0,.3-.37,1.988,1.988,0,0,1,.78-.6c.249-.136.5-.275.759-.389.428-.189.865-.36,1.3-.539.239-.1.478-.2.717-.3.038-.016.084-.042.119-.033a.6.6,0,0,1,.141.084" transform="translate(-169.918 -116.328)" fill="#122659"/>
          <g id="Gruppe_365" data-name="Gruppe 365" transform="translate(5.274 6.495)">
            <path id="Pfad_377" data-name="Pfad 377" d="M183.9,137.438a2.1,2.1,0,0,0,.131.242.31.31,0,0,0,.121.093.618.618,0,0,0,.15-.2c.01-.028-.062-.116-.108-.128a1.376,1.376,0,0,0-.294-.006m1.069.4c.132.112.133.171.024.287a.75.75,0,0,1-.532.221,4.953,4.953,0,0,1-.564-.021c-.077,0-.113-.04-.051-.112s.048-.142-.019-.217a3.533,3.533,0,0,1-.281-.364c-.044-.064-.08-.093-.152-.047-.035.023-.076.035-.109.059-.13.1-.128.131.017.2a.249.249,0,0,1,.132.251c0,.094-.077.12-.154.09a1.637,1.637,0,0,1-.242-.13c-.113-.07-.22-.152-.337-.216-.15-.082-.173-.2-.047-.321a.467.467,0,0,1,.092-.064,7.157,7.157,0,0,1,.643-.335,1.24,1.24,0,0,1,.52-.12c.391.021.78.087,1.169.138a.929.929,0,0,1,.139.054c.114.036.228.065.34.1a.279.279,0,0,1,.148.081.165.165,0,0,1-.029.218.393.393,0,0,1-.439.087c-.1-.052-.158-.05-.2.062a.42.42,0,0,1-.07.1" transform="translate(-182.102 -135.834)" fill="#122659"/>
            <path id="Pfad_378" data-name="Pfad 378" d="M184.471,134.675c-.2.013-.4.033-.6.038-.245.006-.492.007-.738,0-.267-.01-.533-.044-.8-.046a1.4,1.4,0,0,0-.654.225.391.391,0,0,1-.212.06.239.239,0,0,1-.166-.12.2.2,0,0,1,.067-.176c.181-.119.374-.219.562-.327.007,0,.017,0,.023-.01a1.469,1.469,0,0,1,.819-.317c.033-.005.066-.016.1-.018.436-.042.873-.086,1.31-.12a4.384,4.384,0,0,1,.527,0,.294.294,0,0,1,.3.31.986.986,0,0,1-.072.352.271.271,0,0,1-.261.165h-.2v-.01" transform="translate(-181.297 -133.852)" fill="#122659"/>
          </g>
          <path id="Pfad_379" data-name="Pfad 379" d="M167.512,144.71a4.36,4.36,0,0,1-.442.066" transform="translate(-167.07 -134.19)" fill="#122659"/>
        </g>
        <path id="Pfad_380" data-name="Pfad 380" d="M174.762,144.165c-.026-.265-.067-.531-.106-.789-.014-.1-.029-.191-.043-.286-.012-.079-.024-.157-.037-.235s-.029-.181-.042-.272q-.023-.162-.044-.326c-.025-.186-.05-.378-.08-.566-.019-.119-.044-.238-.067-.354s-.05-.247-.069-.37l-.018-.124a7.976,7.976,0,0,0-.25-1.24,9.063,9.063,0,0,1-.254-1.093c-.064-.355-.14-.713-.215-1.059l-.039-.183a.824.824,0,0,0-.085-.211c-.025-.047-.053-.09-.08-.133a1.036,1.036,0,0,1-.109-.2,1.959,1.959,0,0,0-.366-.643,6.122,6.122,0,0,0-.883-.872,8.452,8.452,0,0,0-.725-.511,2.492,2.492,0,0,0-.4-.189l-.113-.045c-.087-.037-.092-.045-.076-.118a.7.7,0,0,0-.05-.415,1.772,1.772,0,0,0-.565-.661,6.837,6.837,0,0,0-.609-.418c-.086-.054-.174-.111-.259-.167a6.121,6.121,0,0,0-1.143-.55c-.106-.042-.215-.091-.324-.145l-.168-.082a5.48,5.48,0,0,1-.509-.268,2.7,2.7,0,0,1-.327-.255c-.049-.042-.1-.086-.152-.128-.093-.076-.189-.152-.282-.225a8.489,8.489,0,0,1-.8-.689,2.037,2.037,0,0,0-.4-.337c-.456-.269-.945-.546-1.585-.9a1.444,1.444,0,0,0-.388-.129c-.092-.021-.112-.035-.129-.088a2.27,2.27,0,0,0-.446-.814,1.255,1.255,0,0,0-.725-.5.371.371,0,0,1-.157-.055.476.476,0,0,1,.006-.067c.024-.116.045-.232.065-.349a11.856,11.856,0,0,1,.522-1.938.174.174,0,0,1,.11-.1c.146-.035.3-.045.443-.084a4.768,4.768,0,0,0,.727-.234,1.433,1.433,0,0,0,.635-.572c.089-.148.154-.284.039-.432a.668.668,0,0,1-.148-.494.919.919,0,0,0-.18-.5,1.664,1.664,0,0,1-.292-.937.491.491,0,0,1,.175-.427c.105-.082.254-.141.279-.305,0-.012.057-.029.083-.021.057.014.108.048.164.061a4.491,4.491,0,0,0,.611.122.742.742,0,0,0,.62-.318,1,1,0,0,0,.2-.34,1.234,1.234,0,0,0-.2-1.048,3.6,3.6,0,0,0-.654-.774,10.144,10.144,0,0,0-1.468-1.175c-.1-.064-.186-.156-.287-.224-.2-.136-.415-.254-.61-.4a10.765,10.765,0,0,0-1.431-.88c-.261-.133-.522-.266-.787-.389-.212-.1-.426-.193-.645-.274-.426-.158-.856-.307-1.285-.458-.307-.108-.61-.23-.924-.31a.567.567,0,0,0-.606.126c-.07.078-.12.023-.151-.045a.279.279,0,0,0-.238-.178c-.158-.017-.315-.046-.473-.064a4.308,4.308,0,0,0-.633-.053,2.556,2.556,0,0,0-.487.114c-.238.059-.482.1-.715.178a8.752,8.752,0,0,0-.848.312,5.6,5.6,0,0,1-1,.3c-.522.118-1.049.212-1.567.345a11.278,11.278,0,0,0-1.159.374,6.837,6.837,0,0,0-.8.378c-.188.1-.35.249-.539.343a3.918,3.918,0,0,0-.881.57,2.635,2.635,0,0,0-.543.655.38.38,0,0,0-.036.227c.033.2.107.388.12.585a1.225,1.225,0,0,0,.322.666,2.017,2.017,0,0,0,.889.71,3.534,3.534,0,0,0,.86.335.1.1,0,0,1,.068.047,1.676,1.676,0,0,1,.107.279c.036.148.047.3.088.449.035.13.022.185-.11.228s-.279.085-.421.123a.178.178,0,0,1-.108,0,.2.2,0,0,0-.249.059.206.206,0,0,0-.006.258c.031.049.068.095.1.141.051.068.1.135.174.229a2.149,2.149,0,0,0-.261.029.406.406,0,0,0-.174.076c-.142.127-.077.326.07.505a2.023,2.023,0,0,0,.367.282l-.226.137c-.111.067-.223.157-.207.289s.139.172.262.2.134.086.1.219a2.719,2.719,0,0,0-.057.355.612.612,0,0,1-.017.121c-.066.184-.136.368-.208.55-.064.165-.023.265.146.314a1.824,1.824,0,0,0,.258.04.251.251,0,0,0,.195.288,3.615,3.615,0,0,0,.416.09.479.479,0,0,0,.205-.022c.1-.03.2-.067.3-.109l0,0c-.013.02-.028.04-.042.059a1.07,1.07,0,0,0-.09.138.491.491,0,0,0-.04.124.555.555,0,0,1-.014.056c-.007.021-.013.042-.02.064a1.217,1.217,0,0,1-.05.142.869.869,0,0,1-.094-.03.761.761,0,0,0-.912.378,3.988,3.988,0,0,0-.377,1.411.428.428,0,0,1-.027.092c-.006.016-.012.033-.017.048s-.016.041-.024.062a.673.673,0,0,0-.051.167.5.5,0,0,0,.007.14.45.45,0,0,1,.007.077c0,.022,0,.045,0,.069,0,.11-.01.122-.036.129a.584.584,0,0,0-.336.275c-.05.077-.1.156-.147.233-.1.159-.2.323-.313.474-.248.332-.507.648-.8,1-.057.07-.122.135-.189.2a2.749,2.749,0,0,0-.246.272,7.985,7.985,0,0,1-1.187,1.2l-.091.08c-.11.1-.225.191-.336.283-.137.113-.278.229-.412.35-.226.2-.454.412-.674.614s-.446.409-.671.611a12.878,12.878,0,0,0-1.135,1.111c-.1.11-.191.224-.283.334-.137.165-.279.334-.427.493a2.994,2.994,0,0,0-.547.767,2.094,2.094,0,0,1-.118.209c-.033.054-.067.11-.1.168-.047.088-.1.178-.146.264a5.329,5.329,0,0,0-.357.715,7.041,7.041,0,0,0-.269,1l-.027.125a4.309,4.309,0,0,0-.1.763c-.011.3,0,.608.009.9,0,.053,0,.1.005.158s0,.1,0,.143c.008.262.016.533.045.8s.074.553.116.821q.028.175.054.351c0,.032.01.065.014.1.014.095.028.193.046.29l.026.136c.044.235.091.478.146.716.039.166.09.33.139.489l.044.142.078.258c.083.275.169.56.263.836.048.141.105.28.16.414s.117.284.165.427l.053.165a5.768,5.768,0,0,0,.373.952c.084.157.158.325.229.488.029.066.058.133.088.2l.128.28c.117.255.238.518.35.779.06.139.115.285.169.425.062.163.127.332.2.5s.146.313.221.463.159.318.229.48c.2.466.374.9.53,1.319.12.325.226.662.328.989l.047.149c.047.15.09.3.131.453.027.1.054.194.082.291a.694.694,0,0,0,.056.126l.019.036.052.107c.023.047.046.093.068.14.032.068.063.136.094.2.058.128.118.26.182.387a2.526,2.526,0,0,0,.524.727c.076.071.15.15.221.227l.087.093.174.184c.125.133.255.271.388.4.1.1.211.2.317.29.062.055.126.111.187.167l.173.158c.17.154.345.313.509.477a8.332,8.332,0,0,0,1.105.895c.27.192.552.374.825.55l.255.165.664.427.593.381.128.081c.137.086.393.248.416.264l.087.062c.2.141.4.287.6.435a.433.433,0,0,0,.258.1.408.408,0,0,0,.318-.178,2.074,2.074,0,0,0,.336-1.412c0-.211-.026-.424-.048-.629-.012-.107-.023-.218-.032-.326q-.028-.347-.054-.694c-.02-.265-.041-.538-.063-.807-.011-.139-.025-.28-.039-.417-.016-.154-.032-.314-.043-.47-.011-.137-.017-.278-.024-.414-.01-.218-.021-.444-.048-.666-.047-.377-.113-.757-.178-1.125-.014-.082-.029-.163-.043-.245-.046-.271-.1-.536-.154-.788a2.766,2.766,0,0,0-.081-.275l-.018-.056a.2.2,0,0,1-.018-.047c.029,0,.056,0,.083.006a1.7,1.7,0,0,0,.41.052c.356-.047.711-.111,1.061-.191.415-.1.827-.208,1.236-.327.264-.077.522-.182.782-.273.173-.06.346-.126.522-.178a1.534,1.534,0,0,0,.922-.76.815.815,0,0,1,.381-.392,5.2,5.2,0,0,0,.7-.43,2.168,2.168,0,0,0,.259-.219c.072-.066.115-.045.152.034.055.118.11.236.168.352.074.148.166.289.225.443.11.287.2.581.3.873.083.249.169.5.242.752.158.555.309,1.112.46,1.669.077.279.153.558.219.839.061.265.106.535.162.8.072.339.152.676.219,1.016.057.291.1.585.146.878.034.238.064.477.084.716.031.358.049.717.079,1.075.019.22.049.44.077.66a.194.194,0,0,0,.2.171.483.483,0,0,0,.552-.532c0-.037-.005-.075-.009-.113-.04-.432-.077-.864-.119-1.3-.028-.291-.049-.584-.094-.873-.063-.4-.144-.807-.219-1.21-.047-.255-.092-.511-.149-.764-.1-.437-.212-.87-.3-1.308a3.486,3.486,0,0,1-.212-.783,2.163,2.163,0,0,0-.1-.476c-.066-.3-.128-.591-.2-.885-.037-.155-.09-.3-.13-.459-.129-.5-.252-1-.385-1.493-.1-.359-.2-.716-.3-1.074-.047-.165-.049-.165.125-.192.029,0,.057-.016.086-.017a.947.947,0,0,1,.464.02.656.656,0,0,0,.605,0,.652.652,0,0,1,.307-.039c.1,0,.135.063.134.16,0,.231-.009.462,0,.692a4.587,4.587,0,0,0,.062.56c.037.222.1.439.133.662.029.206.023.417.04.626.036.459.089.917.11,1.376.02.417.01.835.01,1.253,0,.4,0,.8-.007,1.2-.005.36-.016.719-.025,1.079,0,.092-.018.183-.014.275,0,.113.1.158.189.168.046.005.127-.064.148-.116a2.187,2.187,0,0,0,.128-.458c.062-.43.126-.862.156-1.3.042-.6.063-1.2.073-1.8.012-.725,0-1.449,0-2.173,0-.075.014-.15.016-.225,0-.238-.133-.462-.073-.707a.068.068,0,0,0-.008-.036,3.787,3.787,0,0,1-.206-.9q-.024-.176-.047-.351l.034-.02.348.3c-.027.094-.088.188-.064.246a1.4,1.4,0,0,0,.415.632.872.872,0,0,1,.25.223,4.083,4.083,0,0,0,.446.662,1.364,1.364,0,0,0,.523.355c.411.175.837.318,1.257.475.162.061.162.066.1.235-.145.387-.292.773-.431,1.162-.068.188-.111.386-.181.575-.138.368-.292.73-.429,1.1-.106.286-.182.583-.294.866-.137.344-.3.679-.451,1.018-.194.426-.391.85-.589,1.276a3.609,3.609,0,0,1-.161.327,1.044,1.044,0,0,0-.235.894c.049.155.107.245.276.247a1.09,1.09,0,0,1,.237-.007.273.273,0,0,0,.316-.123,3.964,3.964,0,0,0,.52-.872,5.152,5.152,0,0,1,.238-.566c.174-.359.366-.71.536-1.072.118-.253.216-.515.312-.778.053-.143.081-.3.13-.443.075-.222.161-.44.238-.661.027-.079.034-.164.064-.242.106-.282.216-.561.328-.84.14-.348.293-.693.422-1.046.076-.208.275-.359.26-.613v-.006a.231.231,0,0,1,.161-.092h0l.245,0c.258.005.525.011.788.008a.217.217,0,0,1,.049,0,.193.193,0,0,1,0,.039,1.687,1.687,0,0,0,.076.673c.012.048.024.1.036.144l0,.015a1.672,1.672,0,0,0,.157.459,1.127,1.127,0,0,1,.13.484c.007.08.013.162.018.241a4.98,4.98,0,0,0,.073.64,10.353,10.353,0,0,0,.3,1.087,2,2,0,0,0,.15.328c.039.072.075.141.1.211a.385.385,0,0,0,.216.223.3.3,0,0,0,.1.017.347.347,0,0,0,.162-.043,2.159,2.159,0,0,0,.445-.3,4.537,4.537,0,0,0,.355-.367l.116-.128c.069-.074.142-.148.212-.219a3.628,3.628,0,0,0,.489-.566c.27-.41.507-.794.722-1.174a4.1,4.1,0,0,0,.241-.527l.037-.093c.056-.141.11-.284.162-.424.043-.114.087-.232.132-.346.074-.186.154-.374.23-.556l.047-.111c.025-.06.052-.119.079-.179.05-.112.1-.227.145-.345.034-.092.061-.187.087-.278s.055-.191.089-.282.07-.162.112-.246.077-.159.11-.243c.074-.184.145-.371.214-.552.092-.24.186-.488.285-.728.13-.314.272-.63.41-.936q.088-.2.176-.394l.066-.15.065-.149a6.161,6.161,0,0,1,.652-1.061c.119-.168.242-.341.356-.518a2.407,2.407,0,0,0,.344-.994,7.175,7.175,0,0,0,.044-.72c0-.086,0-.173.008-.259,0-.051.005-.1.009-.153A3,3,0,0,0,174.762,144.165Zm-12.937-15.988a1.267,1.267,0,0,1,.549.621c.165.389.311.786.461,1.181.068.18.136.361.186.546.109.4.208.81.307,1.217s.2.8.288,1.207c.073.353.12.711.18,1.066.054.321.11.643.164.965q.072.421.143.841c.077.461.147.924.235,1.384a1.087,1.087,0,0,0,.335.658c.04.036.09.083.136.083a.248.248,0,0,0,.157-.076c.016-.016-.006-.09-.03-.126a1.492,1.492,0,0,1-.243-.728c-.01-.115-.03-.228-.048-.342-.052-.32-.1-.641-.158-.962-.063-.35-.153-.7-.2-1.049-.065-.522-.2-1.03-.269-1.551-.03-.227-.1-.448-.151-.674-.06-.281-.111-.566-.174-.848-.039-.171-.095-.337-.139-.508-.066-.251-.122-.5-.194-.752-.062-.217-.141-.428-.211-.642-.014-.041-.019-.085-.038-.169.189.092.35.158.5.246q.453.27.894.559a7.225,7.225,0,0,1,.669.482,11.1,11.1,0,0,0,.962.762,5.718,5.718,0,0,1,.676.542,3,3,0,0,0,.763.4c.206.1.424.179.633.274a5.488,5.488,0,0,1,.606.3c.3.181.584.385.873.582.089.061.169.136.257.2a.43.43,0,0,1,.082.667c-.236.234-.5.443-.755.657-.135.112-.279.214-.423.312a3.865,3.865,0,0,0-1.5,1.766c-.094.258-.25.5-.329.757a5.857,5.857,0,0,1-.484.946,6.679,6.679,0,0,1-.452.648,6.056,6.056,0,0,0-.39.626c-.161.317-.308.642-.439.972a4.79,4.79,0,0,0-.407,1.276,1.5,1.5,0,0,0,0,.2c0,.1.012.193.005.288-.027.374-.061.747-.088,1.121-.009.145,0,.292-.01.438a.192.192,0,0,1-.08.118c-.089.061-.188.11-.281.165-.11.065-.15.045-.163-.079a4.553,4.553,0,0,0-.057-.5.525.525,0,0,0-.141-.23.157.157,0,0,0-.152.009c-.231.19-.464.382-.68.59a2.076,2.076,0,0,1-.917.466c0-.059,0-.11,0-.161.019-.229.033-.459.064-.687a1.815,1.815,0,0,1,.1-.4,3.521,3.521,0,0,0,.168-1.062c.025-.443.029-.887.023-1.331,0-.33-.038-.66-.056-.99-.008-.132,0-.267-.012-.4a14.077,14.077,0,0,1-.059-1.463c.01-.353-.053-.708-.076-1.063-.021-.334-.024-.668-.051-1-.021-.254-.058-.507-.1-.758-.1-.551-.212-1.1-.306-1.65a20.016,20.016,0,0,0-.467-2.069c-.157-.555-.3-1.113-.451-1.671-.041-.157-.07-.317-.1-.476a.231.231,0,0,1,.02-.122c.128-.317.266-.63.385-.949.064-.171.094-.355.146-.532A.208.208,0,0,1,161.824,128.177Zm5.037,20.2a.414.414,0,0,1-.332.149c-.429.037-.858.069-1.288.106-.315.027-.63.064-.946.088-.1.007-.2-.017-.3-.013-.472.023-.943.051-1.413.076-.113.007-.225.013-.337.023-.195.019-.389.042-.583.063l-.082.006c0-.014-.005-.027-.007-.042.222-.042.443-.1.668-.123.625-.059,1.251-.1,1.876-.154.317-.027.636-.043.948-.1a9.8,9.8,0,0,0,1.132-.277,1,1,0,0,1,.633.062C166.9,148.267,166.909,148.314,166.862,148.379Zm.1.432a.409.409,0,0,1,.083.015.331.331,0,0,1-.362.316,10.571,10.571,0,0,0-1.364.059,6.222,6.222,0,0,1-1.362.017c-.253-.018-.508-.024-.762-.031-.343-.011-.686-.021-1.029-.025-.115,0-.231.017-.347.025l0-.025c.138-.016.278-.038.417-.047.438-.029.876-.061,1.314-.077.355-.013.711,0,1.066-.006a1.8,1.8,0,0,0,.2-.018c.466-.057.93-.122,1.4-.171C166.456,148.818,166.709,148.82,166.96,148.812Zm-5.337-.63c.163-.113.322-.233.494-.334a.611.611,0,0,1,.254-.06,2.522,2.522,0,0,0,.839-.29,2.118,2.118,0,0,1,.334-.094,2.434,2.434,0,0,1-.029.32.143.143,0,0,1-.105.077c-.282.037-.567.054-.847.1a5.439,5.439,0,0,0-.629.169c-.1.031-.2.077-.3.117Zm3.176,0c-.336.042-.673.072-1.01.1-.233.02-.468.022-.7.042-.353.03-.706.068-1.059.1a.359.359,0,0,1-.07-.009,2.208,2.208,0,0,1,.725-.214c.354-.03.71-.044,1.058-.106a3.451,3.451,0,0,1,.807-.051,8.474,8.474,0,0,0,.876-.037c.07,0,.141,0,.212,0,0,.012,0,.024.007.036C165.361,148.093,165.081,148.147,164.8,148.183Zm-.9-.715c.06-.053.089-.095.127-.108.153-.055.309-.1.466-.149a.1.1,0,0,1,.093.033c.011.023,0,.088-.023.095A1.411,1.411,0,0,1,163.9,147.468Zm.008-2.581c0,.236-.093.335-.374.447a3.43,3.43,0,0,0-.4.209c-.2.113-.4.245-.612.342-.271.122-.555.216-.831.326a.5.5,0,0,0-.159.095c-.261.247-.516.5-.777.748a2.239,2.239,0,0,0-.492.678,1.581,1.581,0,0,1,.443-.82c.123-.125.246-.251.371-.374.166-.165.34-.322.5-.491a3.382,3.382,0,0,1,1.273-.848,2.609,2.609,0,0,0,.873-.579.517.517,0,0,1,.112-.065.54.54,0,0,1,.054.121A1.279,1.279,0,0,1,163.91,144.887Zm-1.943-20.008a10.826,10.826,0,0,0-.512,1.745q-.1.529-.2,1.059c-.027.148-.055.3-.07.445a3.546,3.546,0,0,1-.325,1.078,1.794,1.794,0,0,1-.436.525,3.007,3.007,0,0,1-1.114.63.723.723,0,0,1-.294.037c-.24-.025-.479-.068-.719-.1a.21.21,0,0,0-.061,0c-.293.052-.584.117-.878.152a1.88,1.88,0,0,1-1.04-.225,1.089,1.089,0,0,0-.279-.11c-.232-.04-.323-.216-.391-.4-.088-.235-.149-.48-.214-.722-.036-.133-.053-.271-.092-.4-.012-.04-.067-.069-.1-.1-.026.041-.077.086-.073.124.026.237.057.473.1.708.033.187.083.371.128.569a3.682,3.682,0,0,1-1.3-.646,6.326,6.326,0,0,1-.543-.625c-.205-.258-.408-.519-.589-.793a1.76,1.76,0,0,1-.311-.6.6.6,0,0,0-.126-.257,1.383,1.383,0,0,1-.3-1.1c.015-.137.077-.191.218-.185.1,0,.2.014.3.014a.3.3,0,0,0,.14-.031c.093-.053.132-.016.152.072.033.147.06.3.1.441.025.1.061.2.1.337a.828.828,0,0,0,.109-.6c-.04-.2-.1-.4-.155-.605a.232.232,0,0,1,.04-.244.292.292,0,0,0,.031-.329,3.111,3.111,0,0,1-.158-1.1c0-.257.214-.36.4-.481a3.462,3.462,0,0,0,.559-.4,9.446,9.446,0,0,0,.628-.729c.165-.2.321-.4.487-.6a.322.322,0,0,1,.133-.06,4.261,4.261,0,0,1,1.166-.288c.462-.032.919-.1,1.378-.15.344-.038.688-.077,1.033-.1.232-.019.466-.028.7-.024.319.006.638.034.959.021a4.036,4.036,0,0,1,.407,0c.2.01.4.029.6.054.027,0,.055.055.069.09.027.072.04.149.068.221.053.144.113.286.185.466a1.625,1.625,0,0,1-.266-.052,1.979,1.979,0,0,0-1.13-.133c-.318.063-.641.088-.962.137a.249.249,0,0,0-.129.087.716.716,0,0,0-.139.559,6.969,6.969,0,0,0,.1.768,6.173,6.173,0,0,0,.182.781c.147.455.32.9.475,1.355.106.308.208.617.3.929a.571.571,0,0,1-.147.611.442.442,0,0,1-.4.121,1.634,1.634,0,0,0-.8.128.729.729,0,0,1-.573.019.321.321,0,0,1-.157-.176.541.541,0,0,1,.151-.573.285.285,0,0,0,.086-.169.176.176,0,0,0-.069-.145.207.207,0,0,0-.163.012.549.549,0,0,0-.275.328.4.4,0,0,1-.212.224,2.4,2.4,0,0,0-.459.382c-.127.126-.232.274-.354.406-.067.072-.1.14-.024.219s.151.027.2-.03c.142-.152.28-.31.414-.469a.189.189,0,0,1,.322.017.372.372,0,0,1,.03.056.621.621,0,0,0,.632.4,1.613,1.613,0,0,0,.691-.093.873.873,0,0,1,.635-.066.187.187,0,0,0,.087-.007,1.081,1.081,0,0,0,.689-.449.848.848,0,0,1,.083.133c.056.139.1.285.162.421.021.047.086.072.132.107.025-.046.072-.094.07-.139a1.762,1.762,0,0,0-.05-.321c-.022-.1-.053-.2-.084-.3-.012-.035-.025-.083-.052-.1a.339.339,0,0,1-.164-.365,2.151,2.151,0,0,0-.2-.786c-.1-.285-.209-.565-.3-.852s-.165-.562-.245-.844a.54.54,0,0,1,0-.1l.272.1c.035.013.069.043.1.043a.19.19,0,0,0,.133-.037.14.14,0,0,0,0-.133,2.309,2.309,0,0,0-.16-.172c-.028-.035-.069-.107-.057-.122a1.148,1.148,0,0,1,.179-.149c.029.038.061.074.087.115.09.139.18.276.265.417a.147.147,0,0,1,.024.11c-.035.089.014.119.083.132a1.442,1.442,0,0,0,.992-.106c.093-.052.1-.119.007-.178l-.074-.045.166-.24c0-.005.008.006.01.019.035.194.068.39.1.584A1.6,1.6,0,0,1,161.967,124.879Zm-2.454,15.585c0,.247,0,.494,0,.741l-.043.01a4.315,4.315,0,0,1-.1-.574c-.016-.426-.008-.853-.009-1.28,0-.276,0-.553,0-.829a.874.874,0,0,0-.292-.563c-.154-.188-.328-.359-.473-.552a2.529,2.529,0,0,1-.2-.388,7.236,7.236,0,0,0-.386-.746c-.3-.453-.628-.888-.948-1.328a1.034,1.034,0,0,0-.155-.145c-.089-.081-.086-.126.009-.2a.55.55,0,0,1,.406-.1c.3.023.592.045.887.076a2.819,2.819,0,0,1,.393.077,1.612,1.612,0,0,0,.957-.112c.1-.036.132,0,.149.08a4.746,4.746,0,0,1,.063,1.571c-.032.257-.016.519-.034.777-.033.453-.077.906-.112,1.36-.024.3-.037.6-.063.9-.02.233-.062.465-.075.7C159.484,140.113,159.51,140.289,159.513,140.464Zm-9.607-13.874c.047-.155.107-.307.16-.46a.071.071,0,0,1,.011-.023c.149-.161.294-.324.449-.48.051-.052.113-.05.149.033q.131.311.264.622a2.292,2.292,0,0,0,.115.223.335.335,0,0,1,.034.355.151.151,0,0,0-.012.1c.053.223-.09.4-.139.6-.021.09-.122.159-.155.25a1.183,1.183,0,0,0-.066.347,3.134,3.134,0,0,0,.079.894c.039.153.027.317.052.473.029.176.085.348.109.523a6.112,6.112,0,0,0,.345,1.163,3.9,3.9,0,0,0,.3.622c.159.286.323.572.5.845.115.171.273.313.4.479.176.232.452.375.569.66.021.051.088.085.136.123.1.081.206.155.3.244a3.274,3.274,0,0,1,.265.3q.129.159.245.327c.237.344.453.7.714,1.029a4.278,4.278,0,0,1,.432.743.341.341,0,0,1,.026.07.18.18,0,0,1,0,.047l-.025.009-.59-.775c-.02-.026-.036-.056-.059-.08-.168-.183-.342-.361-.5-.549s-.321-.408-.492-.6c-.217-.248-.447-.485-.671-.728-.143-.156-.283-.314-.428-.468-.235-.251-.477-.495-.706-.751a3.835,3.835,0,0,1-.682-1.016c-.059-.133-.145-.253-.209-.384-.141-.288-.292-.574-.412-.872-.177-.438-.347-.881-.488-1.332a3.886,3.886,0,0,1-.113-.731c-.028-.244-.046-.49-.058-.737A3.191,3.191,0,0,1,149.905,126.59Zm-.038-.922Zm2.044.8c-.023.048-.055.111-.1.126a.184.184,0,0,1-.165-.027c-.141-.185-.27-.379-.4-.573a.117.117,0,0,1,.006-.1c.01-.015.059-.01.089-.008a.922.922,0,0,0,.352.009c.14-.041.182-.021.189.139.005.108.021.215.033.324h-.005A.286.286,0,0,1,151.912,126.471Zm-.614,1.165c.033-.188.089-.373.138-.559a.526.526,0,0,1,.05-.1c.023.055.036.088.051.12.052.1.1.21.157.313s.115.209.168.315c.145.286.292.572.431.861.087.181.15.373.239.552.141.284.282.569.447.839.213.349.449.684.675,1.025.141.212.278.428.427.634.107.148.229.286.347.424.045.053.064.1-.017.12-.536.133-1.07.271-1.608.391a.335.335,0,0,1-.382-.338c-.009-.234,0-.469-.028-.7a3.52,3.52,0,0,0-.137-.735c-.12-.354-.285-.693-.431-1.039-.1-.238-.2-.477-.3-.715-.072-.173-.146-.345-.214-.519A1.6,1.6,0,0,1,151.3,127.636Zm2.079,5.281c-.155.275-.25.294-.431.074Zm-1.406-1.322a5.951,5.951,0,0,1-.736-2.2A5.02,5.02,0,0,1,151.971,131.594Zm1.9,2.177a.355.355,0,0,1-.312-.125c-.1-.106-.107-.2,0-.3.2-.181.4-.346.6-.522a1.012,1.012,0,0,1,.47-.249.236.236,0,0,1,.3.12,2.057,2.057,0,0,0,.642.68,3.315,3.315,0,0,1,.328.337c.055.056.119.1.179.154s.092.082.138.123c0,.013-.006.027-.009.04a.933.933,0,0,1-.129-.009c-.154-.034-.307-.077-.463-.1-.138-.023-.279-.026-.419-.04-.352-.038-.7-.081-1.057-.116A1.242,1.242,0,0,0,153.872,133.771Zm2.09-.571a4.642,4.642,0,0,1-.962-1.06,4.412,4.412,0,0,0-.391-.489q-.324-.424-.637-.856c-.169-.234-.346-.462-.495-.708-.174-.286-.319-.587-.48-.881a2.511,2.511,0,0,1-.162-.267c-.234-.6-.549-1.164-.839-1.738l-.005-.011c-.1-.189-.1-.21.123-.255.022,0,.07.033.081.062a4.36,4.36,0,0,0,.173.47c.14.262.3.511.46.765.05.082.1.161.163.238.214.283.417.576.651.844a3.714,3.714,0,0,0,.456.37,4.676,4.676,0,0,0,1.6.671c.13.044.252.111.378.168a2.106,2.106,0,0,0,.934.307c.366-.016.731-.059,1.1-.086a1.206,1.206,0,0,1,.2.012l.562.049a.43.43,0,0,1,.077.022c0,.016.008.027,0,.033-.135.215-.267.431-.409.641-.116.173-.241.34-.37.505-.2.264-.408.531-.626.785-.156.183-.337.347-.5.522-.106.113-.2.233-.3.351s-.107.11-.214.015C156.336,133.52,156.139,133.37,155.961,133.2Zm3.6-2.411a1.317,1.317,0,0,1,.411-.228c.044-.023.087-.047.131-.069s.065-.027.1-.041a.351.351,0,0,1,.027.115,1.729,1.729,0,0,1-.067.421,5.058,5.058,0,0,1-.208.641,3.05,3.05,0,0,1-.631.831,2.887,2.887,0,0,1-.614.359,6.341,6.341,0,0,0-1.066.551.251.251,0,0,1-.07.021c.012-.03.014-.047.023-.057.2-.223.4-.438.59-.669a7.033,7.033,0,0,0,.705-.923A6.909,6.909,0,0,1,159.56,130.79Zm-.064,3.316a1.138,1.138,0,0,1-.811.19,5.485,5.485,0,0,0-1.4-.152.311.311,0,0,1-.088-.01c-.02,0-.039-.01-.076-.021a.647.647,0,0,1,.319-.34l1.019-.415c.255-.1.514-.2.766-.317a1.294,1.294,0,0,0,.509-.4,2.793,2.793,0,0,1,.225-.235.713.713,0,0,0,.082-.1c.072-.108.143-.217.214-.325l.034.007c.046.2.106.4.137.6a1.5,1.5,0,0,1,0,.439.773.773,0,0,1-.129.33A3.1,3.1,0,0,1,159.5,134.105Zm-6.626-12.3c0-.016.032-.049.055-.053a.538.538,0,0,1,.185-.024,6.3,6.3,0,0,0,1.033-.085,2.207,2.207,0,0,0,.409-.1c-.007.043,0,.07-.016.087-.1.137-.208.269-.31.406-.078.107-.156.215-.225.33a.9.9,0,0,1-.825.337c-.109-.03-.133-.126-.048-.226.1-.118.212-.226.311-.345a.407.407,0,0,0,.083-.186.144.144,0,0,0-.069-.115c-.027-.015-.088.009-.118.034a2.519,2.519,0,0,1-.23.209,2.241,2.241,0,0,1-.318.143l-.048-.051A.327.327,0,0,0,152.87,121.8Zm8.238.784a1.778,1.778,0,0,0-.856.28c-.141.1-.286.2-.443.305q-.013-.212-.025-.421c0-.029.01-.062,0-.086-.073-.162.03-.235.137-.33a.827.827,0,0,1,.667-.172c.136.01.274-.017.412-.014.274.008.548.021.822.042a.124.124,0,0,1,.083.09c.009.173,0,.347,0,.543-.046-.024-.081-.043-.116-.064A1.133,1.133,0,0,0,161.108,122.586Zm.028.393-.156.4C160.721,123.061,160.721,123.061,161.136,122.98Zm2.5.107a.579.579,0,0,1,.026.156c-.055.005-.128.034-.16.01a2.1,2.1,0,0,1-.325-.283,2.448,2.448,0,0,1-.146-.247.147.147,0,0,0-.112-.052c-.02,0-.05.063-.052.1a.791.791,0,0,0,.193.5,2.031,2.031,0,0,0,.339.308,4.081,4.081,0,0,1,.307.286.164.164,0,0,1-.017.238,1.492,1.492,0,0,1-.851.445c-.133.021-.265.045-.418.07.009-.085.016-.126.016-.167,0-.072.021-.106.105-.1a.184.184,0,0,0,.124-.063c.011-.011-.017-.075-.04-.1a1.14,1.14,0,0,1-.267-.714c0-.171-.043-.34-.051-.511-.011-.24-.006-.482-.012-.723a2.884,2.884,0,0,0-.026-.51,1.717,1.717,0,0,0-.214-.624.459.459,0,0,1-.038-.11l.029-.032.257.128c.167.084.336.167.5.255a2.805,2.805,0,0,1,.321.194c.03.023.038.089.04.136q.016.262.02.526a1.309,1.309,0,0,0,.353.759A.822.822,0,0,1,163.641,123.087ZM147.235,118.3c-.062-.052-.052-.1-.019-.167a1.881,1.881,0,0,1,.433-.561,2.272,2.272,0,0,1,.373-.224c.04-.023.083-.039.122-.063.244-.152.494-.3.731-.459a4.288,4.288,0,0,1,1.176-.523,13.356,13.356,0,0,1,1.992-.5,4.646,4.646,0,0,0,.648-.15c.258-.077.508-.183.765-.267a7.4,7.4,0,0,1,1.178-.334c.246-.037.482-.139.727-.186a1.333,1.333,0,0,1,.4.018c.165.02.329.054.494.077s.2.077.194.235c-.009.192.028.269.212.3a4.376,4.376,0,0,1,.913.389,2.492,2.492,0,0,1,.89.745s0,.009.008.009c.085.031.195.109.251.081.1-.047.021-.154-.01-.234a1.877,1.877,0,0,0-.774-.817,6.75,6.75,0,0,0-.73-.382c-.037-.019-.071-.04-.112-.064.2-.217.414-.1.616-.039.27.085.535.189.8.285s.557.2.837.3c.2.071.411.12.6.21.423.2.841.411,1.257.624a7.639,7.639,0,0,1,1.112.7c.143.108.3.189.454.29.2.132.391.272.588.405a1.174,1.174,0,0,0,.218.12,1.226,1.226,0,0,1,.509.413,4.16,4.16,0,0,0,.466.443c.009.009.022.014.029.022a2.906,2.906,0,0,1,.577.672,2.39,2.39,0,0,1,.177.313,2.03,2.03,0,0,1,.033.442c0,.023-.028.047-.057.09-.3-.281-.586-.552-.881-.811-.155-.136-.327-.254-.5-.375s-.361-.256-.549-.374a1.582,1.582,0,0,0-1.054-.236c-.3.035-.593.044-.89.056a1.616,1.616,0,0,0-.762.171.188.188,0,0,1-.247-.06c-.072-.08-.124-.18-.2-.259-.219-.236-.442-.467-.667-.7a.172.172,0,0,0-.123-.05.644.644,0,0,0-.165.065c.03.044.059.091.09.135s.076.1.115.144c.176.206.352.412.527.619a.648.648,0,0,1,.048.076.706.706,0,0,1-.121,0,4.124,4.124,0,0,0-.889-.152c-.143,0-.284-.069-.427-.072a2.023,2.023,0,0,0-.693.063.907.907,0,0,1-.43-.033,2,2,0,0,1-.354-.128.377.377,0,0,0-.3.01,7.254,7.254,0,0,1-.75.28,1.726,1.726,0,0,1-.482.02c-.3-.008-.608-.025-.912-.035a6.116,6.116,0,0,1-1.135,0,2.046,2.046,0,0,0-.649.026c-.231.026-.46.1-.691.1a1.959,1.959,0,0,1-1-.237.151.151,0,0,1-.057-.049.413.413,0,0,0-.422-.189,1.772,1.772,0,0,0-.511.146,2.505,2.505,0,0,1-.825.279.5.5,0,0,0-.136.018,1.393,1.393,0,0,1-.719,0c-.145-.024-.288-.062-.433-.073a.645.645,0,0,1-.387-.184C147.569,118.572,147.4,118.434,147.235,118.3Zm1.679,1.786a1.123,1.123,0,0,1-.423-.149,2.465,2.465,0,0,1-.851-.513,2.153,2.153,0,0,1-.169-.233.123.123,0,0,1,0-.113.143.143,0,0,1,.11-.035.368.368,0,0,1,.13.044,2.151,2.151,0,0,0,.935.207,2.72,2.72,0,0,0,.836-.043c.264-.075.516-.189.776-.281.142-.05.287-.093.433-.131a.26.26,0,0,1,.246.082,1.582,1.582,0,0,0,.415.251,1.962,1.962,0,0,0,1.264.105,2.1,2.1,0,0,1,.619-.06,9.924,9.924,0,0,0,1.5-.02,1.186,1.186,0,0,1,.288,0,3.335,3.335,0,0,0,1.77-.235.531.531,0,0,1,.462.009,1.346,1.346,0,0,0,.6.123.233.233,0,0,0,.132-.031.554.554,0,0,1,.409-.066,11.491,11.491,0,0,1,1.9.338.4.4,0,0,0,.348-.041,1.77,1.77,0,0,1,.994-.2c.352-.016.705-.009,1.057,0a.937.937,0,0,1,.246.07.7.7,0,0,0,.068.032,1.593,1.593,0,0,1,.7.4c.163.142.357.248.519.39.143.125.26.281.4.416.083.081.182.145.267.224a1,1,0,0,1,.113.15l-.153.075a1.185,1.185,0,0,1-.707-.281.155.155,0,0,0-.053-.029c-.169-.07-.338-.141-.509-.209-.274-.11-.546-.225-.824-.324a4.746,4.746,0,0,0-.577-.162,6.038,6.038,0,0,0-1.284-.206c-.3,0-.592-.051-.889-.061a5.6,5.6,0,0,0-1.228,0,3.432,3.432,0,0,1-.424.016c-.15.007-.3.024-.449.03a.872.872,0,0,1-.2-.014,3.8,3.8,0,0,0-.947-.01c-.225.016-.45.03-.675.04-.355.016-.711.013-1.064.047-.316.03-.627.1-.941.152-.173.027-.347.051-.521.075-.257.036-.517.057-.77.111a5.832,5.832,0,0,1-.932.072c-.382.019-.764.07-1.146.085-.236.009-.475-.024-.712-.036C149.63,120.119,149.271,120.116,148.915,120.082Zm.737,5.245a1,1,0,0,1-.226.053c-.024.005-.055,0-.072.012-.116.086-.22.04-.35-.034.073-.18.147-.35.211-.524a1.9,1.9,0,0,0,.095-.348c.008-.05-.031-.108-.049-.162-.053.034-.125.057-.153.106a3.615,3.615,0,0,0-.168.363.288.288,0,0,1-.264.184c.061-.284.117-.555.178-.825.03-.133.08-.262.1-.4a.276.276,0,0,0-.065-.179.112.112,0,0,1,0-.156.393.393,0,0,1,.326-.2,1.185,1.185,0,0,0,.751-.279c.012-.012.031-.021.036-.034.021-.06.04-.12.06-.181-.066-.01-.146-.05-.194-.025a1.951,1.951,0,0,1-.851.189.617.617,0,0,1-.437-.105c.133-.055.249-.107.369-.151.168-.06.221-.214.28-.352.041-.1-.1-.233-.211-.22-.047.006-.095.016-.141.024l-.016-.036a.6.6,0,0,1,.128-.075,1.536,1.536,0,0,0,.536-.311.374.374,0,0,1,.246-.064c.2.014.388.059.583.08.4.043.8.089,1.2.113a7.323,7.323,0,0,0,.738-.018c.128-.005.152.017.112.137a1.048,1.048,0,0,1-.1.2c-.055.091-.173.185-.095.287a.846.846,0,0,0,.3.195.645.645,0,0,0,.188.024.309.309,0,0,0,.108.338c.014.01,0,.089-.028.118a.944.944,0,0,1-.137.108c-.148.122-.133.255.023.361a.268.268,0,0,1,.108.168c.03.214.04.431.062.647a3.442,3.442,0,0,0,.057.358c.025.124-.008.15-.13.157-.191.011-.268-.128-.365-.244-.056-.067-.094-.149-.148-.218a.416.416,0,0,0-.1-.07c-.021.041-.063.083-.06.123a.9.9,0,0,0,.26.57.7.7,0,0,1,.095.1.63.63,0,0,1,.043.128.49.49,0,0,1-.151.029c-.193-.029-.384-.08-.578-.1-.176-.018-.193.01-.2.185a1.581,1.581,0,0,1-.031.172c-.212-.109-.409-.2-.59-.31-.134-.083-.246-.2-.373-.3a.129.129,0,0,0-.11-.019C150.171,125.059,149.914,125.2,149.651,125.327Zm-1.227,7.815c.161.315.3.644.442.967a1.258,1.258,0,0,1,.055.126c.042.118.089.234.119.355.046.184.076.373.119.559a4.925,4.925,0,0,1,.21,1.422,1.055,1.055,0,0,0,.145.514c.019.04.128.069.183.055s.087-.1.087-.154c-.01-.308-.021-.618-.056-.924a7.382,7.382,0,0,0-.141-.738c-.075-.344-.155-.686-.235-1.029a1.456,1.456,0,0,0-.071-.227,12.651,12.651,0,0,0-.745-1.549,1.622,1.622,0,0,1-.191-1.04,10.889,10.889,0,0,0,.126-1.688c-.005-.141.019-.284.019-.426a5.636,5.636,0,0,1,.056-1.121,4.639,4.639,0,0,1,.167-.841c.053-.129.068-.275.127-.4a.69.69,0,0,1,.193-.234.146.146,0,0,1,.236.087c0,.016,0,.037.012.048.14.162.083.354.092.539a9.233,9.233,0,0,0,.115,1.361,7.666,7.666,0,0,0,.165.771c.083.271.2.532.3.8.138.344.272.692.426,1.031.091.2.218.385.324.58.07.128.133.259.2.389a3.458,3.458,0,0,0,.645.829c.139.144.27.3.411.441.2.207.411.406.609.615.418.44.839.877,1.243,1.33.229.257.424.544.637.815s.412.506.6.768a8.169,8.169,0,0,1,.5.751c.21.366.4.744.593,1.12.173.338.339.68.508,1.021.142.29.288.576.423.869.2.426.382.855.572,1.284s.387.872.578,1.308c.046.1.078.213.121.318s.1.221.143.331a.339.339,0,0,1,.036.094,2.491,2.491,0,0,0,.43.978c.088.161.156.331.242.493.055.1.125.2.189.293.011.017.031.03.039.049a2.763,2.763,0,0,1,.342.788,2.9,2.9,0,0,1-.01.4c-.041,0-.052,0-.057,0a6.946,6.946,0,0,1-.935-.992c-.192-.283-.418-.543-.608-.827a2.878,2.878,0,0,1-.293-.578c-.13-.342-.236-.694-.35-1.041-.028-.084-.077-.144-.169-.141a.187.187,0,0,0-.189.139,2.9,2.9,0,0,1-.123.393.465.465,0,0,0-.019.35,2.375,2.375,0,0,1,.072.885.866.866,0,0,0,.039.249l-.038.017c-.054-.066-.107-.133-.162-.2-.229-.271-.457-.544-.688-.814a.889.889,0,0,0-.188-.18c-.122-.076-.221-.014-.234.129a.978.978,0,0,1-.014.125c-.04.175-.081.35-.13.556-.058-.053-.1-.091-.145-.132-.116-.113-.236-.222-.347-.34-.183-.194-.366-.388-.537-.592-.189-.224-.355-.466-.547-.687s-.419-.4-.582-.631a3.938,3.938,0,0,0-.441-.454c-.15-.157-.316-.3-.475-.443-.122-.113-.245-.225-.369-.337-.065-.059-.135-.112-.2-.174-.308-.311-.612-.627-.923-.936a7.412,7.412,0,0,0-.581-.546c-.245-.2-.512-.37-.768-.555-.057-.04-.1-.1-.156-.143-.158-.1-.322-.2-.484-.291-.317-.186-.69-.239-1.007-.424a7.045,7.045,0,0,0-.937-.263.9.9,0,0,1-.189-.092,2.272,2.272,0,0,1-.7-1.01c-.1-.255-.215-.505-.324-.757a1.174,1.174,0,0,1-.132-.894,4.28,4.28,0,0,1,.3-.634c.222-.391.46-.774.69-1.16.109-.184.217-.368.321-.553s.2-.361.3-.54c.118-.211.244-.418.357-.632a1.577,1.577,0,0,0,.081-.256A3.868,3.868,0,0,0,148.425,133.142Zm8.2,6.011a1.148,1.148,0,0,1,.264.437c.072.119.106.245.178.365l.052.089c.066.112.14.221.2.336.1.188.181.383.276.572.036.075.085.144.126.216a.683.683,0,0,1,.063.136c.006.02-.01.068-.023.07a.108.108,0,0,1-.087-.019.394.394,0,0,1-.068-.119c-.08-.192-.219-.387-.3-.578-.077-.17-.168-.335-.251-.5-.014-.029-.024-.059-.036-.088l-.06-.087c-.054-.13-.182-.235-.247-.384A2.417,2.417,0,0,1,156.626,139.153Zm-.77,8.393,1.128.592c-.155-.025-.286-.042-.414-.066-.188-.038-.375-.081-.562-.123-.1-.023-.182-.059-.155-.193A1.048,1.048,0,0,0,155.855,147.545Zm.538.761a1.018,1.018,0,0,1,.1.035,9.428,9.428,0,0,1-1.943.04.368.368,0,0,1,.067-.032c.312-.078.624-.156.937-.231a.32.32,0,0,1,.135.011C155.924,148.188,156.158,148.247,156.393,148.306Zm1.248.495a4.741,4.741,0,0,1-1.469-.125A4.989,4.989,0,0,1,157.641,148.8Zm-.006-.58a.945.945,0,0,1,.671.182Zm-1.3-.738c-.21-.143-.428-.275-.636-.421a2.459,2.459,0,0,1-.281-.245,1.732,1.732,0,0,0-.665-.431c-.2-.066-.248-.181-.146-.41.16.137.3.27.458.389.236.18.476.355.721.521.274.184.551.365.838.527a3.825,3.825,0,0,0,.562.239c.2.074.406.133.608.2.057.02.112.049.179.079A2.564,2.564,0,0,1,156.339,147.483Zm-1.561-.156a1.411,1.411,0,0,1,.664.121.561.561,0,0,1-.158.054c-.163,0-.325.051-.488.035-.028,0-.072-.107-.075-.131S154.758,147.327,154.778,147.327ZM154.31,147a2.837,2.837,0,0,0-.4-.029c-.088,0-.128-.032-.131-.125-.008-.2-.025-.4-.037-.582.348.148.686.3,1.029.436a1.856,1.856,0,0,1,.618.484C155.006,147.12,154.658,147.056,154.31,147Zm2.327.113q-.658-.445-1.313-.894a.341.341,0,0,1-.1-.091.114.114,0,0,1,0-.1c.053-.058.046-.1.011-.167a.4.4,0,0,1-.027-.213,1.1,1.1,0,0,1,.38.337,1.377,1.377,0,0,0,.327.3c.3.244.586.5.9.722a4.84,4.84,0,0,0,.645.354c.136.07.279.125.419.187A3.912,3.912,0,0,1,156.637,147.115Zm-4.847-5.072-.034.022-3.71-2.9a.37.37,0,0,1,.079.007c.236.082.479.153.708.251a2.671,2.671,0,0,1,.512.288c.374.271.745.55,1.1.841.19.154.343.354.53.513a2.628,2.628,0,0,1,.49.563,3.246,3.246,0,0,0,.247.281A.754.754,0,0,1,151.79,142.043Zm-4.6-10.824a8.221,8.221,0,0,0,.785-1.251.538.538,0,0,1,.055-.072.328.328,0,0,1,.011.09c-.058.225-.115.452-.179.675a4.642,4.642,0,0,1-.181.558c-.192.444-.38.893-.6,1.32s-.51.853-.763,1.281-.51.837-.728,1.274a1.342,1.342,0,0,0-.223.857,3.817,3.817,0,0,0,.159.616c.126.337.28.663.418.994a1.589,1.589,0,0,1,.054.188l-.03.029c-.077-.027-.157-.051-.233-.08-.285-.107-.569-.218-.854-.326-.12-.046-.246-.083-.361-.14-.037-.018-.048-.087-.072-.134a1.022,1.022,0,0,1,.122-.028.831.831,0,0,0,.209-.02c.157-.068.163-.228.044-.348a.878.878,0,0,0-.748-.192c-.216.012-.433.02-.649.023-.109,0-.137-.066-.1-.162a3.857,3.857,0,0,1,.264-.725,4.334,4.334,0,0,1,.768-1.059,3.746,3.746,0,0,0,.284-.351c.148-.17.3-.335.451-.5s.264-.325.4-.479c.265-.29.549-.563.8-.863.209-.247.384-.523.579-.783C146.969,131.474,147.088,131.355,147.186,131.219Zm2.7,29.57c-.126-.067-.255-.129-.377-.2a2.663,2.663,0,0,1-.49-.366,3.386,3.386,0,0,0-.551-.343c-.245-.159-.486-.325-.724-.495-.157-.111-.307-.23-.456-.35-.1-.077-.188-.162-.28-.247-.128-.12-.247-.247-.378-.363-.152-.136-.311-.263-.469-.394-.023-.019-.047-.036-.067-.057-.153-.152-.308-.3-.459-.459q-.272-.277-.538-.559c-.109-.115-.208-.239-.318-.352a2.537,2.537,0,0,1-.549-.877c-.145-.391-.276-.787-.417-1.178-.059-.165-.137-.325-.192-.492s-.089-.337-.132-.505c-.008-.029,0-.062-.016-.085a3.452,3.452,0,0,1-.333-.847,3.067,3.067,0,0,0-.175-.372c-.13-.3-.251-.612-.385-.913-.09-.2-.21-.389-.3-.591-.079-.187-.129-.385-.2-.577a1.048,1.048,0,0,0-.11-.252,5.85,5.85,0,0,1-.445-.966c-.113-.251-.251-.491-.366-.74s-.206-.483-.3-.727c-.149-.386-.293-.774-.435-1.162-.052-.141-.095-.286-.139-.43-.032-.1-.062-.206-.09-.31a.111.111,0,0,1,0-.072c.062-.109-.005-.178-.055-.27a1.487,1.487,0,0,1-.128-.414c-.056-.292-.1-.585-.146-.878-.053-.317-.116-.632-.165-.949-.067-.421-.137-.843-.184-1.266a1.583,1.583,0,0,1,0-.71.909.909,0,0,0,0-.262c0-.175.01-.35.016-.524,0-.075.006-.15.012-.225a5.006,5.006,0,0,1,.377-1.465,6.422,6.422,0,0,1,.509-.936,6.342,6.342,0,0,1,.595-.869,9.341,9.341,0,0,1,1.184-1.307c.194-.153.343-.365.526-.535s.393-.325.587-.491c.162-.139.316-.286.475-.427.376-.332.757-.658,1.128-.995.294-.267.58-.543.867-.818.144-.138.286-.277.422-.422.058-.062.094-.145.149-.21s.117-.115.176-.173l.049.031-.132.227a5.105,5.105,0,0,1-.751.805c-.26.284-.509.578-.76.869-.277.32-.555.639-.823.966-.213.257-.414.523-.616.789a3.881,3.881,0,0,0-.3.433,2.948,2.948,0,0,0-.2.445c-.06.163-.105.334-.159.5a.394.394,0,0,0,.327.535c.222.029.446.049.669.062.1.006.128.038.139.133a.563.563,0,0,0,.39.529c.427.145.847.307,1.267.471a3.393,3.393,0,0,1,.368.19c.162.087.328.168.483.267.138.087.26.2.393.291.281.2.566.391.846.589.252.177.508.35.75.54.339.264.663.549,1,.813s.678.5,1.015.756c.143.108.281.225.417.342.284.244.569.489.847.741a5.627,5.627,0,0,1,.6.595,3.758,3.758,0,0,0,.513.569c.012.01.016.029.027.042.278.322.561.641.831.969.2.238.375.49.557.738a.179.179,0,0,1,.012.118c-.023.147-.053.292-.085.464-.109-.071-.218-.14-.325-.212a1.806,1.806,0,0,0-.238-.161.229.229,0,0,0-.184.005.194.194,0,0,0-.075.153c.016.288.042.574.066.861.01.115-.018.143-.117.135-.265-.02-.532-.045-.8-.043s-.525.031-.788.053a.377.377,0,0,0-.139.049c-.341.178-.672.375-1.023.526a1.166,1.166,0,0,1-.528.053,3.662,3.662,0,0,1-.975-.267,4.171,4.171,0,0,0-.59-.118.673.673,0,0,1-.233-.075.652.652,0,0,0-.428-.12.432.432,0,0,1-.433-.427,1.961,1.961,0,0,0-.311-.867,1.124,1.124,0,0,1-.218-.676,5.731,5.731,0,0,0-.092-.844.149.149,0,0,0-.168-.137c-.09,0-.106.073-.11.142a5.454,5.454,0,0,0-.038,1,4.1,4.1,0,0,0,.3.833c.059.16.121.32.169.483.025.087-.024.129-.122.146-.406.072-.811.156-1.216.235-.074.015-.148.028-.222.036-.153.018-.307.033-.46.051-.1.011-.2.029-.294.037a.115.115,0,0,0-.1.178.346.346,0,0,0,.356.184c.335-.057.669-.118,1-.175.288-.049.58-.084.865-.144a.783.783,0,0,1,.643.208.712.712,0,0,0,.415.113.5.5,0,0,1,.182.032c.148.065.287.149.436.212.126.053.264.08.392.129a.194.194,0,0,1,.064.344.114.114,0,0,1-.029.024c-.466.231-.5.71-.645,1.126-.043.126-.083.254-.115.383s-.061.286-.083.43c-.057.368-.114.736-.162,1.105a3.832,3.832,0,0,0-.056,1.1,5.775,5.775,0,0,1-.014.827c0,.35.02.7.038,1.052a5.326,5.326,0,0,0,.059.662c.053.3.122.59.2.88.09.322.2.638.3.958.066.221.118.445.179.667.019.068.046.134.071.2a.751.751,0,0,1,.07.175,3.651,3.651,0,0,0,.38,1.029c.039.093.067.189.1.284s.06.206.1.308c.1.292.2.585.315.874a1.559,1.559,0,0,0,.136.237q.1.162.2.324Zm1.5-3.583s.008.471.031.7c.046.466.1.93.14,1.4a1.449,1.449,0,0,1-.013.3,2.041,2.041,0,0,0,.042.629,3.986,3.986,0,0,1,.037.646,1.928,1.928,0,0,1-.014.4,2.919,2.919,0,0,1-.135.438c-.022.06-.066.062-.12.025-.218-.148-.444-.284-.655-.441a.769.769,0,0,1-.2-.247,5.86,5.86,0,0,0-.458-.915,1.533,1.533,0,0,1-.2-.47,2.968,2.968,0,0,0-.317-.76,1.388,1.388,0,0,1-.124-.3c-.142-.357-.3-.711-.421-1.074-.1-.277-.151-.567-.232-.849-.055-.188-.128-.372-.185-.559-.045-.148-.077-.3-.115-.45a7.844,7.844,0,0,1-.279-1.846c0-.359,0-.718,0-1.077a1.757,1.757,0,0,0-.02-.212c-.011-.089.017-.139.114-.134a.482.482,0,0,1,.416.162.456.456,0,0,0,.171.124c.322.159.648.311.97.47.274.135.546.274.817.414a.163.163,0,0,1,.076.076,7.34,7.34,0,0,1,.239.738c.1.424.181.853.247,1.283C151.271,156.185,151.324,156.7,151.387,157.206Zm5.482-5.889c-.2.1-.393.206-.6.294-.43.187-.86.373-1.3.541-.244.095-.5.157-.756.231-.273.081-.545.162-.819.237-.169.046-.341.08-.512.12-.212.05-.423.1-.636.15a.205.205,0,0,1-.143,0c-.088-.064-.135,0-.162.052a.177.177,0,0,0,.017.154.428.428,0,0,0,.471.116c.3-.055.589-.125.878-.2.181-.05.351-.139.531-.191.232-.067.475-.1.706-.174.288-.09.566-.2.85-.3.145-.05.293-.09.44-.133l.021.025a.613.613,0,0,1-.126.137,3.234,3.234,0,0,1-.434.222c-.3.12-.607.239-.917.335-.455.139-.916.262-1.377.381-.169.043-.347.048-.519.079-.2.034-.408.089-.614.112a1,1,0,0,1-.4-.03c-.279-.087-.552-.194-.824-.3-.213-.085-.424-.173-.629-.274s-.41-.224-.615-.337c-.151-.083-.307-.155-.449-.25a1.337,1.337,0,0,1-.232-.237,1.6,1.6,0,0,0-.12-.16.211.211,0,0,0-.151-.056c-.036.006-.082.069-.09.113-.016.086-.064.1-.135.1s-.1-.054-.094-.119c.044-.36.086-.721.139-1.079a3.754,3.754,0,0,1,.111-.476c.087-.308.183-.615.271-.923.027-.1.034-.2.059-.292a1.5,1.5,0,0,1,.1-.293,1.288,1.288,0,0,1,.527-.518,1.731,1.731,0,0,1,.85-.261,1.248,1.248,0,0,0,.689-.281,1.967,1.967,0,0,1,.365-.216,6.226,6.226,0,0,1,.747-.291,2.276,2.276,0,0,1,.508-.043c.167-.009.335-.018.5-.013s.307.031.462.044c.223.019.447.035.671.053.05,0,.1.012.149.02.222.037.223.037.246.251.014.118.07.189.195.184.209-.007.419-.012.627-.032.07-.007.134-.058.223-.068a.915.915,0,0,1-.183.138,3.124,3.124,0,0,1-.391.126,3.692,3.692,0,0,1-.466.107c-.277.036-.556.056-.835.082a1.186,1.186,0,0,0-.175.01.232.232,0,0,1-.263-.091.23.23,0,0,0-.2-.046c-.033.008-.064.111-.057.166.009.07-.01.1-.067.125-.143.058-.288.109-.426.177-.153.076-.3.169-.449.249a.848.848,0,0,1-.242.1.22.22,0,0,1-.165-.052.168.168,0,0,0-.217-.03c-.047.028-.106.1-.1.139a.27.27,0,0,0,.122.166c.244.134.5.248.744.383.176.1.337.219.508.325a.454.454,0,0,0,.2.089c.626.015,1.252.032,1.879.024.358,0,.717-.057,1.076-.08.287-.019.575-.024.862-.041.086-.006.089.054.092.1a.2.2,0,0,1-.046.1c-.007.011-.031.012-.047.015a3.99,3.99,0,0,0-1.223.431c-.074.038-.154.066-.227.107a1.7,1.7,0,0,1-.786.117c-.245.015-.492.013-.737.017-.292.005-.584,0-.876.015a3.613,3.613,0,0,0-1.142.2c-.025.009-.057,0-.085.005s-.108.016-.119.043a.184.184,0,0,0,.012.147c.066.1.174.086.275.072.158-.021.314-.059.473-.066.35-.017.7-.014,1.053-.03.275-.012.55-.048.825-.06s.567,0,.85-.017a.854.854,0,0,0,.342-.089,6.231,6.231,0,0,1,1.655-.645c.045-.009.088-.031.133-.036a.479.479,0,0,1,.112.01c-.014.033-.02.076-.045.1a3.284,3.284,0,0,1-.8.49,7,7,0,0,1-1.23.391c-.437.108-.861.273-1.3.364a6.06,6.06,0,0,1-1.6.251c-.075-.005-.15,0-.225,0-.1,0-.126.046-.074.138a.409.409,0,0,0,.38.206,4.817,4.817,0,0,0,.748-.07c.329-.061.652-.153.976-.234s.633-.158.947-.244c.1-.029.2-.079.306-.111.179-.055.364-.092.54-.155.267-.1.531-.2.792-.312.086-.037.152-.052.2.042S156.99,151.253,156.869,151.317Zm-3-2.751c0,.013-.192.083-.192.1h-.455c0-.021,0-.1,0-.118C153.372,148.552,153.713,148.558,153.865,148.566Zm-1.174.689-.034.026-.367-.247a1.51,1.51,0,0,1,.171-.1.087.087,0,0,1,.082.023C152.6,149.054,152.642,149.155,152.691,149.255Zm4.475.533.183-.11.031.061-.186.1Zm.35.957c-.081.111-.175.214-.275.334-.1-.177-.092-.218.045-.3.045-.029.079-.072.122-.1a1.126,1.126,0,0,1,.118-.065C157.523,150.655,157.537,150.713,157.515,150.745Zm-.406-1.466a3.854,3.854,0,0,0-.546.077,7.814,7.814,0,0,1-1.421.131c-.353.024-.707.037-1.061.04-.291,0-.583-.015-.873-.025-.023,0-.057-.012-.065-.028-.1-.209-.191-.42-.3-.662.085.015.13.017.172.03a2.5,2.5,0,0,0,.983.034,6.809,6.809,0,0,1,1.252-.052c.348.033.677.134,1.016.189s.682.047,1.023.069c.141.009.282.022.423.03.217.015.434.026.651.042.066.005.129.022.194.033,0,.015,0,.029,0,.044-.207-.01-.416-.034-.622-.025C157.657,149.216,157.383,149.249,157.109,149.278Zm1.344-1.1.021-.034a.447.447,0,0,1,.351.251Zm.831,1.379c-.281.035-.561.072-.842.106-.108.012-.217.016-.325.027-.126.014-.193-.032-.233-.174h.393c.171,0,.342,0,.512-.007.123-.006.246-.033.369-.043a.5.5,0,0,1,.138.029C159.293,149.517,159.289,149.537,159.285,149.558Zm.021-1.429a2.46,2.46,0,0,0-.952-.654c-.234-.12-.479-.218-.721-.321a2.745,2.745,0,0,1-.793-.473c-.244-.222-.51-.419-.771-.622a.33.33,0,0,1-.147-.346c.047-.24.095-.48.15-.761.152.167.294.305.415.46a6.365,6.365,0,0,0,.843.94c.133.115.284.206.423.315.324.256.656.5.966.775a8.123,8.123,0,0,1,.589.616.188.188,0,0,1,.047.124A.606.606,0,0,1,159.305,148.129Zm-.054-.54c-.107-.086-.18-.211-.285-.3-.26-.217-.53-.421-.8-.632-.228-.183-.46-.363-.678-.557a.347.347,0,0,1-.077-.218c-.033-.506-.058-1.012-.085-1.517a.677.677,0,0,1,.013-.076c.029.066.047.1.061.14a3.579,3.579,0,0,0,.358.894c.223.312.46.619.658.947a7.173,7.173,0,0,0,.969,1.117,1.353,1.353,0,0,1,.326.809c-.016-.027-.035-.053-.05-.081A1.589,1.589,0,0,0,159.251,147.59Zm.524,2.114c-.122-.018-.195-.085-.163-.185.039-.121.147-.027.243-.059C159.824,149.555,159.8,149.624,159.775,149.7Zm.139-3.412c-.021-.075-.048-.149-.064-.225-.115-.546-.238-1.091-.334-1.64a4.21,4.21,0,0,0-.312-.845c-.182-.449-.382-.892-.585-1.333s-.411-.886-.63-1.322c-.238-.474-.488-.943-.74-1.411q-.411-.763-.833-1.518c-.165-.3-.338-.587-.506-.881-.242-.424-.475-.854-.727-1.272-.166-.275-.354-.538-.539-.8-.165-.235-.339-.463-.506-.7a.634.634,0,0,1-.053-.137,1.828,1.828,0,0,1,.218,0,6.625,6.625,0,0,1,.995.108,6.439,6.439,0,0,0,.738.124.485.485,0,0,1,.376.189c.155.228.331.441.491.666.216.3.423.61.639.913a4.3,4.3,0,0,1,.575,1.078,2.141,2.141,0,0,0,.439.677,4.8,4.8,0,0,1,.352.456.943.943,0,0,1,.073.611c0,.079,0,.159,0,.238,0,.125-.01.25-.011.376a8.143,8.143,0,0,0,.115,1.473c.082.455.155.912.241,1.367.039.2.095.407.153.608s.146.406.2.615a5.193,5.193,0,0,1,.094.578c.022.171.038.341.051.512.015.2.017.391.035.585.023.231.055.461.082.693.008.068.011.138.017.206Zm.072-3.389c-.005-.417-.126-.815-.129-1.227a3.68,3.68,0,0,1,.013-.576,6.964,6.964,0,0,0,.019-1.051c0-.181.042-.363.055-.546.025-.355.042-.713.066-1.069,0-.083.03-.163.038-.246.043-.428.091-.857.119-1.285.021-.3.012-.6.019-.9a2.761,2.761,0,0,1,.027-.337,2.512,2.512,0,0,0-.1-.964,1.035,1.035,0,0,0-.163-.32c-.035-.053-.044-.082.007-.124.126-.107.254-.212.374-.325.091-.086.167-.188.257-.275a.838.838,0,0,0,.239-.653,7.063,7.063,0,0,0-.062-.788,2.234,2.234,0,0,0-.147-.477.768.768,0,0,1-.061-.543,3.9,3.9,0,0,0,.125-.613.546.546,0,0,0-.042-.191l.046-.012c.027.1.053.191.08.287.023.079.051.158.07.238.03.13.047.262.083.39.114.406.244.807.348,1.216.08.315.13.638.195.957s.132.621.19.931c.083.443.144.89.24,1.329a11.377,11.377,0,0,1,.122,1.5c.033.383.082.765.112,1.149.016.191,0,.385.008.578.012.354.033.706.044,1.061.008.263-.005.528.013.791a8.468,8.468,0,0,1,.013,1.027c-.02.361,0,.723,0,1.094-.2-.06-.207-.048-.327.137-.092.142-.225.258-.321.4-.225.328-.445.658-.652,1-.179.292-.336.6-.505.9a1.021,1.021,0,0,1-.108.132l-.036-.005c-.009-.066-.02-.133-.025-.2-.029-.412-.046-.827-.089-1.238C160.1,143.662,159.991,143.283,159.987,142.9Zm.04,4.428a2.065,2.065,0,0,1,.107-.722c.088-.235.169-.473.266-.705a2.749,2.749,0,0,1,.161-.25c.089-.161.165-.33.257-.489.107-.184.223-.363.338-.542.17-.259.338-.519.515-.775.089-.129.192-.247.289-.371l.035.01a3.69,3.69,0,0,1,.052.556c-.023.418-.07.833-.112,1.248a.22.22,0,0,1-.066.127c-.219.2-.449.4-.665.608-.273.264-.545.529-.8.809a4.382,4.382,0,0,0-.348.5Zm.142,2.255c0-.019,0-.039,0-.059h.7A2.14,2.14,0,0,1,160.169,149.586Zm.9-1.49c-.13.077-.262.148-.391.225s-.266.16-.43.259a2.866,2.866,0,0,1,.1-.27,3.445,3.445,0,0,1,.7-1.148,5.712,5.712,0,0,1,.647-.572,3.682,3.682,0,0,1,.8-.346,2.237,2.237,0,0,0,.792-.419,1.791,1.791,0,0,1,.295-.165l.83-.468a1.262,1.262,0,0,1,.117-.052,1.233,1.233,0,0,1,0,.6c-.049.357-.12.711-.192,1.064a.225.225,0,0,1-.114.139,2.716,2.716,0,0,1-.409.156.4.4,0,0,1-.2-.007.813.813,0,0,0-.544.108,2.463,2.463,0,0,1-.861.279,1.5,1.5,0,0,0-.639.306Q161.33,147.944,161.073,148.1Zm.564,1.785-.125-.164.245.027Zm.51.927a.079.079,0,0,1-.077,0,.793.793,0,0,1-.276-.459.558.558,0,0,1,.373.383A.087.087,0,0,1,162.147,150.808Zm4.766,1.853c-.327,0-.655.01-.981,0a6.284,6.284,0,0,1-1.045-.089,6.929,6.929,0,0,1-.956-.338c-.133-.05-.263-.108-.394-.165-.228-.1-.457-.2-.682-.306-.036-.017-.059-.064-.107-.122a3.776,3.776,0,0,0,.5.244c.3.1.611.174.919.247a2.416,2.416,0,0,0,.482.072c.2.007.4-.015.6-.025.088-.005.175-.02.263-.017a1.346,1.346,0,0,0,.542-.083,2.055,2.055,0,0,1,.272-.033.513.513,0,0,0,.148-.091.488.488,0,0,0-.1-.132.564.564,0,0,0-.458-.073,4.608,4.608,0,0,1-1.273.056c-.146-.01-.294,0-.438-.026-.2-.029-.39-.078-.585-.12a.691.691,0,0,1-.12-.031,3.2,3.2,0,0,1-.447-.188,6.668,6.668,0,0,1-.569-.386.137.137,0,0,1-.042-.11c.021-.1.057-.206.09-.326.016.006.064.023.11.044.221.1.44.2.663.295a2.678,2.678,0,0,0,.454.166q.6.136,1.215.24a1.737,1.737,0,0,0,.411,0,6.146,6.146,0,0,0,.623-.072,1.658,1.658,0,0,0,.4-.141,4.425,4.425,0,0,0,.5-.286.19.19,0,0,0,.059-.158c0-.036-.075-.088-.115-.089a.564.564,0,0,0-.251.051,2.924,2.924,0,0,1-1.274.339,4.562,4.562,0,0,1-1.152-.169,3.453,3.453,0,0,1-.527-.089,4.966,4.966,0,0,1-.946-.4,2.11,2.11,0,0,0-.527-.181c-.036-.012-.075-.01-.111-.019-.148-.037-.161-.081-.073-.206a1.33,1.33,0,0,0,.119-.205c.05-.107.15-.1.227-.076.318.088.631.2.949.286.249.068.506.115.758.174.147.034.29.089.439.109a2.619,2.619,0,0,0,.458.013,1.7,1.7,0,0,0,.3-.047c.221-.047.441-.1.66-.151a.159.159,0,0,0,.134-.2.157.157,0,0,0-.206-.115c-.308.058-.615.122-.924.176a.771.771,0,0,1-.3.008c-.337-.079-.671-.173-1.006-.262,0-.014,0-.027.005-.04l.517.031a3.537,3.537,0,0,0,.909-.017,3.956,3.956,0,0,1,.474-.009c.274-.02.547-.056.822-.075.317-.021.635-.036.952-.048.239-.009.318-.124.223-.343-.014-.031-.029-.061-.04-.092-.066-.172-.071-.3.124-.41a.53.53,0,0,0,.162-.133.153.153,0,0,0-.066-.263c-.15-.064-.308-.107-.459-.168-.306-.123-.609-.253-.913-.379a.173.173,0,0,1-.126-.19c.005-.126-.123-.21-.212-.133a1.31,1.31,0,0,1-.689.239c-.308.055-.618.1-.926.144l-.007-.039c.1-.023.2-.045.3-.07.219-.058.259-.11.259-.333,0-.251.007-.257.244-.338.312-.107.626-.211.936-.324a.8.8,0,0,1,.505-.023c.315.088.632.171.943.269s.634.217.953.318a.7.7,0,0,1,.292.247,2.267,2.267,0,0,0,.207.176,1.194,1.194,0,0,1,.169.148,2.186,2.186,0,0,1,.492,1.266,8.748,8.748,0,0,1-.037.891,2.155,2.155,0,0,1-.007.325,3.368,3.368,0,0,1-.355,1.068c-.07.118-.116.25-.185.369a1.6,1.6,0,0,1-.957.743A3.98,3.98,0,0,1,166.912,152.662Zm2.49,1.644a9.3,9.3,0,0,1-.245.92c-.05.189-.083.384-.128.574a2.814,2.814,0,0,1-.132.471,1.715,1.715,0,0,1-.572.731c-.067.047-.109.029-.151-.041a3.086,3.086,0,0,1-.366-.97c-.072-.335-.095-.679-.159-1.016s-.152-.658-.228-.986c-.057-.245-.118-.489-.163-.735a.173.173,0,0,1,.148-.211c.294-.078.581-.189.877-.254a1.417,1.417,0,0,0,.8-.486,4.772,4.772,0,0,0,.378-.576c.059-.1.1-.2.15-.3h.021c-.018.174-.04.347-.055.521q-.05.589-.092,1.177C169.459,153.516,169.46,153.916,169.4,154.306Zm4.862-9.212a6.8,6.8,0,0,1-.167.936,1.873,1.873,0,0,1-.242.521,9.188,9.188,0,0,1-.548.791,6.052,6.052,0,0,0-.538,1.016c-.117.226-.21.465-.313.7-.1.217-.2.433-.285.654-.079.2-.141.4-.219.6-.111.287-.232.569-.344.856-.085.218-.158.441-.243.658-.132.344-.269.684-.4,1.028-.07.183-.129.372-.2.554q-.214.54-.441,1.075c-.054.127-.13.244-.2.365-.055.1-.105.2-.17.292-.053.077-.132.135-.185.212-.076.108-.139.225-.206.339-.019.031-.037.063-.055.1l-.035-.011c.04-.135.085-.269.115-.406.048-.216.093-.434.124-.653s.032-.417.059-.625.08-.417.1-.628c.032-.291.055-.583.066-.876.023-.633.017-1.266.059-1.9a10.274,10.274,0,0,0,.089-1.427,2.936,2.936,0,0,0-.123-.52c-.044-.161-.092-.322-.142-.481a1.843,1.843,0,0,0-.655-.929c-.1-.076-.176-.181-.279-.251a3.46,3.46,0,0,0-.384-.2c-.107-.054-.214-.107-.324-.155a1.317,1.317,0,0,0-.214-.07,4.356,4.356,0,0,0-.769-.176,1.568,1.568,0,0,1-.536-.147.857.857,0,0,0-.679.024c-.355.132-.715.253-1.073.378-.077.027-.152.055-.269.1.06-.208.095-.384.159-.548a3.989,3.989,0,0,1,.326-.6,2.116,2.116,0,0,0,.31-1.023c0-.117.022-.233.027-.35.01-.238.009-.477.026-.714.023-.308.049-.616.095-.922s.115-.631.18-.945c.034-.163.085-.324.125-.486.061-.256.119-.511.179-.767a1.445,1.445,0,0,1,.352-.657,2.693,2.693,0,0,0,.592-.995,4.605,4.605,0,0,1,.324-.55c.127-.254.226-.521.348-.776a4.616,4.616,0,0,1,.336-.63,7.538,7.538,0,0,1,.527-.651.822.822,0,0,1,.207-.161,10.592,10.592,0,0,0,1.2-.9.476.476,0,0,1,.106-.066c.062-.027.133-.03.154-.122.006-.028.1-.067.135-.053a3.172,3.172,0,0,1,.945.454c.318.257.622.532.919.814a2.33,2.33,0,0,1,.334.436,6.626,6.626,0,0,1,.335.6c.031.062.007.15.03.218.083.242.182.478.263.72.042.126.057.261.089.391.111.453.232.906.335,1.361.074.33.125.664.189.995.045.234.1.466.139.7.092.611.177,1.224.261,1.836.04.287.084.573.1.861A5.159,5.159,0,0,1,174.265,145.094Z" transform="translate(-139.033 -114.453)" fill="#122659"/>
      </g>
      <g id="Gruppe_386" data-name="Gruppe 386" transform="translate(28.721)">
        <g id="Gruppe_368" data-name="Gruppe 368">
          <path id="Pfad_381" data-name="Pfad 381" d="M200.24,90.165,198.1,94.087l-.525-.287.974-1.784-1.978-1.08L195.6,92.72l-.525-.286,2.141-3.922.524.287-.926,1.7,1.978,1.08.926-1.7Z" transform="translate(-195.072 -88.512)" fill="#122659"/>
        </g>
        <g id="Gruppe_369" data-name="Gruppe 369" transform="translate(4.173 2.754)">
          <path id="Pfad_382" data-name="Pfad 382" d="M206.811,99.885l-.48-.357,2.663-3.588.48.356Z" transform="translate(-206.331 -95.941)" fill="#122659"/>
        </g>
        <g id="Gruppe_370" data-name="Gruppe 370" transform="translate(5.762 4.158)">
          <path id="Pfad_383" data-name="Pfad 383" d="M210.617,103.075l2.963-3.345.448.4-2.629,2.968,1.545,1.369-.334.377Z" transform="translate(-210.617 -99.73)" fill="#122659"/>
        </g>
        <g id="Gruppe_371" data-name="Gruppe 371" transform="translate(8.418 6.951)">
          <path id="Pfad_384" data-name="Pfad 384" d="M217.783,110.226l3.347-2.961.972,1.1a2.034,2.034,0,0,1,.565,1.559,2.54,2.54,0,0,1-2.418,2.139,2.01,2.01,0,0,1-1.5-.747Zm.773.114.559.632a1.349,1.349,0,0,0,1.106.5,2.132,2.132,0,0,0,1.866-1.642,1.344,1.344,0,0,0-.371-1.142l-.568-.641Z" transform="translate(-217.783 -107.265)" fill="#122659"/>
        </g>
        <g id="Gruppe_372" data-name="Gruppe 372" transform="translate(11.444 11.057)">
          <path id="Pfad_385" data-name="Pfad 385" d="M226.691,120.992l1.2,1.862-.423.273-1.525-2.364,3.755-2.422,1.5,2.327-.423.273-1.177-1.824-1.2.771,1.119,1.735-.423.273-1.119-1.735Z" transform="translate(-225.944 -118.341)" fill="#122659"/>
        </g>
        <g id="Gruppe_373" data-name="Gruppe 373" transform="translate(13.846 14.996)">
          <path id="Pfad_386" data-name="Pfad 386" d="M233.164,129.828l.349.5a1.124,1.124,0,0,0-.382,1.543c.248.5.665.779,1.132.545.445-.222.493-.549.34-1.12l-.172-.639a1.2,1.2,0,0,1,.6-1.554,1.118,1.118,0,0,1,1-.031,1.76,1.76,0,0,1,.811.861,1.447,1.447,0,0,1-.4,2.049l-.38-.478a.96.96,0,0,0,.348-1.371c-.248-.5-.662-.7-1.061-.5-.383.192-.489.5-.36,1l.169.647c.209.768.1,1.331-.579,1.67a1.22,1.22,0,0,1-1.025.048,1.767,1.767,0,0,1-.881-.917A1.585,1.585,0,0,1,233.164,129.828Z" transform="translate(-232.426 -128.968)" fill="#122659"/>
        </g>
        <g id="Gruppe_374" data-name="Gruppe 374" transform="translate(15.381 18.947)">
          <path id="Pfad_387" data-name="Pfad 387" d="M241.959,142.859l-4.187,1.561-.209-.56,1.9-.71-.787-2.111-1.9.71-.209-.56,4.187-1.561.209.56-1.81.675.787,2.111,1.81-.675Z" transform="translate(-236.567 -139.627)" fill="#122659"/>
        </g>
        <g id="Gruppe_375" data-name="Gruppe 375" transform="translate(16.98 24.126)">
          <path id="Pfad_388" data-name="Pfad 388" d="M241.5,155.015l.465,2.166-.492.106-.591-2.75,4.369-.939.582,2.707-.492.106-.456-2.122-1.391.3.434,2.018-.492.106L243,154.693Z" transform="translate(-240.88 -153.598)" fill="#122659"/>
        </g>
        <g id="Gruppe_376" data-name="Gruppe 376" transform="translate(17.757 28.303)">
          <path id="Pfad_389" data-name="Pfad 389" d="M243.058,166.07l-.082-.592,4.427-.609.082.592Z" transform="translate(-242.976 -164.868)" fill="#122659"/>
        </g>
        <g id="Gruppe_377" data-name="Gruppe 377" transform="translate(18.101 30.769)">
          <path id="Pfad_390" data-name="Pfad 390" d="M243.9,171.61l4.467-.089.017.849-3.412,1.252a3.138,3.138,0,0,1-.42.122v.013a3.111,3.111,0,0,1,.424.1l3.46,1.114.017.85-4.468.089-.011-.548,3.448-.069a3.478,3.478,0,0,1,.479.016v-.025a2.537,2.537,0,0,1-.512-.122l-3.44-1.115-.012-.579,3.393-1.251a2.53,2.53,0,0,1,.507-.142v-.025a3.482,3.482,0,0,1-.478.034l-3.448.069Z" transform="translate(-243.903 -171.521)" fill="#122659"/>
        </g>
        <rect id="Rechteck_181" data-name="Rechteck 181" width="2.592" height="0.403" transform="translate(19.9 38.976) rotate(-84.373)" fill="#122659"/>
        <g id="Gruppe_378" data-name="Gruppe 378" transform="translate(17.242 39.674)">
          <path id="Pfad_391" data-name="Pfad 391" d="M243.428,195.558l-.041.609a1.123,1.123,0,0,0-1.263.965c-.116.542.032,1.024.542,1.133.486.1.727-.12.966-.662L243.9,197a1.2,1.2,0,0,1,1.441-.837,1.119,1.119,0,0,1,.8.6,1.762,1.762,0,0,1,.095,1.179c-.2.911-.755,1.448-1.59,1.352l0-.611a.959.959,0,0,0,1.129-.852c.116-.542-.077-.963-.513-1.056-.419-.09-.694.083-.9.553l-.272.611c-.318.73-.757,1.1-1.5.941a1.219,1.219,0,0,1-.83-.6,1.769,1.769,0,0,1-.114-1.267A1.585,1.585,0,0,1,243.428,195.558Z" transform="translate(-241.587 -195.543)" fill="#122659"/>
        </g>
        <g id="Gruppe_379" data-name="Gruppe 379" transform="translate(15.71 43.198)">
          <path id="Pfad_392" data-name="Pfad 392" d="M237.649,208.239l1.369-.03.575-1.732-1.08-.843.194-.585,3.708,3.014-.186.561-4.774.2Zm2.366-1.436-.464,1.4,1.851-.042c.133,0,.252,0,.356.006l0-.012c-.088-.056-.183-.127-.289-.209Z" transform="translate(-237.455 -205.049)" fill="#122659"/>
        </g>
        <g id="Gruppe_380" data-name="Gruppe 380" transform="translate(14.006 47.698)">
          <path id="Pfad_393" data-name="Pfad 393" d="M233.137,219.555l2.144-.226.376-.824-1.69-.77.248-.544,4.066,1.854-.687,1.506c-.486,1.065-1.209,1.074-1.8.8a1.2,1.2,0,0,1-.693-1.423l-2.239.238Zm4.438-.176-1.46-.666-.41.9c-.254.555-.141.946.346,1.168s.861.054,1.114-.5Z" transform="translate(-232.858 -217.19)" fill="#122659"/>
        </g>
        <g id="Gruppe_381" data-name="Gruppe 381" transform="translate(12.213 51.873)">
          <path id="Pfad_394" data-name="Pfad 394" d="M230.553,228.647l-.253.555a1.124,1.124,0,0,0-1.522.457c-.3.466-.332.969.107,1.252.418.269.723.144,1.137-.278l.462-.473a1.2,1.2,0,0,1,1.644-.274,1.12,1.12,0,0,1,.539.849,1.763,1.763,0,0,1-.328,1.136,1.448,1.448,0,0,1-1.965.7l.218-.57a.961.961,0,0,0,1.357-.4c.3-.466.268-.928-.108-1.17-.36-.232-.678-.168-1.041.2l-.471.475c-.555.571-1.1.761-1.731.352a1.219,1.219,0,0,1-.563-.857,1.764,1.764,0,0,1,.34-1.226A1.584,1.584,0,0,1,230.553,228.647Z" transform="translate(-228.02 -228.453)" fill="#122659"/>
        </g>
        <g id="Gruppe_382" data-name="Gruppe 382" transform="translate(10.263 55.718)">
          <path id="Pfad_395" data-name="Pfad 395" d="M225.333,243.2l-.39-.318.887-1.087-3.071-2.508.378-.463,3.071,2.508.887-1.087.39.318Z" transform="translate(-222.759 -238.827)" fill="#122659"/>
        </g>
        <g id="Gruppe_383" data-name="Gruppe 383" transform="translate(6.822 57.856)">
          <path id="Pfad_396" data-name="Pfad 396" d="M215.421,245.371l-1.595,1.538-.35-.362,2.025-1.953,3.1,3.216-1.993,1.922-.35-.363,1.563-1.507-.987-1.024-1.486,1.433L215,247.91l1.486-1.433Z" transform="translate(-213.477 -244.594)" fill="#122659"/>
        </g>
        <g id="Gruppe_384" data-name="Gruppe 384" transform="translate(3.83 60.602)">
          <path id="Pfad_397" data-name="Pfad 397" d="M207.455,252l2.667,3.586-1.177.875a2.034,2.034,0,0,1-1.6.43,2.54,2.54,0,0,1-1.927-2.591,2.012,2.012,0,0,1,.872-1.433Zm-.179.761-.676.5a1.35,1.35,0,0,0-.592,1.06,2.132,2.132,0,0,0,1.479,2,1.344,1.344,0,0,0,1.169-.274l.687-.511Z" transform="translate(-205.404 -252.002)" fill="#122659"/>
        </g>
        <g id="Gruppe_385" data-name="Gruppe 385" transform="translate(0.808 63.555)">
          <path id="Pfad_398" data-name="Pfad 398" d="M197.942,264.863l-.22-.453,1.262-.613-1.733-3.566.538-.261,1.733,3.566,1.263-.613.22.453Z" transform="translate(-197.251 -259.969)" fill="#122659"/>
        </g>
      </g>
      <g id="Gruppe_407" data-name="Gruppe 407" transform="translate(0 0.017)">
        <g id="Gruppe_387" data-name="Gruppe 387" transform="translate(18.03 62.673)">
          <path id="Pfad_399" data-name="Pfad 399" d="M170.035,259.138l-1.945-1.062.241-.442,2.469,1.348-2.141,3.922-2.431-1.327.241-.442,1.906,1.04.682-1.248-1.812-.989.241-.442,1.812.989Z" transform="translate(-166.229 -257.635)" fill="#122659"/>
        </g>
        <g id="Gruppe_388" data-name="Gruppe 388" transform="translate(14.046 61.178)">
          <path id="Pfad_400" data-name="Pfad 400" d="M159.807,253.967l-1.216,4.57-.522-.352.95-3.322a4.019,4.019,0,0,1,.2-.593l-.021-.014a4.007,4.007,0,0,1-.474.41L156,256.791l-.522-.352,3.783-2.838Z" transform="translate(-155.482 -253.601)" fill="#122659"/>
        </g>
        <g id="Gruppe_389" data-name="Gruppe 389" transform="translate(15.755 59.893)">
          <path id="Pfad_401" data-name="Pfad 401" d="M160.094,250.711l.468-.576.571.464-.468.576Z" transform="translate(-160.094 -250.135)" fill="#122659"/>
        </g>
        <g id="Gruppe_390" data-name="Gruppe 390" transform="translate(11.045 56.574)">
          <path id="Pfad_402" data-name="Pfad 402" d="M151.025,243.105,147.8,246.2l-.413-.432,2.863-2.743-1.428-1.491.364-.348Z" transform="translate(-147.385 -241.183)" fill="#122659"/>
        </g>
        <g id="Gruppe_391" data-name="Gruppe 391" transform="translate(6.92 54.042)">
          <path id="Pfad_403" data-name="Pfad 403" d="M138.331,239.231l-.361-.477,2.289-1.731a1.122,1.122,0,1,0-1.351-1.787l-2.29,1.731-.36-.477,2.319-1.753a1.719,1.719,0,0,1,2.072,2.741Z" transform="translate(-136.259 -234.35)" fill="#122659"/>
        </g>
        <g id="Gruppe_392" data-name="Gruppe 392" transform="translate(4.679 51.405)">
          <path id="Pfad_404" data-name="Pfad 404" d="M130.212,228.313l.433-.257.717,1.207,3.408-2.026.305.514-3.408,2.026.717,1.207-.433.257Z" transform="translate(-130.212 -227.236)" fill="#122659"/>
        </g>
        <g id="Gruppe_393" data-name="Gruppe 393" transform="translate(2.828 46.653)">
          <path id="Pfad_405" data-name="Pfad 405" d="M125.218,216.272l4.065-1.856.248.544-1.849.844.936,2.05,1.849-.844.248.544-4.065,1.856-.248-.544,1.757-.8-.936-2.05-1.758.8Z" transform="translate(-125.218 -214.416)" fill="#122659"/>
        </g>
        <g id="Gruppe_394" data-name="Gruppe 394" transform="translate(5.643 45.047)">
          <path id="Pfad_406" data-name="Pfad 406" d="M132.813,210.344l.7-.259.257.69-.7.259Z" transform="translate(-132.813 -210.085)" fill="#122659"/>
        </g>
        <g id="Gruppe_395" data-name="Gruppe 395" transform="translate(0.583 39.58)">
          <path id="Pfad_407" data-name="Pfad 407" d="M123.649,196.02l-1.89,1.932.853.493,1.489-.32.126.585-4.369.939-.126-.585,2.166-.465-2.578-1.455-.158-.732,2.048,1.2.044.029,2.247-2.3Z" transform="translate(-119.162 -195.337)" fill="#122659"/>
        </g>
        <g id="Gruppe_396" data-name="Gruppe 396" transform="translate(0.296 38.069)">
          <path id="Pfad_408" data-name="Pfad 408" d="M122.814,191.26l.082.592-4.427.609-.082-.592Z" transform="translate(-118.387 -191.26)" fill="#122659"/>
        </g>
        <g id="Gruppe_397" data-name="Gruppe 397" transform="translate(0 33.287)">
          <path id="Pfad_409" data-name="Pfad 409" d="M122.038,179.033l-1.834,1.132.018.906,1.856-.037.012.6-4.468.09-.033-1.655c-.023-1.17.625-1.492,1.279-1.5a1.2,1.2,0,0,1,1.241.982l1.915-1.184Zm-3.924,2.081,1.6-.032-.02-.988c-.012-.61-.282-.913-.817-.9s-.8.324-.787.935Z" transform="translate(-117.589 -178.36)" fill="#122659"/>
        </g>
        <g id="Gruppe_398" data-name="Gruppe 398" transform="translate(0.054 28.475)">
          <path id="Pfad_410" data-name="Pfad 410" d="M121.6,168.886a2.659,2.659,0,0,1-1.735.347,2.56,2.56,0,0,1-1.633-.692,1.855,1.855,0,0,1-.485-1.559,1.641,1.641,0,0,1,1.733-1.606l0,.613a1.157,1.157,0,0,0-1.232,1.074,1.172,1.172,0,0,0,.39,1.05,2.177,2.177,0,0,0,1.28.493,2.2,2.2,0,0,0,1.351-.234,1.165,1.165,0,0,0,.614-.964,1.209,1.209,0,0,0-.965-1.309l.157-.566a1.716,1.716,0,0,1,1.328,1.927A1.773,1.773,0,0,1,121.6,168.886Z" transform="translate(-117.734 -165.376)" fill="#122659"/>
        </g>
        <g id="Gruppe_399" data-name="Gruppe 399" transform="translate(0.615 23.258)">
          <path id="Pfad_411" data-name="Pfad 411" d="M120.095,151.3l4.332,1.1-.147.579-1.971-.5-.553,2.184,1.971.5-.147.579-4.332-1.1.147-.58,1.873.474.553-2.184-1.873-.474Z" transform="translate(-119.248 -151.302)" fill="#122659"/>
        </g>
        <g id="Gruppe_400" data-name="Gruppe 400" transform="translate(2.001 18.881)">
          <path id="Pfad_412" data-name="Pfad 412" d="M126.912,142.912l.773-2.076.472.176-.981,2.637-4.188-1.559.966-2.6.472.176-.757,2.035,1.333.5.72-1.935.472.176-.72,1.935Z" transform="translate(-122.988 -139.494)" fill="#122659"/>
        </g>
        <g id="Gruppe_401" data-name="Gruppe 401" transform="translate(3.617 14.325)">
          <path id="Pfad_413" data-name="Pfad 413" d="M131.345,132.263l-4-2,.324-.648,3.758-.239a3.513,3.513,0,0,1,.636.008l.006-.011c-.146-.059-.329-.143-.537-.248l-2.894-1.447.239-.479,4,2-.324.647-3.758.239a3.769,3.769,0,0,1-.636-.008l-.006.011c.146.059.329.143.537.248l2.893,1.446Z" transform="translate(-127.348 -127.203)" fill="#122659"/>
        </g>
        <g id="Gruppe_402" data-name="Gruppe 402" transform="translate(6.209 9.876)">
          <path id="Pfad_414" data-name="Pfad 414" d="M139.579,118.218l-2.7-.066.221.96,1.249.871-.342.49-3.665-2.557.342-.49,1.817,1.268-.693-2.878.428-.614.517,2.317.009.053,3.218.073Z" transform="translate(-134.341 -115.201)" fill="#122659"/>
        </g>
        <g id="Gruppe_403" data-name="Gruppe 403" transform="translate(9.103 6.802)">
          <path id="Pfad_415" data-name="Pfad 415" d="M147.217,109.773l-2.117-.408-.6.679,1.392,1.229-.4.448-3.349-2.958,1.1-1.241a1.246,1.246,0,0,1,1.96-.242,1.2,1.2,0,0,1,.248,1.563l2.211.425Zm-4.3-1.125,1.2,1.063.654-.741c.4-.457.41-.864.009-1.218s-.808-.3-1.212.155Z" transform="translate(-142.147 -106.91)" fill="#122659"/>
        </g>
        <g id="Gruppe_404" data-name="Gruppe 404" transform="translate(12.565 3.258)">
          <path id="Pfad_416" data-name="Pfad 416" d="M154.455,101.793l1.718-1.4.318.39-2.182,1.776L151.488,99.1l2.148-1.748.318.391-1.684,1.371.9,1.1,1.6-1.3.318.39-1.6,1.3Z" transform="translate(-151.488 -97.347)" fill="#122659"/>
        </g>
        <g id="Gruppe_405" data-name="Gruppe 405" transform="translate(15.982 2.028)">
          <path id="Pfad_417" data-name="Pfad 417" d="M163.7,97.729l-.5.335-2.5-3.7.5-.335Z" transform="translate(-160.706 -94.028)" fill="#122659"/>
        </g>
        <g id="Gruppe_406" data-name="Gruppe 406" transform="translate(18.373)">
          <path id="Pfad_418" data-name="Pfad 418" d="M167.986,92.477l.5-.344a1.123,1.123,0,0,0,1.538.4c.5-.242.787-.655.559-1.125-.217-.447-.543-.5-1.116-.353l-.641.165a1.2,1.2,0,0,1-1.547-.62,1.121,1.121,0,0,1-.02-1.005,1.761,1.761,0,0,1,.87-.8,1.448,1.448,0,0,1,2.045.42l-.483.374a.96.96,0,0,0-1.367-.364c-.5.242-.711.654-.516,1.055.187.385.493.5.992.371l.649-.162c.771-.2,1.333-.08,1.662.6a1.219,1.219,0,0,1,.036,1.025,1.765,1.765,0,0,1-.927.871A1.585,1.585,0,0,1,167.986,92.477Z" transform="translate(-167.155 -88.558)" fill="#122659"/>
        </g>
      </g>
    </g>
    <g id="Gruppe_409" data-name="Gruppe 409" transform="translate(37.831 33.964)">
      <path id="Pfad_419" data-name="Pfad 419" d="M55.058,77.787c-2.914-4.509-5.826-9.31-8.74-14.565-1.427,2.083-2.854,4.13-4.281,6.123V81.127a33.317,33.317,0,0,1-4.147.242V46.861a33.428,33.428,0,0,0,4.147.264V63.886C46.02,58.071,50,51.847,53.988,45.618c1.62-.359,3.24-.758,4.861-1.169-3.212,5.016-6.422,10.136-9.632,15.146,3.553,5.962,7.105,11.338,10.658,16.414-1.605.609-3.211,1.21-4.816,1.778" transform="translate(-37.868 -40.562)" fill="#161615"/>
      <path id="Pfad_420" data-name="Pfad 420" d="M121.585,63.368c-2.914-4.626-5.826-9.1-8.74-13.579-1.427,2.044-2.854,4.16-4.281,6.328V66.854c-1.383.5-2.765,1.015-4.147,1.539V36.9c1.382-.355,2.764-.705,4.147-1.032V51.141A202.309,202.309,0,0,1,120.515,34a35.3,35.3,0,0,1,4.86.118,120.585,120.585,0,0,0-9.632,12.214c3.553,5.4,7.105,10.872,10.657,16.713a33.639,33.639,0,0,0-4.816.325" transform="translate(-79.735 -33.964)" fill="#161615"/>
      <path id="Pfad_421" data-name="Pfad 421" d="M58.255,139.109v32.016c-1.382.7-2.765,1.392-4.147,2.054V158.337A62.505,62.505,0,0,1,41.978,162.3v15.517a34.81,34.81,0,0,1-4.147.792V144.1a33.24,33.24,0,0,0,4.147-.286v14.752a61.759,61.759,0,0,0,12.129-3.8V140.656c1.382-.493,2.765-1.014,4.147-1.547" transform="translate(-37.831 -100.134)" fill="#161615"/>
      <path id="Pfad_422" data-name="Pfad 422" d="M103.63,154.768a6.053,6.053,0,0,1-3.824-4.942c1.338-.908,2.676-1.814,4.014-2.7a5.475,5.475,0,0,0,2.453,3.926c1.249.726,2.987.548,5.217-.375a12.475,12.475,0,0,0,4.609-3.232c2.634-3.127,1.715-5.425,1.434-6a2.54,2.54,0,0,0-1.249-1.245,4.841,4.841,0,0,0-1.561-.437,11.1,11.1,0,0,0-1.895.035c-1.412.137-2.825.321-4.236.536-5.2.821-7.8-.852-7.8-5.339a12.235,12.235,0,0,1,2.81-7.383,14.312,14.312,0,0,1,7.268-5.141c3.122-.962,5.678-.827,7.67.187s3.136,3.022,3.433,5.794A41.794,41.794,0,0,0,118,130.087c-.178-2.12-.914-3.547-2.207-4.211a6.173,6.173,0,0,0-4.794-.121,8.615,8.615,0,0,0-4.57,3.051,7.016,7.016,0,0,0-1.4,4.065,2.88,2.88,0,0,0,1.36,2.742,5.856,5.856,0,0,0,3.5.549c1.352-.165,2.705-.3,4.058-.38a13.886,13.886,0,0,1,3.122.132,8.278,8.278,0,0,1,2.563.913,4.435,4.435,0,0,1,1.918,2.107,8.11,8.11,0,0,1,.646,3.4c.055,8.864-12.951,14.625-18.562,12.431" transform="translate(-76.833 -89.248)" fill="#161615"/>
    </g>
  </g>
</svg>
