<svg xmlns="http://www.w3.org/2000/svg" width="150.241" height="82.847" viewBox="0 0 150.241 82.847">
  <g id="Gruppe_416" data-name="Gruppe 416" transform="translate(-14.213 -31.74)">
    <g id="Ebene_3" data-name="Ebene 3" transform="translate(14.213 31.74)">
      <g id="Gruppe_412" data-name="Gruppe 412" transform="translate(0 0)">
        <path id="Pfad_427" data-name="Pfad 427" d="M33.943,114.586a1.955,1.955,0,0,1-.255-.017c-1.084-.144-2.9-2.563-3.2-3.172a6.354,6.354,0,0,1-.466-2.56,5.709,5.709,0,0,0-.369-2.2,10.544,10.544,0,0,1-.386-1,14.31,14.31,0,0,0-.748-1.84,1.833,1.833,0,0,0-.312-.353,2.212,2.212,0,0,1-.558-.727A10.415,10.415,0,0,1,27.08,100a11.019,11.019,0,0,0-.593-2.832,9.782,9.782,0,0,1-.365-1.239,8.169,8.169,0,0,0-.385-1.267,3.952,3.952,0,0,0-.6-.881,4.834,4.834,0,0,1-.722-1.065c-.711-1.584-.8-3.863-.884-6.066-.045-1.174-.092-2.389-.233-3.469a21.656,21.656,0,0,1,.5-6.9c.024-.126.05-.248.075-.367a2.782,2.782,0,0,0,.089-1.2,4.359,4.359,0,0,1-2.008,2.505,2.213,2.213,0,0,1-1.605.032.813.813,0,0,1-.5.8l-.195.072-.178-.107c-1.142-.69-5.171-3.78-4.026-6.3l.171-.378.384.157a2.737,2.737,0,0,0,2.436.021.842.842,0,0,0,.335-.553,7.036,7.036,0,0,0-.7.11,2.659,2.659,0,0,1-2.527-.421,3.734,3.734,0,0,1-1.292-3.09,1.923,1.923,0,0,1,1.476-1.423,4.478,4.478,0,0,1,2.292.385,5.954,5.954,0,0,0,.623.183,17.776,17.776,0,0,0,2.324-.31c.328-.394-.513-1.573-1.024-2.288a6.5,6.5,0,0,1-.739-1.179,2.015,2.015,0,0,1-.013-1.284.905.905,0,0,0,.024-.623,1.167,1.167,0,0,0-.409-.265,1.317,1.317,0,0,1-.759-2,1.105,1.105,0,0,1,.6-.5,1.026,1.026,0,0,0,.326-.2,6.767,6.767,0,0,0,.542-.726c.477-.7,1.017-1.5,2.324-1.181.225.056.315.235.409.424a1.272,1.272,0,0,0,.252.387c.831.421,1.423-.166,2.4-1.238.3-.326.6-.664.937-.966a9.853,9.853,0,0,1,.945-.741,2.372,2.372,0,0,0,.8-.74.934.934,0,0,0,.091-.376,1.11,1.11,0,0,1,.392-.834,2.445,2.445,0,0,1,1.317-.5,1.54,1.54,0,0,0,.443-.1,1.866,1.866,0,0,0,.126-.494,2.382,2.382,0,0,1,.538-1.321A2.331,2.331,0,0,1,31.843,49a1.29,1.29,0,0,0,.32-.082c.035-.07.02-.129-.176-.417a1.347,1.347,0,0,1-.3-1.227,1.878,1.878,0,0,1,1.571-1.21c.188-.045.444-.107.485-.178.006-.011.055-.114-.044-.456a19.011,19.011,0,0,0-1.866-1.181c-1.094-.644-1.361-.812-1.474-.979a5.275,5.275,0,0,1-.059-4.43,5.312,5.312,0,0,1,.566-.757c.349-.412.558-.682.517-.946s-.334-.714-1.509-1.446c-.366-.228-1.479-.922-1.234-1.85.474-1.8,6.272-2.1,6.331-2.1.956-.042,1.283.121,1.532.751a1.975,1.975,0,0,0,.491.763,2.532,2.532,0,0,0,.868.455,2.987,2.987,0,0,1,1.375.852,1.5,1.5,0,0,1,.254.832,1.364,1.364,0,0,0,.037.261c.4.666,2.125.734,2.4.675l.088-.026c.878-.252,1.238-.368,1.386-.421.012-.028.024-.059.037-.091.122-.3.289-.711.691-.711.027,0,2.87.234,3.393,1.165.356.634-.173,3.331-1.322,4.067a1.41,1.41,0,0,0-.5.534,3.041,3.041,0,0,1-.538.671,1.015,1.015,0,0,1-.886.187l-.11-.014a.432.432,0,0,0-.192.279c-.064.387.432,1.036.794,1.511.5.66.98,1.284.523,1.786l-.051.048a2.239,2.239,0,0,0-.447.6c-.3.49-.7,1.161-1.585.972l-.075-.016-.065-.04a1.017,1.017,0,0,1-.465-.888,4.461,4.461,0,0,0,.369,2.407,2.518,2.518,0,0,0,.376.121,2.075,2.075,0,0,1,.662.26,1.239,1.239,0,0,1,.565.8c.025.1.028.116.15.192a.812.812,0,0,0,.4.023,1.483,1.483,0,0,1,.6.036,2.709,2.709,0,0,1,2.051,3.169.985.985,0,0,1-.472.551,1.546,1.546,0,0,0-.464.436c-.933,1.717-.722,1.853.452,2.609.2.131.428.275.667.442.2.142.453.327.737.537,1.535,1.139,4.387,3.254,6.008,2.723.031-.024.089-.082.133-.126a1.256,1.256,0,0,1,1.177-.489c.686.163,1.168.848,1.634,1.51a8.612,8.612,0,0,0,.517.689.952.952,0,0,0,.262-.094.945.945,0,0,1,.817-.085l.053.029c.757.486,5.293,1.505,5.852.757a4.661,4.661,0,0,0,.055-1.587c-.067-1.182-.13-2.3.553-2.705.584-.347,1.309.1,1.547.246.356.219.522.705.732,1.32.194.568.46,1.346.818,1.426a.991.991,0,0,0,.171-.121,2.449,2.449,0,0,1,1.23-.569,6.815,6.815,0,0,1,2.354.248,4.814,4.814,0,0,0,1.455.2,8.725,8.725,0,0,0,2.139-.892c.012-.125-.146-.3-.353-.516-.249-.258-.558-.579-.439-.993.125-.434.638-.616,1.173-.748a3.64,3.64,0,0,0,1.357-.8,7.447,7.447,0,0,1,.709-.522A4.35,4.35,0,0,1,79.667,56a1.708,1.708,0,0,0,.651-.3,1.758,1.758,0,0,0,.417-.711c.271-.741.619-1.018,2.075-.816a2.4,2.4,0,0,1,.763.273,1.244,1.244,0,0,0,.672.2,1.223,1.223,0,0,1,.494-.884,3.577,3.577,0,0,1,1.515-.573c.65.069,1.212,1.24,1.352,2.024a3.823,3.823,0,0,1,0,.889,3.917,3.917,0,0,0-.017.651c.123.063.386-.016.733-.134a1.631,1.631,0,0,1,1.748.1c.179.169.722.684-.276,3.191-.33.829-.43,1.007-.739,1.007l-.058,0a5.055,5.055,0,0,0-4.554,1.494,9.57,9.57,0,0,0-1.5,3.122,1.406,1.406,0,0,0,.117.694,2.252,2.252,0,0,1,.158,1.038,5.28,5.28,0,0,1-1.535,2.629,2.525,2.525,0,0,1-1.2.384c-.319.047-.715.106-.816.236a4.325,4.325,0,0,0-.063,1.9c.106,1.245.206,2.421-.531,2.891A1.218,1.218,0,0,1,78,75.479c-.789-.262-1.21-1.37-1.583-2.348a6.626,6.626,0,0,0-.473-1.073,5.421,5.421,0,0,0-.552.461c-.57.516-1.158,1.051-1.745.8-.553-.24-.636-1.027-.647-1.685a2.329,2.329,0,0,1,1.77-2.38c.75-.33,1.343-.591,1.451-1.649-.011-.13-.156-.172-.235-.185a7.621,7.621,0,0,0-1.889.349c-1.256.334-2.554.68-3.489-.012a2.485,2.485,0,0,1-.791-2.088,5.2,5.2,0,0,0-.118-1.028c-.742.435-1.442-.147-1.92-.543-.567-.471-.848-.657-1.157-.471a.755.755,0,0,0-.125,1.025,2.132,2.132,0,0,0,.362.156,1.561,1.561,0,0,1,1.276,1.674l-.028.289-.278.082c-.989.293-1.22.6-1.269.757-.107.342.338.9.7,1.341a3.878,3.878,0,0,1,.657,1,1.506,1.506,0,0,1-.036.83,1.7,1.7,0,0,0-.055.818c.062.188.155.417.254.66.43,1.061,1.019,2.515.3,3.519a4.747,4.747,0,0,1-1.762,1.045,1.334,1.334,0,0,1-1.07-.358c-.24-.187-.27-.212-.5-.076-.113.067-.291.158-.505.268-.658.337-2.027,1.039-2.248,1.553a1.6,1.6,0,0,0,.015.555,2.184,2.184,0,0,1-.105,1.266,5.3,5.3,0,0,1-2.927,2.241A7.716,7.716,0,0,0,56.541,84,23.858,23.858,0,0,1,52.618,87.3c-.824.6-1.6,1.158-2.31,1.782a3.927,3.927,0,0,0-.924,1.3,2.789,2.789,0,0,1-.929,1.2,4,4,0,0,1-1.463.531,3.561,3.561,0,0,0-1.412.531,3.3,3.3,0,0,1-1.339.444,2.8,2.8,0,0,0-.386.08c-.824.748-.633,2.231-.432,3.8a8.789,8.789,0,0,1-.06,3.909,5.1,5.1,0,0,1-.688,1.156A5.248,5.248,0,0,0,41.659,104a6.614,6.614,0,0,0,.013,1.608,3.568,3.568,0,0,1-.122,1.848,1.51,1.51,0,0,1-.82.649,2.819,2.819,0,0,0-.81.5,3.429,3.429,0,0,0-.789,1.487,3.492,3.492,0,0,1-.49,1.069,3.047,3.047,0,0,1-1.066.775,3.61,3.61,0,0,0-.895.584,8.765,8.765,0,0,0-.637.7A2.908,2.908,0,0,1,33.943,114.586ZM23.755,72.748l.485.639a2.854,2.854,0,0,1,.468,2.7c-.024.113-.049.228-.071.347a20.668,20.668,0,0,0-.489,6.632c.146,1.118.194,2.352.24,3.546a17.258,17.258,0,0,0,.809,5.747,4.111,4.111,0,0,0,.6.872,4.634,4.634,0,0,1,.728,1.086,8.952,8.952,0,0,1,.43,1.4,9.045,9.045,0,0,0,.331,1.131,11.687,11.687,0,0,1,.647,3.047,9.626,9.626,0,0,0,.513,2.5,1.608,1.608,0,0,0,.36.432,2.384,2.384,0,0,1,.471.567,14.987,14.987,0,0,1,.8,1.956c.134.381.251.711.348.909a6.4,6.4,0,0,1,.456,2.539,5.662,5.662,0,0,0,.376,2.214c.347.7,1.973,2.626,2.543,2.7.592.079.987-.349,1.583-1.053a9.4,9.4,0,0,1,.7-.77,4.42,4.42,0,0,1,1.092-.724,2.326,2.326,0,0,0,.79-.549,3.045,3.045,0,0,0,.345-.8,4.146,4.146,0,0,1,1.027-1.85,3.683,3.683,0,0,1,1.033-.645c.261-.118.364-.171.413-.266a3.566,3.566,0,0,0,.026-1.373,7.322,7.322,0,0,1,0-1.831,5.979,5.979,0,0,1,1.161-2.316,4.767,4.767,0,0,0,.578-.943,8.22,8.22,0,0,0,.019-3.515c-.223-1.734-.453-3.526.734-4.571a1.559,1.559,0,0,1,.8-.268,2.606,2.606,0,0,0,1-.305,4.375,4.375,0,0,1,1.719-.662,3.224,3.224,0,0,0,1.174-.412,2.065,2.065,0,0,0,.628-.867,4.759,4.759,0,0,1,1.122-1.553c.739-.651,1.534-1.226,2.375-1.834A23.2,23.2,0,0,0,55.9,83.419a8.508,8.508,0,0,1,3.014-1.94,4.614,4.614,0,0,0,2.512-1.844,1.55,1.55,0,0,0,.019-.773,1.934,1.934,0,0,1,.049-1c.317-.738,1.481-1.382,2.646-1.98.2-.1.357-.183.461-.244a1.15,1.15,0,0,1,1.468.14c.2.153.276.2.417.184a4.876,4.876,0,0,0,1.208-.728c.4-.626-.075-1.8-.423-2.659-.1-.256-.2-.5-.273-.713a2.361,2.361,0,0,1,.032-1.276,1.929,1.929,0,0,0,.061-.37,3.761,3.761,0,0,0-.513-.73c-.486-.6-1.09-1.357-.846-2.137.162-.518.663-.92,1.529-1.223-.06-.245-.281-.354-.709-.514a1.408,1.408,0,0,1-.809-.535,1.611,1.611,0,0,1,.427-2.189c.866-.525,1.61.093,2.153.544.63.523.8.589,1.026.4,0,0,.007-.016.02-.033a.6.6,0,0,1,.485-.313c.363,0,.477.356.515.473.005.018.011.035.016.05a4.561,4.561,0,0,1,.286,1.62c.035.714.075,1.165.443,1.438.6.446,1.7.154,2.755-.128a8.063,8.063,0,0,1,2.16-.377l.034,0a1.087,1.087,0,0,1,1.013,1.058l0,.04a2.67,2.67,0,0,1-1.964,2.382c-.766.336-1.272.559-1.255,1.577a2.106,2.106,0,0,0,.132.894,3.717,3.717,0,0,0,.82-.628c.484-.439.867-.785,1.286-.711.529.093.778.748,1.123,1.654.258.678.648,1.7,1.048,1.836.036.012.133.045.335-.084.3-.19.2-1.334.136-2.091a3.959,3.959,0,0,1,.239-2.5,2.013,2.013,0,0,1,1.373-.562,2.1,2.1,0,0,0,.8-.211,4.5,4.5,0,0,0,1.211-2.071,1.542,1.542,0,0,0-.124-.649,2.11,2.11,0,0,1-.14-1.146,10.367,10.367,0,0,1,1.7-3.511,5.839,5.839,0,0,1,5.017-1.808c.339-.718.878-2.385.657-2.685-.147-.138-.429-.057-.876.094-.515.175-1.157.391-1.648-.094-.28-.278-.244-.753-.2-1.3a3.49,3.49,0,0,0,.014-.672,2.618,2.618,0,0,0-.628-1.315,4.19,4.19,0,0,0-.924.436c-.067.043-.1.239-.119.356a.64.64,0,0,1-.4.593,1.873,1.873,0,0,1-1.5-.217,1.649,1.649,0,0,0-.5-.19c-1-.139-1.03-.063-1.148.259a2.587,2.587,0,0,1-.611,1.018,2.315,2.315,0,0,1-1,.515,3.613,3.613,0,0,0-.819.342,6.66,6.66,0,0,0-.624.462,4.418,4.418,0,0,1-1.688.964,2.862,2.862,0,0,0-.468.15c.047.053.1.111.148.157a1.391,1.391,0,0,1,.531,1.453c-.267.7-2.7,1.383-2.728,1.389a4.644,4.644,0,0,1-1.848-.19A6.33,6.33,0,0,0,70.4,61.3a1.6,1.6,0,0,0-.835.393,1.007,1.007,0,0,1-.9.288C67.844,61.8,67.5,60.8,67.227,60a3.288,3.288,0,0,0-.374-.87c-.5-.307-.648-.236-.649-.235-.235.14-.167,1.34-.134,1.916a3.669,3.669,0,0,1-.225,2.151c-1.058,1.416-6-.05-6.91-.494-.041.014-.1.042-.147.062a1.173,1.173,0,0,1-1.043.076l-.07-.034-.054-.057a7.845,7.845,0,0,1-.673-.87c-.356-.506-.76-1.08-1.128-1.168-.087-.02-.257.149-.37.261a1.2,1.2,0,0,1-.437.322c-2.047.71-5.038-1.511-6.825-2.838-.276-.2-.518-.384-.716-.522-.23-.16-.445-.3-.641-.425-1.353-.871-2-1.433-.742-3.745a2.262,2.262,0,0,1,.717-.724c.048-.035.109-.078.148-.11a1.861,1.861,0,0,0-1.5-2.094,1.253,1.253,0,0,0-.256.005,1.45,1.45,0,0,1-.925-.152,1.043,1.043,0,0,1-.529-.721c-.027-.112-.04-.168-.229-.3a2,2,0,0,0-.384-.128,1.448,1.448,0,0,1-.84-.428c-.2-.269-.948-2.312-.425-3.379a1.192,1.192,0,0,1,1.083-.681l.277-.009.123.249a1.535,1.535,0,0,1,.119.7.928.928,0,0,0,.026.306h0c.175,0,.293-.135.565-.586a3.383,3.383,0,0,1,.533-.726,5.05,5.05,0,0,0-.5-.738,3.17,3.17,0,0,1-.96-2.175,1.321,1.321,0,0,1,.614-.891.905.905,0,0,1,.658-.087,1.171,1.171,0,0,0,.2.018,2.224,2.224,0,0,0,.378-.483,2.253,2.253,0,0,1,.763-.8c.742-.476,1.144-2.573,1.025-2.943a6.388,6.388,0,0,0-2.458-.688c-.025.055-.05.117-.067.159a.875.875,0,0,1-.326.484,10.364,10.364,0,0,1-1.657.532l-.086.024c-.335.121-2.669.136-3.387-1.065a1.413,1.413,0,0,1-.153-.622,1.014,1.014,0,0,0-.074-.377,2.292,2.292,0,0,0-1.006-.579,3.158,3.158,0,0,1-1.171-.653,2.816,2.816,0,0,1-.68-1.053,1.067,1.067,0,0,0-.077-.171,1.524,1.524,0,0,0-.617-.036c-1.788.076-5.335.7-5.534,1.459-.038.145.163.468.857.9,1.214.756,1.8,1.386,1.9,2.043a2.08,2.08,0,0,1-.71,1.636,4.68,4.68,0,0,0-.479.633,4.568,4.568,0,0,0,.009,3.485c.146.118.738.466,1.217.748,1.783,1.05,2.137,1.3,2.231,1.6a1.473,1.473,0,0,1-.009,1.2,1.443,1.443,0,0,1-1.034.591c-.5.119-.81.214-.955.646-.038.113.029.23.192.469a1.192,1.192,0,0,1,.213,1.319,1.151,1.151,0,0,1-.916.511,1.482,1.482,0,0,0-.9.4,1.712,1.712,0,0,0-.3.867,1.717,1.717,0,0,1-.362.951,1.555,1.555,0,0,1-.927.349,1.716,1.716,0,0,0-.883.3c-.074.064-.078.085-.1.263a1.763,1.763,0,0,1-.181.684,3.029,3.029,0,0,1-1.063,1.051,9.065,9.065,0,0,0-.867.678c-.3.274-.595.6-.878.906-.923,1.015-1.969,2.165-3.426,1.427a1.613,1.613,0,0,1-.633-.771l0-.005c-.568-.092-.782.175-1.247.861a7.531,7.531,0,0,1-.612.816,1.746,1.746,0,0,1-.6.408,1.077,1.077,0,0,0-.2.107c-.25.537-.118.6.373.848a1.587,1.587,0,0,1,.795.651,1.669,1.669,0,0,1,.044,1.206,1.225,1.225,0,0,0-.023.772,6.453,6.453,0,0,0,.638.993c.8,1.123,1.9,2.662.806,3.512l-.037.026a12.934,12.934,0,0,1-2.857.417,4.625,4.625,0,0,1-.8-.221,5.259,5.259,0,0,0-1.773-.381c-.517.158-.807.415-.887.783a2.949,2.949,0,0,0,1.021,2.263c.5.441,1.006.371,1.794.22a4.835,4.835,0,0,1,1.333-.126l.359.03.034.359a1.794,1.794,0,0,1-.691,1.719,3.272,3.272,0,0,1-2.827.244C15.927,73.956,18.115,76.037,19.5,77a.759.759,0,0,1,.577-.7l.15-.039.141.066a1.482,1.482,0,0,0,1.247.092c1.009-.425,1.618-2.17,1.878-2.915ZM75.885,72ZM54.7,60.261Zm31.4-6.234ZM33.73,45.462Z" transform="translate(-14.213 -31.74)" fill="#40a52b"/>
      </g>
    </g>
    <g id="Ebene_4" data-name="Ebene 4" transform="translate(33.184 79.481)">
      <g id="Gruppe_413" data-name="Gruppe 413" transform="translate(30.643 0)">
        <path id="Pfad_428" data-name="Pfad 428" d="M203.575,218.782c-4.408-5.191-9.685-10.758-14.644-16.036-.029,1.073-.087,2.813-.087,5.887,0,2.494.116,8.612.261,9.772a3.912,3.912,0,0,0-1.015-.145,4.774,4.774,0,0,0-1.073.145c.232-1.363.609-8.786.609-12.614,0-3.654,0-6.467-.087-7.772H188c4.727,5.132,11.135,12.121,14.673,15.688,0-5.191,0-10.845-.232-15.311a3.861,3.861,0,0,0,.986.145,3.436,3.436,0,0,0,.928-.145c-.174,1.711-.464,7.452-.464,9.714,0,2.958.058,9.366.087,10.671Z" transform="translate(-187.017 -198.02)" fill="#1a171b"/>
        <path id="Pfad_429" data-name="Pfad 429" d="M266.032,198.02c2.842,6.727,7.192,17.283,8.729,20.385a8.236,8.236,0,0,0-3.074,0c-.551-2-1.943-5.19-2.987-7.771-1.247-.029-2.523-.058-3.8-.058-1.189,0-2.349.029-3.538.058a78.281,78.281,0,0,0-2.813,7.771,4.05,4.05,0,0,0-2.146,0c3.1-6.785,6.119-13.542,9.076-20.385Zm-.957,3.914-3.161,7.366c1.015,0,2.117.058,3.132.058,1.073,0,2.175-.029,3.247-.058Z" transform="translate(-236.483 -198.02)" fill="#1a171b"/>
        <path id="Pfad_430" data-name="Pfad 430" d="M330.208,198.02c2.639,5.452,5.365,10.555,8.322,15.978,1.16-2.262,5.771-10.613,8.612-15.978h.377c.87,7.424,1.45,13.745,2.378,20.385a6.491,6.491,0,0,0-2.726,0c-.406-5.19-.812-10-1.421-14.963h-.058c-2.639,4.843-5.307,9.6-7.6,14.818h-.261c-2.261-4.814-4.929-9.8-7.452-14.818h-.058c-.551,4.785-1.363,11.686-1.392,14.963a3.633,3.633,0,0,0-2.03,0c1.015-6.408,2.175-14.238,2.813-20.385Z" transform="translate(-286.739 -198.02)" fill="#1a171b"/>
        <path id="Pfad_431" data-name="Pfad 431" d="M421.165,206.843c0-2.494-.116-5.016-.232-7.51.928.087,1.885.145,2.813.145s2.784-.145,3.6-.145c1.74,0,6.351.058,6.351,4.9,0,5.1-5.017,6.09-7.8,6.09-.87,0-1.595-.029-2.349-.087v1.595c0,2.494.116,5.017.232,7.51a7.047,7.047,0,0,0-2.841,0c.116-2.494.232-5.016.232-7.51Zm2.378,2.175a9.744,9.744,0,0,0,2.059.232c2.378,0,5.423-.9,5.423-4.842,0-3.306-1.885-4-4.872-4h-2.61Z" transform="translate(-353.773 -198.956)" fill="#1a171b"/>
        <path id="Pfad_432" data-name="Pfad 432" d="M492.543,199.333a5.337,5.337,0,0,0,1.189.145,2.88,2.88,0,0,0,.87-.145c-.232,2.7-.464,7.8-.522,12.034-.058,5.133-3.045,8.351-8.264,8.351-5.742,0-8.293-2.668-8.293-8.293,0-1.8.145-3.132.145-4.582,0-3.19-.116-5.829-.174-7.51a8.845,8.845,0,0,0,1.508.145,5.87,5.87,0,0,0,1.247-.145c-.174,1.711-.348,5.654-.348,9.946,0,3.943,0,9.076,6.466,9.076,6.351,0,6.351-5.945,6.351-9.6C492.717,203.248,492.717,200.464,492.543,199.333Z" transform="translate(-394.094 -198.956)" fill="#1a171b"/>
      </g>
      <g id="Gruppe_414" data-name="Gruppe 414" transform="translate(30.851 26.312)">
        <path id="Pfad_433" data-name="Pfad 433" d="M192.556,294.428c0-.815-.038-1.639-.076-2.454a2.3,2.3,0,0,0,.929,0c-.038.815-.076,1.639-.076,2.454v1.63c0,.815.038,1.639.076,2.454a2.3,2.3,0,0,0-.929,0c.038-.815.076-1.639.076-2.454v-.853c-.663-.009-1.317-.019-1.98-.019s-1.317.009-1.98.019v.853c0,.815.038,1.639.076,2.454a2.3,2.3,0,0,0-.929,0c.038-.815.076-1.639.076-2.454v-1.63c0-.815-.038-1.639-.076-2.454a2.3,2.3,0,0,0,.929,0c-.038.815-.076,1.639-.076,2.454v.332c.663.009,1.317.028,1.98.028s1.317-.019,1.98-.028Z" transform="translate(-187.742 -291.31)" fill="#1a171b"/>
        <path id="Pfad_434" data-name="Pfad 434" d="M213.833,291.545a.483.483,0,1,1-.483.483A.485.485,0,0,1,213.833,291.545Zm-.351,3.9c0-.569-.019-1.232-.076-1.772a1.943,1.943,0,0,0,.853,0c-.057.54-.076,1.2-.076,1.772v.985c0,.569.019,1.232.076,1.772a1.943,1.943,0,0,0-.853,0c.057-.54.076-1.2.076-1.772Z" transform="translate(-205.998 -291.005)" fill="#1a171b"/>
        <path id="Pfad_435" data-name="Pfad 435" d="M222.8,292.492c0-.872-.019-2.094-.076-2.729a1.941,1.941,0,0,0,.853,0c-.057.635-.076,1.857-.076,2.729v1.715c0,.872.019,2.094.076,2.729a1.943,1.943,0,0,0-.853,0c.057-.635.076-1.857.076-2.729Z" transform="translate(-212.679 -289.734)" fill="#1a171b"/>
        <path id="Pfad_436" data-name="Pfad 436" d="M231.922,290.478a.979.979,0,0,0-.521-.142c-.559,0-.777.455-.777.948a10.206,10.206,0,0,0,.114,1.109c.322,0,.654-.009.976-.009a1.424,1.424,0,0,0-.019.19,1.166,1.166,0,0,0,.019.189c-.322-.009-.654-.028-.976-.028,0,1.374,0,2.738.038,4.132a1.992,1.992,0,0,0-.407-.047,2.164,2.164,0,0,0-.417.047c.085-1.393.085-2.748.085-4.132-.227,0-.455.019-.682.028a1.136,1.136,0,0,0,.019-.189,1.38,1.38,0,0,0-.019-.19c.227,0,.465.009.682.009a3.684,3.684,0,0,1,.824-2.293,1.481,1.481,0,0,1,.967-.436.647.647,0,0,1,.19.029c-.009.256-.038.512-.038.758Z" transform="translate(-217.407 -289.663)" fill="#1a171b"/>
        <path id="Pfad_437" data-name="Pfad 437" d="M241.293,298.641a1.817,1.817,0,0,1,1.962,1.933c0,.123-.01.246-.019.37-.682-.009-1.355-.029-2.028-.029-.417,0-.824.019-1.241.029a2.572,2.572,0,0,0-.009.265,1.6,1.6,0,0,0,1.639,1.753,2.061,2.061,0,0,0,1.421-.672l.047.028-.057.464a2.716,2.716,0,0,1-1.582.578,2.191,2.191,0,0,1-2.3-2.227C239.123,299.6,239.9,298.641,241.293,298.641Zm-1.308,1.942c.388.009.834.029,1.232.029.417,0,.862-.019,1.26-.029,0-.673-.18-1.639-1.165-1.639C240.383,298.944,240.033,299.9,239.985,300.583Z" transform="translate(-224.371 -296.063)" fill="#1a171b"/>
        <path id="Pfad_438" data-name="Pfad 438" d="M266.771,290.478a.978.978,0,0,0-.521-.142c-.559,0-.777.455-.777.948a10.2,10.2,0,0,0,.114,1.109c.322,0,.654-.009.976-.009a1.422,1.422,0,0,0-.019.19,1.165,1.165,0,0,0,.019.189c-.322-.009-.654-.028-.976-.028,0,1.374,0,2.738.038,4.132a1.992,1.992,0,0,0-.407-.047,2.164,2.164,0,0,0-.417.047c.085-1.393.085-2.748.085-4.132-.227,0-.455.019-.682.028a1.168,1.168,0,0,0,.019-.189,1.427,1.427,0,0,0-.019-.19c.227,0,.464.009.682.009a3.684,3.684,0,0,1,.824-2.293,1.481,1.481,0,0,1,.967-.436.647.647,0,0,1,.189.029c-.009.256-.038.512-.038.758Z" transform="translate(-242.25 -289.663)" fill="#1a171b"/>
        <path id="Pfad_439" data-name="Pfad 439" d="M275.352,295.419c0-.446-.009-.976-.019-1.507a2,2,0,0,0,.4.047,1.91,1.91,0,0,0,.388-.047c-.057.739-.095,1.706-.095,2.634a1.645,1.645,0,0,0,.294,1.147,1.06,1.06,0,0,0,.815.351,1.106,1.106,0,0,0,1.052-.606c.189-.408.2-.483.2-1.971,0-.512,0-1.1-.019-1.554a1.85,1.85,0,0,0,.4.047,1.7,1.7,0,0,0,.388-.047c-.057.985-.066,1.876-.066,2.881,0,.559.009,1.118.038,1.649a1.465,1.465,0,0,0-.739,0c.019-.275.019-.549.019-.815h-.019a1.678,1.678,0,0,1-1.478.91,1.438,1.438,0,0,1-1.582-1.554C275.324,296.319,275.352,295.883,275.352,295.419Zm.957-3.544a.483.483,0,1,1-.483.483A.485.485,0,0,1,276.309,291.875Zm1.867,0a.483.483,0,1,1-.483.483A.485.485,0,0,1,278.176,291.875Z" transform="translate(-250.178 -291.24)" fill="#1a171b"/>
        <path id="Pfad_440" data-name="Pfad 440" d="M295.842,299.513a.727.727,0,0,0-.464-.152c-.607,0-.967.578-.967,1.317,0,1.649,0,2.151.038,2.587a1.728,1.728,0,0,0-.379-.047,1.978,1.978,0,0,0-.4.047c.038-.464.038-1.2.038-2.265v-.3c0-.493,0-1.146-.038-1.962a2,2,0,0,0,.4.047,1.748,1.748,0,0,0,.379-.047,7.574,7.574,0,0,0-.047.919l.019.009c.36-.682.815-1.023,1.251-1.023a.714.714,0,0,1,.3.057,2.626,2.626,0,0,0-.066.767Z" transform="translate(-263.258 -296.063)" fill="#1a171b"/>
        <path id="Pfad_441" data-name="Pfad 441" d="M311.6,294.428q0-.981-.029-1.962a18.906,18.906,0,0,0-2.028.1,1.068,1.068,0,0,0,.047-.3,1.115,1.115,0,0,0-.047-.294c.815.028,1.63.047,2.445.047s1.63-.019,2.445-.047a1.135,1.135,0,0,0-.047.3,1.069,1.069,0,0,0,.047.294,18.912,18.912,0,0,0-2.028-.1q-.028.981-.028,1.962v1.63c0,.815.038,1.639.076,2.454a2.3,2.3,0,0,0-.929,0c.038-.815.076-1.639.076-2.454Z" transform="translate(-274.574 -291.31)" fill="#1a171b"/>
        <path id="Pfad_442" data-name="Pfad 442" d="M325.735,299.191a2.365,2.365,0,0,1,1.526-.55,1.4,1.4,0,0,1,1.535,1.4c0,.711-.038,1.412-.038,2.208,0,.313,0,.7.37.7a.387.387,0,0,0,.2-.038v.209a1.6,1.6,0,0,1-.606.133.619.619,0,0,1-.654-.587,1.915,1.915,0,0,1-1.488.692,1.2,1.2,0,0,1-1.261-1.165c0-.758.512-1.166,1.337-1.3,1.374-.218,1.421-.294,1.421-.663,0-.635-.284-1.194-1.042-1.194a1.334,1.334,0,0,0-1.194.644h-.1Zm2.341,1.687c-.654.218-1.981.152-1.981,1.185a.827.827,0,0,0,.824.9,1.37,1.37,0,0,0,1.118-.663Z" transform="translate(-285.818 -296.063)" fill="#1a171b"/>
        <path id="Pfad_443" data-name="Pfad 443" d="M342.819,300.508c0-.569-.019-1.232-.076-1.772a1.731,1.731,0,0,0,.806,0c-.019.256-.029.5-.029.758h.019a1.552,1.552,0,0,1,1.412-.853,1.391,1.391,0,0,1,1.374.938h.019a1.639,1.639,0,0,1,1.526-.938,1.33,1.33,0,0,1,1.45,1.5c0,.436-.057.976-.057,2.094,0,.341,0,.635.028,1.033a1.914,1.914,0,0,0-.407-.047,2.006,2.006,0,0,0-.417.047c.038-.351.095-1.3.095-2.995,0-.635-.246-1.137-.995-1.137a1.141,1.141,0,0,0-.948.445c-.2.284-.228.379-.228,2.179,0,.55.019.919.048,1.507a1.857,1.857,0,0,0-.834,0c.057-.711.085-1.459.085-2.151,0-1.175-.009-1.251-.171-1.545a.97.97,0,0,0-.787-.436c-.815,0-1.213.568-1.213,1.554v.806c0,.569.019,1.232.076,1.772a1.941,1.941,0,0,0-.853,0c.057-.54.076-1.2.076-1.772Z" transform="translate(-298.241 -296.063)" fill="#1a171b"/>
        <path id="Pfad_444" data-name="Pfad 444" d="M371.309,291.545a.483.483,0,1,1-.483.483A.485.485,0,0,1,371.309,291.545Zm-.351,3.9c0-.569-.019-1.232-.076-1.772a1.944,1.944,0,0,0,.853,0c-.057.54-.076,1.2-.076,1.772v.985c0,.569.019,1.232.076,1.772a1.944,1.944,0,0,0-.853,0c.057-.54.076-1.2.076-1.772Z" transform="translate(-318.261 -291.005)" fill="#1a171b"/>
        <path id="Pfad_445" data-name="Pfad 445" d="M380.274,292.492c0-.872-.019-2.094-.076-2.729a1.943,1.943,0,0,0,.853,0c-.057.635-.076,1.857-.076,2.729v1.715c0,.872.019,2.094.076,2.729a1.944,1.944,0,0,0-.853,0c.057-.635.076-1.857.076-2.729Z" transform="translate(-324.942 -289.734)" fill="#1a171b"/>
        <path id="Pfad_446" data-name="Pfad 446" d="M403.825,298.33c-1.44-1.7-3.165-3.515-4.786-5.24-.009.35-.028.919-.028,1.923,0,.815.038,2.815.085,3.194a1.273,1.273,0,0,0-.332-.047,1.554,1.554,0,0,0-.351.047c.076-.445.2-2.871.2-4.122,0-1.194,0-2.113-.028-2.539h.152c1.545,1.677,3.639,3.961,4.795,5.126,0-1.7,0-3.544-.076-5a1.258,1.258,0,0,0,.322.047,1.12,1.12,0,0,0,.3-.047c-.057.559-.151,2.435-.151,3.174,0,.966.019,3.061.028,3.487Z" transform="translate(-337.928 -291.005)" fill="#1a171b"/>
        <path id="Pfad_447" data-name="Pfad 447" d="M422.92,299.191a2.363,2.363,0,0,1,1.525-.55,1.4,1.4,0,0,1,1.535,1.4c0,.711-.038,1.412-.038,2.208,0,.313,0,.7.37.7a.389.389,0,0,0,.2-.038v.209a1.6,1.6,0,0,1-.607.133.619.619,0,0,1-.654-.587,1.915,1.915,0,0,1-1.488.692,1.2,1.2,0,0,1-1.26-1.165c0-.758.512-1.166,1.336-1.3,1.374-.218,1.421-.294,1.421-.663,0-.635-.284-1.194-1.042-1.194a1.335,1.335,0,0,0-1.194.644h-.1Zm2.34,1.687c-.654.218-1.98.152-1.98,1.185a.827.827,0,0,0,.824.9,1.37,1.37,0,0,0,1.118-.663Z" transform="translate(-355.101 -296.063)" fill="#1a171b"/>
        <path id="Pfad_448" data-name="Pfad 448" d="M442.547,296.008h-.019a1.744,1.744,0,0,1-1.6,1.023c-.957,0-1.924-.7-1.924-2.331a2.142,2.142,0,0,1,2.038-2.388,1.48,1.48,0,0,1,1.459.947h.019c0-1.194,0-2.682-.038-3.5a3.727,3.727,0,0,0,.427.047,3.985,3.985,0,0,0,.426-.047c-.086.8-.114,3.279-.114,4.9,0,.862.019,1.516.028,2.274a3.032,3.032,0,0,0-.37-.047,2.692,2.692,0,0,0-.36.047Zm-1.4.672c.985,0,1.412-1.071,1.412-2.1,0-1.194-.483-1.867-1.384-1.867s-1.336.9-1.336,2.047C439.837,296.273,440.529,296.68,441.145,296.68Z" transform="translate(-366.863 -289.734)" fill="#1a171b"/>
        <path id="Pfad_449" data-name="Pfad 449" d="M458.5,300.478c0-.446-.009-.976-.019-1.507a2.005,2.005,0,0,0,.4.047,1.911,1.911,0,0,0,.388-.047c-.057.739-.094,1.706-.094,2.634a1.647,1.647,0,0,0,.293,1.147,1.061,1.061,0,0,0,.815.351,1.106,1.106,0,0,0,1.052-.606c.19-.408.2-.483.2-1.971,0-.512,0-1.1-.019-1.554a1.854,1.854,0,0,0,.4.047,1.7,1.7,0,0,0,.389-.047c-.057.985-.067,1.876-.067,2.881,0,.559.009,1.118.038,1.649a1.464,1.464,0,0,0-.739,0c.019-.275.019-.55.019-.815h-.019a1.678,1.678,0,0,1-1.478.91,1.438,1.438,0,0,1-1.582-1.554C458.475,301.378,458.5,300.942,458.5,300.478Z" transform="translate(-380.745 -296.299)" fill="#1a171b"/>
        <path id="Pfad_450" data-name="Pfad 450" d="M486.813,298.641a1.816,1.816,0,0,1,1.962,1.933c0,.123-.009.246-.019.37-.682-.009-1.355-.029-2.028-.029-.417,0-.824.019-1.241.029a2.568,2.568,0,0,0-.009.265,1.6,1.6,0,0,0,1.639,1.753,2.061,2.061,0,0,0,1.421-.672l.047.028-.057.464a2.717,2.717,0,0,1-1.583.578,2.191,2.191,0,0,1-2.3-2.227C484.643,299.6,485.42,298.641,486.813,298.641Zm-1.308,1.942c.389.009.834.029,1.232.029.417,0,.862-.019,1.26-.029,0-.673-.18-1.639-1.165-1.639C485.9,298.944,485.552,299.9,485.5,300.583Z" transform="translate(-399.4 -296.063)" fill="#1a171b"/>
        <path id="Pfad_451" data-name="Pfad 451" d="M503.233,311.216a.54.54,0,1,1-.54.54A.546.546,0,0,1,503.233,311.216Z" transform="translate(-412.267 -305.028)" fill="#1a171b"/>
        <path id="Pfad_452" data-name="Pfad 452" d="M509.723,291.974a2.583,2.583,0,0,0,.985,0c.559,1.677,1.365,3.686,2.161,5.6.692-1.535,1.753-4.359,2.151-5.6a1.32,1.32,0,0,0,.7,0q-1.478,3.269-2.729,6.538a1.186,1.186,0,0,0-.313-.047,1.077,1.077,0,0,0-.312.047C511.8,296.949,510.642,294.153,509.723,291.974Z" transform="translate(-417.279 -291.31)" fill="#1a171b"/>
        <path id="Pfad_453" data-name="Pfad 453" d="M530.161,311.216a.54.54,0,1,1-.54.54A.546.546,0,0,1,530.161,311.216Z" transform="translate(-431.464 -305.028)" fill="#1a171b"/>
      </g>
      <g id="Gruppe_415" data-name="Gruppe 415" transform="translate(6.739 23.082)">
        <rect id="Rechteck_182" data-name="Rechteck 182" width="124.532" height="1.436" fill="#f9be5c"/>
      </g>
      <g id="layer1" transform="translate(0 20.041)">
        <g id="g2775">
          <path id="path2485" d="M85.745,270.183a3.1,3.1,0,1,0,3.1,3.1A3.1,3.1,0,0,0,85.745,270.183Zm0,.775a2.323,2.323,0,1,1-2.324,2.323A2.324,2.324,0,0,1,85.745,270.958Z" transform="translate(-81.969 -269.505)" fill="#f9be5c" stroke="#f9be5c" stroke-width="1"/>
          <path id="path2490" d="M91.033,277.6a.968.968,0,1,0,.968.968A.968.968,0,0,0,91.033,277.6Zm0,.484a.484.484,0,1,1-.484.484A.484.484,0,0,1,91.033,278.085Z" transform="translate(-87.258 -274.793)" fill="#f9be5c" stroke="#f9be5c" stroke-width="1"/>
          <g id="g2697" transform="translate(0 3.388)">
            <path id="path3206" d="M81.061,280.011a.387.387,0,1,1-.387-.388A.387.387,0,0,1,81.061,280.011Z" transform="translate(-80.287 -279.623)" fill="#f9be5c" stroke="#f9be5c" stroke-width="1"/>
            <g id="g2480" transform="translate(1.239)">
              <path id="path3216" d="M85.377,280.011a.387.387,0,1,1-.387-.388A.387.387,0,0,1,85.377,280.011Z" transform="translate(-84.602 -279.623)" fill="#f9be5c" stroke="#f9be5c" stroke-width="1"/>
              <path id="path6156" d="M87.231,280.011a.387.387,0,1,1-.387-.388A.386.386,0,0,1,87.231,280.011Z" transform="translate(-85.924 -279.623)" fill="#f9be5c" stroke="#f9be5c" stroke-width="1"/>
              <path id="path6158" d="M89.086,280.011a.387.387,0,1,1-.387-.388A.387.387,0,0,1,89.086,280.011Z" transform="translate(-87.246 -279.623)" fill="#f9be5c" stroke="#f9be5c" stroke-width="1"/>
            </g>
            <path id="path2495" d="M104.663,280.011a.387.387,0,1,1-.387-.388A.386.386,0,0,1,104.663,280.011Z" transform="translate(-97.113 -279.623)" fill="#f9be5c" stroke="#f9be5c" stroke-width="1"/>
            <g id="g2675" transform="translate(4.472)">
              <path id="path2677" d="M99.573,280.011a.387.387,0,1,0,.387-.388A.387.387,0,0,0,99.573,280.011Z" transform="translate(-98.508 -279.623)" fill="#f9be5c" stroke="#f9be5c" stroke-width="1"/>
              <path id="path2679" d="M97.719,280.011a.387.387,0,1,0,.387-.388A.386.386,0,0,0,97.719,280.011Z" transform="translate(-97.186 -279.623)" fill="#f9be5c" stroke="#f9be5c" stroke-width="1"/>
              <path id="path2681" d="M95.864,280.011a.387.387,0,1,0,.387-.388A.387.387,0,0,0,95.864,280.011Z" transform="translate(-95.864 -279.623)" fill="#f9be5c" stroke="#f9be5c" stroke-width="1"/>
            </g>
          </g>
          <g id="g2709" transform="translate(0.992 0.992)">
            <path id="path2711" d="M84.4,271.94a.387.387,0,1,1,0-.548A.388.388,0,0,1,84.4,271.94Z" transform="translate(-83.743 -271.279)" fill="#f9be5c" stroke="#f9be5c" stroke-width="1"/>
            <g id="g2713" transform="translate(0.876 0.876)">
              <path id="path2715" d="M87.456,274.991a.387.387,0,1,1,0-.548A.387.387,0,0,1,87.456,274.991Z" transform="translate(-86.796 -274.331)" fill="#f9be5c" stroke="#f9be5c" stroke-width="1"/>
              <path id="path2717" d="M88.768,276.3a.387.387,0,1,1,0-.548A.387.387,0,0,1,88.768,276.3Z" transform="translate(-87.73 -275.266)" fill="#f9be5c" stroke="#f9be5c" stroke-width="1"/>
              <path id="path2719" d="M90.079,277.614a.387.387,0,1,1,0-.548A.387.387,0,0,1,90.079,277.614Z" transform="translate(-88.665 -276.2)" fill="#f9be5c" stroke="#f9be5c" stroke-width="1"/>
            </g>
            <path id="path2721" d="M101.094,288.629a.387.387,0,1,1,0-.548A.387.387,0,0,1,101.094,288.629Z" transform="translate(-95.641 -283.176)" fill="#f9be5c" stroke="#f9be5c" stroke-width="1"/>
            <g id="g2723" transform="translate(3.163 3.162)">
              <path id="path2725" d="M97.494,285.03a.387.387,0,1,0,.548,0A.387.387,0,0,0,97.494,285.03Z" transform="translate(-96.628 -284.164)" fill="#f9be5c" stroke="#f9be5c" stroke-width="1"/>
              <path id="path2727" d="M96.183,283.718a.387.387,0,1,0,.548,0A.387.387,0,0,0,96.183,283.718Z" transform="translate(-95.693 -283.228)" fill="#f9be5c" stroke="#f9be5c" stroke-width="1"/>
              <path id="path2729" d="M94.871,282.407a.387.387,0,1,0,.548,0A.387.387,0,0,0,94.871,282.407Z" transform="translate(-94.758 -282.293)" fill="#f9be5c" stroke="#f9be5c" stroke-width="1"/>
            </g>
          </g>
          <g id="g2731" transform="translate(3.388)">
            <path id="path2733" d="M92.475,268.6a.387.387,0,1,1,.387-.387A.387.387,0,0,1,92.475,268.6Z" transform="translate(-92.088 -267.822)" fill="#f9be5c" stroke="#f9be5c" stroke-width="1"/>
            <g id="g2735" transform="translate(0 1.239)">
              <path id="path2737" d="M92.475,272.912a.387.387,0,1,1,.387-.387A.387.387,0,0,1,92.475,272.912Z" transform="translate(-92.088 -272.138)" fill="#f9be5c" stroke="#f9be5c" stroke-width="1"/>
              <path id="path2739" d="M92.475,274.766a.387.387,0,1,1,.387-.387A.387.387,0,0,1,92.475,274.766Z" transform="translate(-92.088 -273.46)" fill="#f9be5c" stroke="#f9be5c" stroke-width="1"/>
              <path id="path2741" d="M92.475,276.621a.387.387,0,1,1,.387-.387A.387.387,0,0,1,92.475,276.621Z" transform="translate(-92.088 -274.782)" fill="#f9be5c" stroke="#f9be5c" stroke-width="1"/>
            </g>
            <path id="path2743" d="M92.475,292.2a.387.387,0,1,1,.387-.387A.387.387,0,0,1,92.475,292.2Z" transform="translate(-92.088 -284.648)" fill="#f9be5c" stroke="#f9be5c" stroke-width="1"/>
            <g id="g2745" transform="translate(0 4.473)">
              <path id="path2747" d="M92.475,287.109a.387.387,0,1,0,.387.387A.387.387,0,0,0,92.475,287.109Z" transform="translate(-92.088 -286.044)" fill="#f9be5c" stroke="#f9be5c" stroke-width="1"/>
              <path id="path2749" d="M92.475,285.255a.387.387,0,1,0,.387.387A.387.387,0,0,0,92.475,285.255Z" transform="translate(-92.088 -284.722)" fill="#f9be5c" stroke="#f9be5c" stroke-width="1"/>
              <path id="path2751" d="M92.475,283.4a.387.387,0,1,0,.387.387A.387.387,0,0,0,92.475,283.4Z" transform="translate(-92.088 -283.4)" fill="#f9be5c" stroke="#f9be5c" stroke-width="1"/>
            </g>
          </g>
          <g id="g2753" transform="translate(0.992 0.992)">
            <path id="path2755" d="M100.546,271.94a.387.387,0,1,1,.548,0A.387.387,0,0,1,100.546,271.94Z" transform="translate(-95.641 -271.279)" fill="#f9be5c" stroke="#f9be5c" stroke-width="1"/>
            <g id="g2757" transform="translate(3.163 0.876)">
              <path id="path2759" d="M97.494,274.991a.387.387,0,1,1,.548,0A.387.387,0,0,1,97.494,274.991Z" transform="translate(-96.628 -274.331)" fill="#f9be5c" stroke="#f9be5c" stroke-width="1"/>
              <path id="path2761" d="M96.183,276.3a.387.387,0,1,1,.548,0A.387.387,0,0,1,96.183,276.3Z" transform="translate(-95.693 -275.266)" fill="#f9be5c" stroke="#f9be5c" stroke-width="1"/>
              <path id="path2763" d="M94.871,277.614a.387.387,0,1,1,.548,0A.387.387,0,0,1,94.871,277.614Z" transform="translate(-94.758 -276.2)" fill="#f9be5c" stroke="#f9be5c" stroke-width="1"/>
            </g>
            <path id="path2765" d="M83.856,288.629a.387.387,0,1,1,.548,0A.387.387,0,0,1,83.856,288.629Z" transform="translate(-83.743 -283.176)" fill="#f9be5c" stroke="#f9be5c" stroke-width="1"/>
            <g id="g2767" transform="translate(0.876 3.162)">
              <path id="path2769" d="M87.456,285.03a.387.387,0,1,0,0,.548A.387.387,0,0,0,87.456,285.03Z" transform="translate(-86.796 -284.164)" fill="#f9be5c" stroke="#f9be5c" stroke-width="1"/>
              <path id="path2771" d="M88.768,283.718a.387.387,0,1,0,0,.548A.387.387,0,0,0,88.768,283.718Z" transform="translate(-87.73 -283.228)" fill="#f9be5c" stroke="#f9be5c" stroke-width="1"/>
              <path id="path2773" d="M90.079,282.407a.387.387,0,1,0,0,.548A.388.388,0,0,0,90.079,282.407Z" transform="translate(-88.665 -282.293)" fill="#f9be5c" stroke="#f9be5c" stroke-width="1"/>
            </g>
          </g>
        </g>
      </g>
    </g>
  </g>
</svg>
