<svg xmlns="http://www.w3.org/2000/svg" width="126.732" height="81.662" viewBox="0 0 126.732 81.662">
  <g id="Gruppe_411" data-name="Gruppe 411" transform="translate(-128 -312.89)">
    <path id="Pfad_423" data-name="Pfad 423" d="M231.121,405.646h3.064V393.233l2.906,12.413h3.188v-22.1h-2.951v12.819l-3.019-12.819h-3.188v22.1Zm21.019-9.473v-8.335q0-4.64-4.584-4.641t-4.573,4.641v13.517q0,4.652,4.573,4.652t4.584-4.652v-2.973h-3.188v2.973q0,1.5-1.4,1.5t-1.385-1.5v-5.182Zm-5.97-8.335q0-1.5,1.374-1.5h.022q1.386.012,1.385,1.5v5.181H246.17v-5.181Zm12.908-11.455h-3.188v7.164H253.6v3.143h2.287v18.958h3.188V386.689h2.467v-3.143h-2.467v-7.164Zm11.85,7.164h-7.772v3.143h4.179l-4.326,17.043v1.915h8.11V402.5H266.6l4.326-17.043v-1.915Zm8.628,18.034a1.238,1.238,0,0,1-1.374,1.273h-.022q-1.374,0-1.374-1.5V383.546H273.6v17.808q0,4.641,4.573,4.641a5.13,5.13,0,0,0,2.985-.777,5.074,5.074,0,0,0,2.974.777q4.584,0,4.584-4.641V383.546h-3.188v17.808q0,1.487-1.385,1.5h-.022a1.225,1.225,0,0,1-1.363-1.273V383.546h-3.2V401.58Zm20.794-5.407v-8.335q0-4.64-4.585-4.641t-4.573,4.641v13.517q0,4.652,4.573,4.652t4.585-4.652v-2.973h-3.188v2.973q0,1.5-1.4,1.5t-1.385-1.5v-5.182Zm-5.97-8.335q0-1.5,1.374-1.5h.022q1.386.012,1.385,1.5v5.181h-2.782v-5.181Zm8.448,17.809h3.188V387.837q0-1.5,1.374-1.5h.057V383.2H307.4q-4.573,0-4.573,4.641v17.809Zm6.421,0h3.188v-9.822l3.391,9.822h3.413l-4.213-11.05,4.213-11.05h-3.413l-3.391,9.834v-17h-3.188v29.264Z" transform="translate(-64.508 -39.718)" fill="#fabc01"/>
    <path id="Pfad_424" data-name="Pfad 424" d="M308.645,464.479v-1.731h-.025a2.244,2.244,0,0,0-2.52,2.557v9.813h1.757V465.3q0-.826.757-.826Zm-5.667,10.638h1.757V465.31q0-2.557-1.93-2.563a2.208,2.208,0,0,0-1.359.391v-4.146h-1.757v16.125h1.757V465.3q.006-.819.763-.819t.77.825v9.807Zm-4.655-2.365v-1.639h-1.757v1.639q0,.826-.77.826t-.763-.826V469.9h3.289V465.3a2.523,2.523,0,1,0-5.046,0v7.448a2.523,2.523,0,1,0,5.046,0Zm-3.289-4.592V465.3q0-.826.757-.826h.012q.763.007.763.826v2.855Zm-4.878,6.957h1.757V465.3a2.247,2.247,0,0,0-2.526-2.557,2.8,2.8,0,0,0-1.639.428,2.825,2.825,0,0,0-1.645-.428,2.244,2.244,0,0,0-2.52,2.557v9.813h1.757V465.3q0-.826.757-.826h.012a.683.683,0,0,1,.757.7v9.937h1.763V465.18a.675.675,0,0,1,.751-.7h.012q.763.007.763.826v9.813ZM278.532,469.7h1.117v-1.731h-1.117v-.832h-1.757v.832h-.652a1.245,1.245,0,0,1-.4-.056.753.753,0,0,1-.478-.775V465.3a.77.77,0,1,1,1.533,0v.521h1.757V465.3a2.523,2.523,0,1,0-5.046,0v1.831a1.973,1.973,0,0,1,0,3.389v2.029a2.523,2.523,0,1,0,5.046,0V469.7Zm-1.757,2.855q0,.826-.782.832h-.031q-.72,0-.72-.832v-2.029a.743.743,0,0,1,.478-.77,1.258,1.258,0,0,1,.4-.056h.652v2.855Zm-7-8.075h.031v-1.731h-.025a2.244,2.244,0,0,0-2.52,2.557v9.813h1.756V465.3q0-.826.758-.826Zm-5.7-2.911h1.9v-1.9h-1.9v1.9Zm-1.3,11.184V465.3a2.523,2.523,0,1,0-5.046,0v1.639h1.757V465.3q0-.819.763-.826h.012q.757,0,.757.826v3.234a2.206,2.206,0,0,0-1.359-.391q-1.93.006-1.93,2.563v2.042a2.523,2.523,0,1,0,5.046,0Zm-1.756,0q0,.826-.763.826t-.769-.826V470.71q0-.826.769-.825t.763.819v2.048Zm-4.984-8.081h.763V462.94h-.763v-1.421q0-.826.763-.826v-1.738a2.247,2.247,0,0,0-2.52,2.563v1.421h-.732v1.732h.732v10.446h1.757V464.671Zm-6.573,8.081V465.3a2.523,2.523,0,1,0-5.046,0v7.448a2.523,2.523,0,1,0,5.046,0Zm-1.756,0q0,.826-.77.826t-.763-.826V465.3q0-.826.757-.826h.012q.763.007.763.826v7.448Zm-4.221,2.365-2.321-6.089,2.321-6.088H241.6l-1.868,5.418v-9.366H237.98v16.125h1.757V469.7l1.868,5.412Zm-6.871-2.365V465.3a2.523,2.523,0,1,0-5.046,0v7.448a2.523,2.523,0,1,0,5.046,0Zm-1.756,0q0,.826-.769.826t-.764-.826V465.3q0-.826.758-.826h.012q.763.007.763.826v7.448Zm-.292-10.675h1.508v-1.5h-1.508v1.5Zm-2.457,0h1.5v-1.5h-1.5v1.5Zm33.788.863H264.14v12.177H265.9V462.94Z" transform="translate(-64.788 -91.372)" fill="#ccd500"/>
    <path id="Pfad_425" data-name="Pfad 425" d="M206.669,334.6a2.1,2.1,0,1,0-2.1,2.1,2.1,2.1,0,0,0,2.1-2.1Zm-3.194-5.734a3.233,3.233,0,1,0-3.233,3.233,3.233,3.233,0,0,0,3.233-3.233Zm-7.581-3.989a2.1,2.1,0,1,0-2.1,2.1,2.1,2.1,0,0,0,2.1-2.1Zm-3.1-4.667a3.719,3.719,0,1,0-3.719,3.719,3.719,3.719,0,0,0,3.719-3.719Zm-7.678,4.318a2.1,2.1,0,1,0-2.1,2.1,2.1,2.1,0,0,0,2.1-2.1Zm-.613-4.312a2.1,2.1,0,1,0-2.827.919,2.1,2.1,0,0,0,2.827-.919Zm-4.6,1.98a2.1,2.1,0,1,0-2.1,2.1,2.1,2.1,0,0,0,2.1-2.1Zm-1.19-4.607a3.234,3.234,0,1,0-4.349,1.413,3.233,3.233,0,0,0,4.349-1.413Zm-6.886-1.468a2.1,2.1,0,1,0-2.1,2.1,2.1,2.1,0,0,0,2.1-2.1Zm-5.348,5.419a2.333,2.333,0,1,0,1.02,3.138,2.333,2.333,0,0,0-1.02-3.138Zm.173-4.354a1.617,1.617,0,1,0-1.617,1.617,1.617,1.617,0,0,0,1.617-1.617Zm-3.937,4.093a2.1,2.1,0,1,0-2.827.918,2.1,2.1,0,0,0,2.827-.918Zm-4.806-2.61a2.1,2.1,0,1,0-2.827.919,2.1,2.1,0,0,0,2.827-.919Zm-3.03,3.527a3.719,3.719,0,1,0-3.719,3.719,3.719,3.719,0,0,0,3.719-3.719Zm-8.379,5.613a2.1,2.1,0,1,0,.919,2.827,2.1,2.1,0,0,0-.919-2.827Zm-.58-2.741a2.1,2.1,0,1,0-2.827.918,2.1,2.1,0,0,0,2.827-.918Zm-3.5,7.065a1.98,1.98,0,1,0-1.98,1.98,1.98,1.98,0,0,0,1.98-1.98Zm-3.84,4.793a2.1,2.1,0,1,0,2.827-.918,2.1,2.1,0,0,0-2.827.918Zm-.23,6.151a2.1,2.1,0,1,0,2.1-2.1,2.1,2.1,0,0,0-2.1,2.1Zm-.134-2.63a2.566,2.566,0,1,0-2.566,2.566,2.566,2.566,0,0,0,2.566-2.566Zm-.59-11.181a2.1,2.1,0,1,0-2.1,2.1,2.1,2.1,0,0,0,2.1-2.1Zm-5.284,4.692a2.1,2.1,0,1,0,2.827-.918,2.1,2.1,0,0,0-2.827.918Zm-1.281,7.827a2.1,2.1,0,1,0,.919,2.827,2.1,2.1,0,0,0-.919-2.827Zm2.4,5.1a2.1,2.1,0,1,0,2.1-2.1,2.1,2.1,0,0,0-2.1,2.1Zm.916,18.284a2.1,2.1,0,1,0,2.827-.919,2.1,2.1,0,0,0-2.827.919Zm4.4-7.588a2.1,2.1,0,1,0-.919-2.827,2.1,2.1,0,0,0,.919,2.827Zm.005,5.305a2.558,2.558,0,0,0,2.277,2.537,2.129,2.129,0,0,0,.217.022c.025,0,.048.008.072.008.042,0,.081-.01.123-.013a1.965,1.965,0,0,0,.215-.022,2.561,2.561,0,1,0-2.9-2.532Zm5.56-14.688a3.719,3.719,0,1,0,5-1.625,3.719,3.719,0,0,0-5,1.625Zm.057,19.079a2.1,2.1,0,1,0,2.1-2.1,2.1,2.1,0,0,0-2.1,2.1Zm3.257-7.706a2.566,2.566,0,1,0-2.566-2.566,2.567,2.567,0,0,0,2.566,2.566Zm.8,13.557a2.1,2.1,0,1,0,2.827-.919,2.1,2.1,0,0,0-2.827.919Zm4.645-1.838a3.234,3.234,0,1,0-1.413-4.349,3.234,3.234,0,0,0,1.413,4.349Zm4.585,2.456a2.1,2.1,0,1,0,2.1-2.1,2.1,2.1,0,0,0-2.1,2.1Zm-2.1-49.2a2.1,2.1,0,1,0,2.1-2.1,2.1,2.1,0,0,0-2.1,2.1Zm-.694,5.129a2.1,2.1,0,1,0,2.1-2.1,2.1,2.1,0,0,0-2.1,2.1Zm-2.666,3.772a1.988,1.988,0,1,0,2.673-.868,1.988,1.988,0,0,0-2.673.868Zm.564,13.434a2.1,2.1,0,1,0-2.1-2.1,2.1,2.1,0,0,0,2.1,2.1Zm-1.408,14.363a2.1,2.1,0,1,0,2.1-2.1,2.1,2.1,0,0,0-2.1,2.1Zm-.287-5.541a2.1,2.1,0,1,0,2.1-2.1,2.1,2.1,0,0,0-2.1,2.1Zm4.2-15.187a2.233,2.233,0,1,0-3,.976,2.233,2.233,0,0,0,3-.976Zm.338,2.234a2.1,2.1,0,1,0,2.1-2.1,2.1,2.1,0,0,0-2.1,2.1Zm.508,8.181a2,2,0,1,0-2.685.872,2,2,0,0,0,2.685-.872Zm-7.441-21.584a2.566,2.566,0,1,0,2.566-2.566,2.567,2.567,0,0,0-2.566,2.566Zm-.437,11.229a2.1,2.1,0,1,0,2.1,2.1,2.1,2.1,0,0,0-2.1-2.1Zm-1.3-.6a3.719,3.719,0,1,0-3.719-3.719,3.718,3.718,0,0,0,3.719,3.719Zm18.173-11.1a2.566,2.566,0,1,0-2.566,2.566,2.566,2.566,0,0,0,2.566-2.566Zm-4.286,11.055a3.719,3.719,0,1,0-3.719-3.719,3.718,3.718,0,0,0,3.719,3.719Zm5.057-8.155a2.624,2.624,0,1,0,3.529-1.147,2.624,2.624,0,0,0-3.529,1.147Zm4.6-2.377a2.264,2.264,0,1,0-2.264-2.264,2.264,2.264,0,0,0,2.264,2.264Zm3.052-8.041a2.566,2.566,0,1,0-2.566,2.566,2.566,2.566,0,0,0,2.566-2.566Zm-1.2,9.465a2.1,2.1,0,1,0,2.827-.918,2.1,2.1,0,0,0-2.827.918Zm5.32-2.874a2.062,2.062,0,1,0-2.773.9,2.062,2.062,0,0,0,2.773-.9Zm.7,1.463a3.234,3.234,0,1,0,4.349-1.413,3.233,3.233,0,0,0-4.349,1.413Zm11.477-1.3a2.1,2.1,0,1,0-2.827.919,2.1,2.1,0,0,0,2.827-.919Zm-4.344,4.936a2.471,2.471,0,1,0,2.471-2.471,2.471,2.471,0,0,0-2.471,2.471Zm5.821-3.569a2.1,2.1,0,1,0,2.827-.919,2.1,2.1,0,0,0-2.827.919Zm5.809,7.727a2.1,2.1,0,1,0,2.1-2.1,2.1,2.1,0,0,0-2.1,2.1Z" transform="translate(0 0)" fill="#ccd500"/>
    <path id="Pfad_426" data-name="Pfad 426" d="M287.758,514.474v-4.31a.987.987,0,0,0-1.109-1.123,1.227,1.227,0,0,0-.72.188,1.242,1.242,0,0,0-.723-.188.986.986,0,0,0-1.107,1.123v4.31h.772v-4.31q0-.362.332-.362h.006a.3.3,0,0,1,.333.308v4.364h.774V510.11a.3.3,0,0,1,.33-.308h.006q.335,0,.335.362v4.31Zm-5.06-5.951h.834v-.834H282.7v.834Zm-.57,4.913v-.72h-.772v.72q0,.362-.338.362t-.335-.362v-1.254h1.445v-2.017a1.108,1.108,0,1,0-2.216,0v3.271a1.108,1.108,0,1,0,2.216,0Zm-1.445-2.017v-1.254q0-.362.332-.362h.006q.335,0,.335.362v1.254Zm-2.143,3.056h.771v-4.307q0-1.123-.848-1.126a.97.97,0,0,0-.6.172v-1.821H277.1v7.082h.771v-4.31q0-.36.335-.36t.338.362v4.307Zm-2.045-1.038v-.676a1.493,1.493,0,0,0-.722-1.235q-.722-.518-.722-.875v-.485q0-.362.333-.362h.005q.335,0,.335.362v.72h.771v-.72a1.108,1.108,0,1,0-2.216,0v.5A1.508,1.508,0,0,0,275,511.92q.722.518.722.9v.611q0,.362-.335.362t-.338-.362v-.72h-.772v.72a1.108,1.108,0,1,0,2.216,0Zm-2.816,0v-.72h-.772v.72q0,.362-.338.362t-.335-.362v-1.254h1.445v-2.017a1.108,1.108,0,1,0-2.216,0v3.271a1.108,1.108,0,1,0,2.216,0Zm-1.445-2.017v-1.254q0-.362.332-.362h.006q.335,0,.335.362v1.254Zm-1.371,2.017v-6.044h-.771v1.821a.97.97,0,0,0-.6-.172q-.848,0-.848,1.126v3.269a1.108,1.108,0,1,0,2.216,0Zm-.771,0q0,.362-.338.362t-.336-.362v-3.269q0-.362.338-.362t.336.36v3.271Zm-2.816,1.038h.771v-7.082h-.771v7.082Zm-1.4-5.951h.834v-.834h-.834v.834Zm-1.4,5.951h.772v-5.348h-.772v2.293h-.673v-2.293h-.771v5.348h.771v-2.292h.673v2.292Zm-4.255,0H261v-4.31a1.108,1.108,0,1,0-2.216,0v4.31h.771v-4.31q0-.362.333-.362h.005q.335,0,.336.362v4.31Zm-2.045-1.038v-3.271a1.108,1.108,0,1,0-2.216,0v3.271a1.108,1.108,0,1,0,2.216,0Zm-.771,0q0,.362-.338.362t-.335-.362v-3.271q0-.362.333-.362h.005q.335,0,.336.362v3.271Zm-2.846-4.913h.834v-.834h-.834v.834Zm-.57,6.576v-4.934a1.108,1.108,0,1,0-2.216,0v3.271a.987.987,0,0,0,1.106,1.126.56.56,0,0,0,.338-.112v.649q0,.362-.335.362t-.338-.362v-.194h-.771v.194a1.108,1.108,0,1,0,2.216,0Zm-.772-1.658q0,.357-.338.357t-.335-.362v-3.271q0-.362.333-.362h.006q.335,0,.335.362v3.277Zm-2.044-.005v-.72H250.4v.72q0,.362-.338.362t-.336-.362v-1.254h1.445v-2.017a1.108,1.108,0,1,0-2.216,0v3.271a1.108,1.108,0,1,0,2.216,0Zm-1.445-2.017v-1.254q0-.362.333-.362h.005q.335,0,.335.362v1.254Zm-1.153,3.056-.867-2.489a.894.894,0,0,0,.608-.929v-.8q0-1.123-1.028-1.126h-1.123v5.348h.771v-2.339l.1-.014.7,2.353Zm-1.03-3.418a.331.331,0,0,1-.21.341.743.743,0,0,1-.221.022h-.177v-1.532h.273q.335,0,.336.365v.8Zm-3.184-1.254h.014v-.761h-.011a.985.985,0,0,0-1.106,1.123v4.31h.771v-4.31q0-.362.332-.362Zm-1.7,3.634v-.72h-.772v.72q0,.362-.338.362t-.335-.362v-1.254h1.445v-2.017a1.108,1.108,0,1,0-2.216,0v3.271a1.108,1.108,0,1,0,2.216,0Zm-1.445-2.017v-1.254q0-.362.333-.362h.005q.335,0,.335.362v1.254Zm-1.371,2.017v-6.044h-.771v1.821a.969.969,0,0,0-.6-.172q-.848,0-.848,1.126v3.269a1.108,1.108,0,1,0,2.216,0Zm-.771,0q0,.362-.338.362t-.335-.362v-3.269q0-.362.338-.362t.336.36v3.271Zm-4.2,1.038h.771v-4.31a1.108,1.108,0,1,0-2.216,0v4.31h.771v-4.31q0-.362.333-.362h.005q.335,0,.335.362v4.31Zm-2.916-5.951h.834v-.834h-.834v.834Zm.8.6h-.772v5.348h.772v-5.348Zm22.606,0h-.772v5.348h.772v-5.348Zm11.313,0h-.771v5.348h.771v-5.348Zm16.823,0h-.772v5.348h.772v-5.348Z" transform="translate(-65.03 -121.672)" fill="#fabc01"/>
  </g>
</svg>
