<svg id="Ebene_1" data-name="Ebene 1" xmlns="http://www.w3.org/2000/svg" xmlns:xlink="http://www.w3.org/1999/xlink" viewBox="0 0 303.63 470.5"><defs><style>.cls-1{fill:none;}.cls-2{clip-path:url(#clip-path);}.cls-3{fill:#fff;}</style><clipPath id="clip-path" transform="translate(-22 -24)"><rect class="cls-1" x="22" y="24" width="303.63" height="470.5"/></clipPath></defs><g id="Logo_Andreanum_weiss_RGB" data-name="Logo Andreanum weiss RGB"><g class="cls-2"><g class="cls-2"><path class="cls-3" d="M217.92,190.81l26.43-42.37,26.5-42.34,26.52-42.31,3.33-5.28.42-.66.1-.17s0,0,0,0,0,0,0,0a.37.37,0,0,0,0,.14.44.44,0,0,0,.05.15s0,.05.06.05l-.66-.41L290.07,51,269,37.51l-10-6.42a.69.69,0,0,0,.74-.11.43.43,0,0,0,.13-.14l-.38.6-.85,1.31L255.29,38l-6.82,10.46-6.89,10.41c-9.21,13.87-18.53,27.67-27.84,41.46l-14,20.7-14,20.65c-9.34,13.79-18.81,27.48-28.25,41.2a.44.44,0,0,1-.73-.48c8.69-14.2,17.35-28.42,26.14-42.56l13.16-21.23,13.23-21.17q13.22-21.19,26.55-42.3l6.71-10.53,6.78-10.48,3.39-5.24.86-1.31.47-.71a6.53,6.53,0,0,1,1.17-1.3,6.41,6.41,0,0,1,6.6-1,7.16,7.16,0,0,1,.78.4l.28.18.16.1.66.43,1.3.85,2.61,1.71,5.23,3.42,20.83,13.76,10.39,6.93.65.44a5.7,5.7,0,0,1,1.22,1.08,6,6,0,0,1,1,6.13,6.18,6.18,0,0,1-.36.73l-.19.31-.11.17-.44.65L302.38,67,274.5,108.48,246.61,149.9l-28,41.39a.44.44,0,0,1-.73-.48" transform="translate(-22 -24)"/><path class="cls-3" d="M129.74,225.57l-26.35,42.24L77,310,50.55,352.2l-3.32,5.26-.42.66-.1.16s0,0,0,0,0,0,0,0a.24.24,0,0,0,0-.14.25.25,0,0,0,0-.14l-.06-.06.66.41L57.84,365l21,13.39,10.1,6.51a.73.73,0,0,0-.74.06.93.93,0,0,0-.14.14l0,0,.09-.13.21-.33.84-1.3,3.39-5.22,6.8-10.42,6.87-10.38c9.17-13.83,18.46-27.58,27.75-41.33l13.92-20.64,14-20.58c9.32-13.74,18.76-27.39,28.17-41.06a.43.43,0,0,1,.73.47c-8.66,14.16-17.3,28.34-26.06,42.43L151.61,297.8l-13.19,21.11Q125.25,340,112,361.07l-6.68,10.5L98.51,382l-3.39,5.22-.85,1.3-.21.32-.13.2-.26.35a6.08,6.08,0,0,1-1.25,1.23,6.4,6.4,0,0,1-6.62.6c-.24-.12-.56-.31-.7-.4l-.33-.22-.65-.42-1.3-.85-2.61-1.71L75,384.23,54.24,370.51l-10.35-6.9-.65-.44A5.65,5.65,0,0,1,42,362.1,6,6,0,0,1,41,356a6.18,6.18,0,0,1,.36-.73l.2-.33.1-.16.44-.65L45.54,349l27.79-41.31,27.81-41.29L129,225.09a.44.44,0,0,1,.61-.11.43.43,0,0,1,.12.59" transform="translate(-22 -24)"/><path class="cls-3" d="M191.41,285.81q13.76,20,27.36,40.07L246.06,366l13.43,19.79a.25.25,0,0,0-.24-.12.11.11,0,0,0-.08,0s-.05,0,0,0l.32-.21,1.26-.84,5-3.37,10.11-6.7,20.25-13.35L301,358a.68.68,0,0,0-.27.66.59.59,0,0,0,.05.19.2.2,0,0,0,0,.08l-.06-.09-.1-.15-.83-1.27-6.6-10.18c-17.58-27.14-34.67-54.6-51.88-82s-34.24-54.88-51.19-82.44a.44.44,0,0,1,.74-.48q27.42,40,54.49,80.3c18,26.86,36.15,53.64,53.8,80.74l6.61,10.17.82,1.27.25.39a5.51,5.51,0,0,1,.4.76,6.64,6.64,0,0,1,.48,1.63,6.42,6.42,0,0,1-2.44,6l-.35.25-.19.12-.32.21-.63.41-1.28.82L300,367.11l-20.43,13.07-10.23,6.51-5.13,3.24-1.28.81-.32.2c-.18.1-.44.26-.67.37a6.2,6.2,0,0,1-1.51.49,6,6,0,0,1-5.68-2.1l-.23-.31-.19-.27-.2-.33-.4-.64-.8-1.28-1.61-2.58-3.2-5.15-6.39-10.31-25.55-41.25Q203.37,307,190.67,286.29a.45.45,0,0,1,.15-.61.44.44,0,0,1,.59.13" transform="translate(-22 -24)"/><path class="cls-3" d="M156.2,130.58q-13.78-20-27.44-40.18L101.4,50.16,87.79,30.09a.23.23,0,0,0,.22.14h.08s0,0,0,0h0l-.14.1-1.27.84-5,3.38L71.55,41.24,51.24,54.62l-5,3.25a.7.7,0,0,0,.31-.65,1.33,1.33,0,0,0-.05-.19l0-.09s0-.06,0,0l.11.16.83,1.27,6.62,10.2c17.63,27.22,34.76,54.76,52,82.22s34.34,55,51.34,82.66a.45.45,0,0,1-.15.61.44.44,0,0,1-.59-.13Q129.18,193.79,102,153.41C84,126.48,65.78,99.62,48.09,72.44L41.46,62.25,40.63,61l-.1-.16-.2-.33a6.08,6.08,0,0,1-.37-.77,6.35,6.35,0,0,1,2.22-7.6l5.23-3.39L67.9,35.62l10.26-6.53,5.15-3.25L84.59,25l.18-.11.35-.2a6.66,6.66,0,0,1,.72-.33A5.62,5.62,0,0,1,87.4,24a5.93,5.93,0,0,1,5.47,2.59l12.89,20.72L131.38,88.7q12.81,20.67,25.55,41.4a.44.44,0,0,1-.73.48" transform="translate(-22 -24)"/><path class="cls-3" d="M250,216.64a.66.66,0,0,1,.75-.75h4V199.77a3.89,3.89,0,0,1,0-.53h-.06c-.06.1-.18.26-.35.48a8,8,0,0,1-.67.75l-1.77,1.74a.6.6,0,0,1-1,0l-.27-.3q-.6-.45,0-1l3.87-3.84a1.24,1.24,0,0,1,.9-.39h.69q.72,0,.72.75v18.48h3.9a.66.66,0,0,1,.75.75V217a.66.66,0,0,1-.75.75h-9.93A.66.66,0,0,1,250,217Z" transform="translate(-22 -24)"/><path class="cls-3" d="M268.79,215.65a.62.62,0,0,1,0-1l.36-.42a.64.64,0,0,1,1,0,5.85,5.85,0,0,0,1.94,1.43,5.55,5.55,0,0,0,2.32.49,5.64,5.64,0,0,0,2.07-.37,5.18,5.18,0,0,0,1.67-1,4.76,4.76,0,0,0,1.11-1.57,4.86,4.86,0,0,0-1.13-5.52,5.13,5.13,0,0,0-1.69-1,5.87,5.87,0,0,0-2.12-.38,7.56,7.56,0,0,0-3.36.9,1.16,1.16,0,0,1-1,.09l-.21-.06a.71.71,0,0,1-.54-.87l1-8.91a.71.71,0,0,1,.78-.69h8.76a.66.66,0,0,1,.75.75v.36a.66.66,0,0,1-.75.75h-7.65l-.6,5.43c0,.28-.08.53-.12.74l-.09.46h.06a7.48,7.48,0,0,1,1.29-.52,6.14,6.14,0,0,1,1.92-.29,7.79,7.79,0,0,1,2.87.53,7,7,0,0,1,2.31,1.45,6.78,6.78,0,0,1,1.53,2.17,6.57,6.57,0,0,1,.55,2.71,6.5,6.5,0,0,1-.57,2.72,6.84,6.84,0,0,1-1.56,2.19,7.2,7.2,0,0,1-2.32,1.46,7.59,7.59,0,0,1-2.87.54,8,8,0,0,1-5.73-2.46" transform="translate(-22 -24)"/><path class="cls-3" d="M289.61,211.9a.64.64,0,0,1-.72-.72v-.12a1.46,1.46,0,0,1,.27-.9l9.78-13a1.11,1.11,0,0,1,.9-.45h.93q.72,0,.72.75V210.1h2.28a.64.64,0,0,1,.72.72v.36q0,.72-.66.72h-2.34V217q0,.75-.72.75h-.6a.66.66,0,0,1-.75-.75v-5.1Zm9.81-1.8v-8.85c0-.32,0-.67,0-1.06a8.8,8.8,0,0,1,.09-.95h-.06L299,200c-.2.3-.39.59-.59.87L291.38,210v.06Z" transform="translate(-22 -24)"/><path class="cls-3" d="M310.75,211.9a.64.64,0,0,1-.72-.72v-.12a1.46,1.46,0,0,1,.27-.9l9.78-13a1.11,1.11,0,0,1,.9-.45h.93q.72,0,.72.75V210.1h2.28a.64.64,0,0,1,.72.72v.36q0,.72-.66.72h-2.34V217q0,.75-.72.75h-.6a.66.66,0,0,1-.75-.75v-5.1Zm9.81-1.8v-8.85c0-.32,0-.67,0-1.06a8.8,8.8,0,0,1,.09-.95h-.06l-.46.75c-.2.3-.39.59-.59.87L312.52,210v.06Z" transform="translate(-22 -24)"/><path class="cls-3" d="M22,216.64a.66.66,0,0,1,.75-.75h4V199.77a3.89,3.89,0,0,1,0-.53h-.06c-.06.1-.18.26-.35.48a6.76,6.76,0,0,1-.67.75l-1.77,1.74a.6.6,0,0,1-1,0l-.27-.3q-.6-.45,0-1l3.87-3.84a1.24,1.24,0,0,1,.9-.39h.69q.72,0,.72.75v18.48h3.9a.66.66,0,0,1,.75.75V217a.66.66,0,0,1-.75.75H22.75A.66.66,0,0,1,22,217Z" transform="translate(-22 -24)"/><path class="cls-3" d="M41.09,216.4a6.27,6.27,0,0,1,.79-3.22,10.19,10.19,0,0,1,2-2.45,20.86,20.86,0,0,1,2.61-2q1.41-.92,2.61-1.86a10.57,10.57,0,0,0,2-2,4.14,4.14,0,0,0,.8-2.52,3.8,3.8,0,0,0-1.22-2.92,4.46,4.46,0,0,0-3.16-1.13,5,5,0,0,0-2.37.63,5.7,5.7,0,0,0-1.92,1.65q-.51.66-1,.18l-.33-.27a.62.62,0,0,1-.18-1,6.42,6.42,0,0,1,1.15-1.3,8.09,8.09,0,0,1,1.46-1,7.37,7.37,0,0,1,1.63-.64,6.8,6.8,0,0,1,1.73-.23,7.54,7.54,0,0,1,2.62.44,6.1,6.1,0,0,1,2,1.21,5.34,5.34,0,0,1,1.32,1.88,6,6,0,0,1,.47,2.38,5.81,5.81,0,0,1-.8,3.08,10.58,10.58,0,0,1-2,2.37,19.38,19.38,0,0,1-2.58,2c-.93.59-1.79,1.19-2.58,1.81a11.06,11.06,0,0,0-2,2,4,4,0,0,0-.81,2.47H53.66a.66.66,0,0,1,.75.75V217a.66.66,0,0,1-.75.75H41.9q-.81,0-.81-.75Z" transform="translate(-22 -24)"/><path class="cls-3" d="M62.12,216.4a6.27,6.27,0,0,1,.79-3.22,10.19,10.19,0,0,1,2-2.45,20.86,20.86,0,0,1,2.61-2q1.41-.92,2.61-1.86a10.57,10.57,0,0,0,2-2,4.14,4.14,0,0,0,.8-2.52,3.8,3.8,0,0,0-1.22-2.92,4.46,4.46,0,0,0-3.16-1.13,5,5,0,0,0-2.37.63,5.7,5.7,0,0,0-1.92,1.65q-.51.66-1,.18l-.33-.27a.62.62,0,0,1-.18-1,6.42,6.42,0,0,1,1.15-1.3,8.09,8.09,0,0,1,1.46-1,7.37,7.37,0,0,1,1.63-.64,6.8,6.8,0,0,1,1.73-.23,7.54,7.54,0,0,1,2.62.44,6.1,6.1,0,0,1,2,1.21,5.34,5.34,0,0,1,1.32,1.88,6,6,0,0,1,.47,2.38,5.81,5.81,0,0,1-.8,3.08,10.58,10.58,0,0,1-2,2.37,19.38,19.38,0,0,1-2.58,2c-.93.59-1.79,1.19-2.58,1.81a11.06,11.06,0,0,0-2,2,4,4,0,0,0-.81,2.47H74.69a.66.66,0,0,1,.75.75V217a.66.66,0,0,1-.75.75H62.93q-.81,0-.81-.75Z" transform="translate(-22 -24)"/><path class="cls-3" d="M83.45,215.65a.62.62,0,0,1,0-1l.36-.42a.64.64,0,0,1,1,0,5.82,5.82,0,0,0,1.93,1.43,5.87,5.87,0,0,0,4.4.12,5.14,5.14,0,0,0,1.66-1,4.76,4.76,0,0,0,1.11-1.57,4.89,4.89,0,0,0-1.12-5.52,5.18,5.18,0,0,0-1.7-1A5.82,5.82,0,0,0,89,206.2a7.56,7.56,0,0,0-3.36.9,1.16,1.16,0,0,1-1,.09l-.21-.06a.71.71,0,0,1-.54-.87l1-8.91a.71.71,0,0,1,.78-.69h8.76a.66.66,0,0,1,.75.75v.36a.66.66,0,0,1-.75.75H86.78l-.6,5.43c0,.28-.08.53-.12.74l-.09.46H86a7.48,7.48,0,0,1,1.29-.52,6.14,6.14,0,0,1,1.92-.29,7.73,7.73,0,0,1,2.86.53,7,7,0,0,1,2.31,1.45,6.78,6.78,0,0,1,1.53,2.17,6.57,6.57,0,0,1,.56,2.71,6.5,6.5,0,0,1-.57,2.72,6.84,6.84,0,0,1-1.56,2.19A7.25,7.25,0,0,1,92,217.57a7.54,7.54,0,0,1-2.86.54,7.87,7.87,0,0,1-3.11-.64,7.77,7.77,0,0,1-2.62-1.82" transform="translate(-22 -24)"/><path class="cls-3" d="M25,440a15.15,15.15,0,0,1,1.08-5.74,14.29,14.29,0,0,1,3-4.62,13.81,13.81,0,0,1,4.5-3.08,14.19,14.19,0,0,1,5.64-1.12,19.34,19.34,0,0,1,5,.76,14.82,14.82,0,0,1,4.28,1.92.86.86,0,0,1,.16,1.36l-.36.52a.84.84,0,0,1-1.36.24,15.07,15.07,0,0,0-3.68-1.62,14.32,14.32,0,0,0-3.92-.58,11.32,11.32,0,0,0-4.56.9,11,11,0,0,0-3.6,2.48,11.32,11.32,0,0,0-2.38,3.76,12.72,12.72,0,0,0-.86,4.74,13.3,13.3,0,0,0,.84,4.8,11.36,11.36,0,0,0,2.34,3.8,10.69,10.69,0,0,0,3.54,2.5,10.88,10.88,0,0,0,4.44.9,10.26,10.26,0,0,0,2.9-.4,13.71,13.71,0,0,0,2.54-1,12,12,0,0,0,2-1.32,8.79,8.79,0,0,0,1.4-1.4v-4.72H44.07c-.64,0-1-.33-1-1v-.48c0-.66.32-1,1-1h5.48c.64,0,1,.34,1,1V453c0,.67-.32,1-1,1H49c-.67,0-1-.29-1-.88v-2a2.33,2.33,0,0,1,0-.48H48A8,8,0,0,1,46.53,452a11.55,11.55,0,0,1-2.08,1.24,13.66,13.66,0,0,1-2.62.92,12.53,12.53,0,0,1-3,.36,13.41,13.41,0,0,1-5.48-1.1A12.94,12.94,0,0,1,29,450.34a14.21,14.21,0,0,1-2.9-4.62A15.26,15.26,0,0,1,25,440" transform="translate(-22 -24)"/><path class="cls-3" d="M70.63,441.94l-8.84-14.88a.76.76,0,0,1-.12-.82.87.87,0,0,1,.8-.34h1a1.33,1.33,0,0,1,1.16.68l5.6,9.52c.3.56.6,1.16.92,1.8s.59,1.16.8,1.56H72c.19-.4.44-.92.76-1.56s.64-1.24,1-1.8l5.6-9.52a1.2,1.2,0,0,1,1.12-.68h1a.78.78,0,0,1,.76.36.72.72,0,0,1-.08.8l-8.8,14.88V453a.88.88,0,0,1-1,1h-.8c-.64,0-1-.33-1-1Z" transform="translate(-22 -24)"/><path class="cls-3" d="M96.47,426.82c0-.61.34-.92,1-.92h1.08a1.21,1.21,0,0,1,1.16.76l7,15.76q.33.81.72,1.8c.27.67.5,1.22.68,1.64h.08c.14-.42.34-1,.6-1.64s.52-1.26.76-1.8l7-15.76a1.22,1.22,0,0,1,1.16-.76h1.08a1,1,0,0,1,1,.92L122,453c0,.7-.29,1-1,1h-.8c-.66,0-1-.3-1-.92l-1.48-18.76c0-.26,0-.57-.06-.92s0-.7,0-1.06,0-.7,0-1v-.9h-.08c-.08.27-.18.58-.3.92s-.24.7-.38,1.06-.26.71-.4,1-.25.64-.36.9L109.79,448a1.08,1.08,0,0,1-1.12.76h-1a1.06,1.06,0,0,1-1.16-.76l-6.28-13.68c-.21-.5-.46-1.16-.76-2s-.53-1.48-.72-2h-.08c0,.54,0,1.2,0,2s0,1.47-.1,2L97.11,453.1a.89.89,0,0,1-1,.92h-.8c-.72,0-1-.34-1-1Z" transform="translate(-22 -24)"/><path class="cls-3" d="M137.71,426.9c0-.66.32-1,1-1h1a1.52,1.52,0,0,1,1.2.64l13.92,19.6q.52.81,1.2,1.92c.46.75.83,1.38,1.12,1.88h.08c-.05-.48-.1-1.09-.16-1.84s-.08-1.4-.08-2V426.9a.89.89,0,0,1,1-1h.8c.64,0,1,.34,1,1V453c0,.67-.32,1-1,1h-1a1.23,1.23,0,0,1-1.16-.64l-14-19.6a21.51,21.51,0,0,1-1.22-1.88c-.44-.74-.8-1.38-1.1-1.92h-.08c.06.51.11,1.14.16,1.88s.08,1.39.08,1.92V453c0,.67-.32,1-1,1h-.84c-.64,0-1-.33-1-1Z" transform="translate(-22 -24)"/><path class="cls-3" d="M184.27,426.7a1,1,0,0,1,1.08-.8h1.32a1,1,0,0,1,1.08.8l9.68,26.16c.21.78-.05,1.16-.8,1.16h-.88a1,1,0,0,1-1.12-.8l-3-8.16H180.35l-3,8.16a1,1,0,0,1-1.12.8h-.84c-.8,0-1.08-.38-.84-1.16Zm6.56,16-3.72-10.2a16.49,16.49,0,0,1-.56-1.8c-.19-.72-.35-1.34-.48-1.88H186c-.13.54-.31,1.16-.52,1.88s-.4,1.32-.56,1.8l-3.76,10.2Z" transform="translate(-22 -24)"/><path class="cls-3" d="M209.87,451.54a.91.91,0,0,1-.12-1.4l.48-.6a.94.94,0,0,1,1.4-.12,9.37,9.37,0,0,0,3.06,1.8,9.79,9.79,0,0,0,3.42.64,6.23,6.23,0,0,0,4.14-1.32,4.29,4.29,0,0,0,1.58-3.48,4.16,4.16,0,0,0-1-2.9,9.65,9.65,0,0,0-2.6-2,32.7,32.7,0,0,0-3.36-1.56,20.34,20.34,0,0,1-3.36-1.7,9.28,9.28,0,0,1-2.6-2.38,5.89,5.89,0,0,1-1-3.6,7.2,7.2,0,0,1,.64-3,7,7,0,0,1,1.82-2.38,8.94,8.94,0,0,1,2.8-1.56,10.86,10.86,0,0,1,3.54-.56,13.63,13.63,0,0,1,3.66.62,10.51,10.51,0,0,1,3.18,1.58.89.89,0,0,1,.24,1.32l-.36.64a.88.88,0,0,1-1.4.28,9.73,9.73,0,0,0-5.4-1.8,8.18,8.18,0,0,0-2.4.34,5.68,5.68,0,0,0-1.86,1,4.53,4.53,0,0,0-1.2,1.5,4.3,4.3,0,0,0-.42,1.9,3.83,3.83,0,0,0,1,2.76,9.61,9.61,0,0,0,2.6,1.88c1,.54,2.16,1,3.36,1.52a21.15,21.15,0,0,1,3.36,1.7,9.19,9.19,0,0,1,2.6,2.44,6.27,6.27,0,0,1,1,3.7,7.62,7.62,0,0,1-.62,3.14,6.91,6.91,0,0,1-1.76,2.44,8,8,0,0,1-2.72,1.58,10.33,10.33,0,0,1-3.46.56,14,14,0,0,1-4.4-.82,11.91,11.91,0,0,1-3.84-2.14" transform="translate(-22 -24)"/><path class="cls-3" d="M242.16,426.9c0-.66.32-1,1-1H244c.64,0,1,.34,1,1V453c0,.67-.32,1-1,1h-.84c-.64,0-1-.33-1-1Z" transform="translate(-22 -24)"/><path class="cls-3" d="M259.42,426.9a.89.89,0,0,1,1-1h.79a.89.89,0,0,1,1,1v17.28a7.49,7.49,0,0,0,2.13,5.68,9.32,9.32,0,0,0,11.69,0,7.58,7.58,0,0,0,2.15-5.72V426.9a.89.89,0,0,1,1-1h.8a.87.87,0,0,1,1,1v17.32a10.79,10.79,0,0,1-.79,4.22,9.15,9.15,0,0,1-2.17,3.24,9.67,9.67,0,0,1-3.38,2.08,13.48,13.48,0,0,1-8.81,0,10,10,0,0,1-3.4-2.08,9.22,9.22,0,0,1-2.2-3.24,11.17,11.17,0,0,1-.77-4.22Z" transform="translate(-22 -24)"/><path class="cls-3" d="M297.1,426.82c0-.61.34-.92,1-.92h1.08a1.21,1.21,0,0,1,1.16.76l7,15.76q.33.81.72,1.8c.27.67.5,1.22.69,1.64h.07c.14-.42.34-1,.6-1.64s.52-1.26.76-1.8l7-15.76a1.22,1.22,0,0,1,1.16-.76h1.08a1,1,0,0,1,1,.92L322.63,453c0,.7-.3,1-1,1h-.8c-.66,0-1-.3-1-.92l-1.48-18.76c0-.26,0-.57-.06-.92s0-.7,0-1.06,0-.7,0-1v-.9h-.08c-.08.27-.18.58-.3.92s-.24.7-.38,1.06-.26.71-.4,1-.25.64-.36.9L310.42,448a1.08,1.08,0,0,1-1.12.76h-1a1.06,1.06,0,0,1-1.16-.76l-6.28-13.68c-.21-.5-.46-1.16-.76-2s-.53-1.48-.72-2h-.08c0,.54,0,1.2,0,2s0,1.47-.1,2l-1.48,18.76a.89.89,0,0,1-1,.92h-.8c-.72,0-1-.34-1-1Z" transform="translate(-22 -24)"/><path class="cls-3" d="M34,467a1.84,1.84,0,0,1,1.88-1.36h2.56A1.76,1.76,0,0,1,40.34,467l8.88,25.12a1.41,1.41,0,0,1-.06,1.4,1.51,1.51,0,0,1-1.3.52H46a1.78,1.78,0,0,1-1.88-1.36l-2-5.92h-10l-2,5.88a1.77,1.77,0,0,1-1.88,1.4H26.5a1.54,1.54,0,0,1-1.3-.52,1.47,1.47,0,0,1-.06-1.4Zm6.84,15.56-2.52-7.6c-.13-.4-.26-.86-.4-1.36l-.36-1.44c-.13-.51-.25-1-.36-1.6h-.08c-.16.56-.29,1.09-.4,1.6s-.25.93-.36,1.44a10.26,10.26,0,0,1-.36,1.36l-2.56,7.6Z" transform="translate(-22 -24)"/><path class="cls-3" d="M59.44,467.3a1.46,1.46,0,0,1,1.64-1.68h2.16a2.09,2.09,0,0,1,2,1.12L75.32,482c.26.42.54.89.84,1.4s.54,1,.76,1.44.52,1,.76,1.56h.08c-.06-.54-.11-1.06-.16-1.56a13.2,13.2,0,0,1-.1-1.44c0-.51,0-1,0-1.4V467.3a1.48,1.48,0,0,1,1.68-1.68H81a1.48,1.48,0,0,1,1.68,1.68v25A1.48,1.48,0,0,1,81,494H78.8a2.06,2.06,0,0,1-2-1.12L66.72,477.66c-.27-.43-.54-.9-.82-1.4s-.53-1-.74-1.44a16.4,16.4,0,0,1-.8-1.56h-.08q0,.8.12,1.56t.12,1.44c0,.5,0,1,0,1.4v14.68A1.47,1.47,0,0,1,62.92,494H61.08a1.46,1.46,0,0,1-1.64-1.68Z" transform="translate(-22 -24)"/><path class="cls-3" d="M95.56,467.3a1.46,1.46,0,0,1,1.64-1.68h8a17.62,17.62,0,0,1,6,1,12.79,12.79,0,0,1,4.56,2.76,12.41,12.41,0,0,1,2.92,4.44,17.83,17.83,0,0,1,0,12,12.84,12.84,0,0,1-2.92,4.48,12.59,12.59,0,0,1-4.56,2.8,17.62,17.62,0,0,1-6,1h-8a1.46,1.46,0,0,1-1.64-1.68Zm9.4,22.32a9.42,9.42,0,0,0,6.88-2.51c1.7-1.68,2.56-4.12,2.56-7.33a12.09,12.09,0,0,0-.68-4.2,8.37,8.37,0,0,0-1.92-3.05,8.25,8.25,0,0,0-3-1.87A11,11,0,0,0,105,470h-4.28v19.6Z" transform="translate(-22 -24)"/><path class="cls-3" d="M131.08,467.3a1.46,1.46,0,0,1,1.64-1.68h7.68a23.28,23.28,0,0,1,3.3.18,8.47,8.47,0,0,1,2.1.58,7.63,7.63,0,0,1,3.46,2.9,8.72,8.72,0,0,1,1.3,4.86,9.75,9.75,0,0,1-.32,2.48,9.11,9.11,0,0,1-.92,2.22,8.09,8.09,0,0,1-1.48,1.82,6.78,6.78,0,0,1-2,1.24V482l.24.36.3.46a5.89,5.89,0,0,1,.38.66l4.68,8.56a1.4,1.4,0,0,1,.18,1.44,1.46,1.46,0,0,1-1.34.56h-2.16a2.1,2.1,0,0,1-2-1.16l-5-9.44h-5v8.92a1.47,1.47,0,0,1-1.64,1.68h-1.84a1.46,1.46,0,0,1-1.64-1.68Zm9.76,11.64a4.41,4.41,0,0,0,3.28-1.21,4.5,4.5,0,0,0,1.2-3.33,5,5,0,0,0-.54-2.39,3.24,3.24,0,0,0-1.7-1.51,5,5,0,0,0-1.22-.36A11.53,11.53,0,0,0,140,470h-3.8v8.92Z" transform="translate(-22 -24)"/><path class="cls-3" d="M162.52,467.3a1.46,1.46,0,0,1,1.64-1.68h13.68a1.47,1.47,0,0,1,1.68,1.66v1.11a1.46,1.46,0,0,1-1.68,1.63h-10.2v7.52h7.92q1.68,0,1.68,1.62v1.11a1.48,1.48,0,0,1-1.68,1.67h-7.92v7.68h10.84q1.68,0,1.68,1.62v1.11a1.48,1.48,0,0,1-1.68,1.67H164.16a1.46,1.46,0,0,1-1.64-1.68Z" transform="translate(-22 -24)"/><path class="cls-3" d="M197.44,467a1.84,1.84,0,0,1,1.88-1.36h2.56a1.77,1.77,0,0,1,1.88,1.36l8.88,25.12a1.47,1.47,0,0,1-.06,1.4,1.54,1.54,0,0,1-1.3.52h-1.84a1.77,1.77,0,0,1-1.88-1.36l-2-5.92h-10l-2,5.88a1.78,1.78,0,0,1-1.88,1.4h-1.84a1.51,1.51,0,0,1-1.3-.52,1.41,1.41,0,0,1-.06-1.4Zm6.84,15.56-2.52-7.6c-.14-.4-.27-.86-.4-1.36s-.26-1-.36-1.44-.26-1-.36-1.6h-.08c-.16.56-.3,1.09-.4,1.6a13.77,13.77,0,0,0-.36,1.44c-.11.5-.23,1-.36,1.36l-2.56,7.6Z" transform="translate(-22 -24)"/><path class="cls-3" d="M223,467.3a1.46,1.46,0,0,1,1.64-1.68h2.16a2.1,2.1,0,0,1,2,1.12L238.84,482c.26.42.54.89.84,1.4s.54,1,.75,1.44.53,1,.76,1.56h.08c-.05-.54-.1-1.06-.16-1.56s-.08-.94-.09-1.44,0-1,0-1.4V467.3a1.49,1.49,0,0,1,1.69-1.68h1.79a1.48,1.48,0,0,1,1.68,1.68v25a1.48,1.48,0,0,1-1.68,1.68h-2.15a2.09,2.09,0,0,1-2-1.12l-10.11-15.24c-.27-.43-.55-.9-.82-1.4s-.53-1-.74-1.44a14.36,14.36,0,0,1-.8-1.56h-.09c0,.53.07,1.05.13,1.56s.09.93.11,1.44,0,1,0,1.4v14.68a1.46,1.46,0,0,1-1.64,1.68H224.6a1.46,1.46,0,0,1-1.64-1.68Z" transform="translate(-22 -24)"/><path class="cls-3" d="M258.76,467.3a1.46,1.46,0,0,1,1.64-1.68h1.79a1.48,1.48,0,0,1,1.68,1.68v16.48a5.73,5.73,0,0,0,1.7,4.44,6.52,6.52,0,0,0,4.58,1.56,6.62,6.62,0,0,0,4.61-1.56,5.71,5.71,0,0,0,1.72-4.44V467.3a1.46,1.46,0,0,1,1.63-1.68H280a1.47,1.47,0,0,1,1.65,1.68v16.52a11.33,11.33,0,0,1-.82,4.36,9.8,9.8,0,0,1-2.33,3.36,10.64,10.64,0,0,1-3.59,2.18,14.43,14.43,0,0,1-9.36,0,10.68,10.68,0,0,1-3.6-2.18,9.8,9.8,0,0,1-2.33-3.36,11.33,11.33,0,0,1-.81-4.36Z" transform="translate(-22 -24)"/><path class="cls-3" d="M295.27,467.22a1.58,1.58,0,0,1,1.72-1.6h2.52a1.84,1.84,0,0,1,1.88,1.36l5.08,12.68c.16.42.32.88.5,1.36s.32.93.46,1.36l.48,1.44H308c.13-.48.28-1,.44-1.44s.28-.88.46-1.36.34-.94.5-1.36L314.47,467a1.87,1.87,0,0,1,1.92-1.36h2.48a1.54,1.54,0,0,1,1.72,1.6l2,25.08A1.41,1.41,0,0,1,321,494h-1.8a1.54,1.54,0,0,1-1.72-1.6l-1.08-14.28a11.28,11.28,0,0,1-.08-1.46v-1.46c0-.51,0-1,0-1.48h-.08c-.19.56-.36,1.09-.52,1.6s-.33.93-.5,1.44-.34,1-.5,1.36l-4.12,9.68a1.84,1.84,0,0,1-1.88,1.32h-1.68a1.87,1.87,0,0,1-1.92-1.32l-4.08-9.68c-.16-.4-.34-.86-.52-1.38s-.36-1-.52-1.46-.36-1.07-.52-1.6h-.08c0,.5,0,1,0,1.52s0,.94,0,1.46,0,1-.06,1.46l-1.08,14.28a1.54,1.54,0,0,1-1.72,1.6h-1.8a1.41,1.41,0,0,1-1.6-1.72Z" transform="translate(-22 -24)"/></g></g></g></svg>