<?xml version="1.0" encoding="UTF-8"?><svg id="Isolationsmodus" xmlns="http://www.w3.org/2000/svg" width="276.86818" height="379.62307" viewBox="0 0 276.86818 379.62307"><defs><style>.cls-1{fill:#fff;}</style></defs><path class="cls-1" d="m184.11708,172.12834l27.27895-43.72404,27.34099-43.68376,27.3693-43.66534,3.43681-5.44802.42984-.68085.10745-.1702c.03177-.0518-.00094-.01068.00488-.01842.00038.01005-.01782.01578-.01666.02916-.03124.04365-.03577.09863-.0388.14463.00564.04563.01458.09891.05086.14911.02151.02025.03199.05117.05574.05911l-.67824-.42824-10.89066-6.88196-21.71638-13.8639-10.28639-6.63237c.26115.11236.54192.07452.76031-.10623.05753-.04086.10193-.09671.13827-.14678l-.39933.61606-.87229,1.35351-3.51059,5.4001-7.03849,10.78895-7.11102,10.74184c-9.49752,14.31198-19.11228,28.54781-28.72597,42.78434l-14.41076,21.36115-14.49169,21.30859c-9.63822,14.22059-19.41018,28.35433-29.14791,42.51031-.14136.2055-.42251.2575-.62801.11614-.19852-.13654-.25312-.40462-.12921-.60786,8.97157-14.65352,17.9089-29.3293,26.98001-43.91817l13.57223-21.90568,13.65319-21.85312c9.09564-14.57297,18.19018-29.14663,27.40195-43.64414l6.92094-10.86528,6.99349-10.8182,3.50539-5.40346.88173-1.34737.48243-.73112c.33563-.49647.74758-.9485,1.20908-1.34244,1.85797-1.58281,4.57103-1.99123,6.81154-1.02198.2786.11864.54822.25265.80342.40903l.29299.18079.16844.11022.67371.44086,1.34738.88169,2.6948,1.7634,5.38776,3.52963,21.49825,14.19981,10.71664,7.14991.67204.44896c.46181.31607.89924.67997,1.26601,1.11356.74119.85587,1.2388,1.91445,1.41446,3.01953.18863,1.10379.05341,2.2643-.36793,3.30631-.11283.25614-.22629.51427-.37146.75088l-.19968.32819-.11179.1674-.44716.66961-3.57917,5.35554-28.75859,42.76318-28.78693,42.74475-28.84894,42.70448c-.1396.20661-.42027.26096-.62691.12139-.20182-.13635-.25791-.40808-.13031-.61315Z"/><path class="cls-1" d="m93.13503,207.99604l-27.18979,43.5869-27.25184,43.54659-27.28015,43.5282-3.4257,5.43086-.42844.67868-.10711.16967c-.01478.02803.00291.00611.00291.00611-.00118-.01039.01899-.01562.01619-.02947.0319-.04339.03587-.09838.0387-.14416-.00496-.04572-.01523-.09838-.05086-.14863-.02159-.02009-.0319-.05101-.05558-.05895l.67509.42631,10.85619,6.85995,21.64743,13.81985,10.43032,6.71887c-.25225-.1213-.53727-.10719-.7627.0575-.05295.04472-.10989.08899-.14788.14259-.01145.01121-.02078.02431-.02766.03886-.01052.02148.05949-.09094.08529-.1298l.21736-.33732.86947-1.34923,3.49864-5.38344,7.01606-10.75478,7.08814-10.70792c9.46682-14.26688,19.0522-28.4568,28.63649-42.64742l14.36657-21.29231,14.44735-21.23985c9.60881-14.17468,19.3512-28.26264,29.0597-42.37257.14136-.20547.42257-.25743.62805-.11604.19845.13654.25303.40459.12917.60779-8.9414,14.60811-17.84891,29.2382-26.89001,43.78157l-13.52751,21.83722-13.60828,21.78476c-9.0656,14.52743-18.13011,29.05556-27.3132,43.50672l-6.89929,10.83055-6.97137,10.78382-3.49509,5.38577-.87895,1.34306-.21974.33581-.13631.20469-.26293.3639c-.36864.47242-.79956.90723-1.28865,1.26301-1.93542,1.4597-4.66569,1.71747-6.83765.61922-.24605-.11752-.5761-.32-.72467-.41422l-.33577-.21974-.67157-.43948-1.34312-.87889-2.68625-1.75778-5.37037-3.5189-21.42998-14.15471-10.68252-7.12736-.67086-.44823c-.46025-.31522-.89636-.67779-1.26209-1.1099-.73984-.8525-1.23603-1.90736-1.41436-3.00826-.19038-1.1002-.05903-2.25627.35602-3.29753.11285-.25482.22324-.51411.3676-.75003l.20568-.34016.11143-.1669.44578-.6674,3.56801-5.33847,28.66955-42.62588,28.69788-42.60755,28.75993-42.56724c.1396-.20661.42029-.26096.62691-.12136.20181.13635.25788.40805.13032.61311Z"/><path class="cls-1" d="m156.76369,270.15368c9.46222,13.75013,18.84959,27.54885,28.23658,41.34785l28.15987,41.3977,13.85615,20.42296c-.0547-.08565-.14013-.13982-.24859-.12936-.02919-.00252-.05722.00838-.0832.01556,0,0-.05202.02122-.00642-.00151l.32523-.21722,1.30093-.86881,5.20373-3.47532,10.43036-6.91537,20.89735-13.77444,4.99823-3.27265c-.2188.16035-.32117.42738-.28864.68636.0074.06676.03127.13308.05328.19524.01751.02922.02655.05933.04418.08483.02935.04043-.02318-.03987-.05738-.09176l-.107-.16369-.856-1.30924-6.80836-10.49984c-18.14074-28.0092-35.77596-56.34669-53.53446-84.6041-17.74059-28.26906-35.33663-56.63199-52.82079-85.06757-.13062-.21246-.0643-.49059.14816-.62124.20576-.1265.47374-.06729.60906.12949,18.86602,27.5382,37.62016,55.14905,56.22973,82.85378,18.59168,27.71637,37.30664,55.3527,55.51609,83.31725l6.82294,10.49039.84788,1.31453.25558.40421c.15081.24978.29179.50485.40752.77636.24263.53489.40503,1.10934.49377,1.69008.37776,2.32832-.62732,4.79709-2.51476,6.21585l-.3549.25419-.1982.13018-.32873.21187-.65743.42367-1.31488.8474-2.62974,1.69474-21.08333,13.488-10.55998,6.71579-5.29147,3.34029-1.32285.83506-.33071.20878c-.17943.10807-.45104.27371-.68722.38216-.49377.23901-1.02322.40578-1.5629.50762-2.16361.40484-4.48178-.44955-5.85341-2.16753-.08691-.1043-.16334-.21533-.2427-.32485l-.19027-.27976-.20752-.33153-.41508-.66306-.83009-1.32605-1.65772-2.65374-3.29834-5.31869-6.59668-10.63726-26.36541-42.56302c-8.7881-14.18791-17.57583-28.37606-26.28867-42.61281-.13021-.21275-.0633-.49074.14945-.62092.20544-.12574.47251-.0666.60777.12917Z"/><path class="cls-1" d="m120.4318,109.97709c-9.48647-13.78921-18.89855-27.62679-28.30985-41.46483l-28.23327-41.51456-14.04898-20.71307c.04166.0778.13163.15144.2324.14756.02622-.00208.05755.00202.08359-.01121.01603.00381.02603-.01096.03925-.01017.00636-.00079.01175-.00372.01571-.00857l-.14254.09431-1.30452.87122-5.21806,3.48492-10.45855,6.93537-20.95464,13.81289-5.1195,3.35437c.21196-.15402.34452-.41728.31158-.67691-.0131-.065-.01922-.13582-.04971-.19678-.00679-.03325-.03051-.0598-.03952-.08905,0,0-.04048-.05911-.00504-.00409l.10729.1641.85837,1.31289,6.82754,10.52849c18.19144,28.08601,35.87687,56.50058,53.68521,84.83533,17.7907,28.34624,35.43657,56.78651,52.97058,85.29943.13062.21246.06433.49059-.14813.62124-.20576.12653-.47381.06733-.60912-.12949-18.91638-27.6152-37.72092-55.30301-56.38062-83.08492-18.64205-27.79337-37.407-55.50688-55.66597-83.54902l-6.84136-10.51955-.85024-1.31812-.10628-.16479-.20458-.34157c-.15037-.25019-.27096-.5205-.38708-.79113-.21639-.54802-.37526-1.12439-.43721-1.71105-.29648-2.33789.78386-4.79463,2.73164-6.13857l5.3975-3.4904,21.14179-13.52471,10.58969-6.73341,5.30603-3.34947,1.32652-.83737.18754-.11729.35494-.20528c.23709-.13449.49429-.24054.74771-.34455.51766-.18957,1.0575-.32213,1.60562-.37006,2.18476-.2224,4.44535.83912,5.6489,2.67207l13.29456,21.37908,26.44231,42.67762c8.81389,14.22601,17.62703,28.45252,26.36573,42.72734.13024.21272.06336.49074-.14936.62096-.20548.1258-.47258.06663-.60786-.1292Z"/></svg>