<svg xmlns="http://www.w3.org/2000/svg" xmlns:xlink="http://www.w3.org/1999/xlink" width="484.057" height="679.202" viewBox="0 0 484.057 679.202"><defs><clipPath id="a"><rect width="484.057" height="679.202" fill="#004f8e"/></clipPath></defs><g clip-path="url(#a)"><path d="M67.851,252,168.168,403.992l24.905,38.11,3.111,4.762c.23.34.59.926.712,1.061a3.5,3.5,0,0,0,.435.526,4.662,4.662,0,0,0,1.065.8,4.453,4.453,0,0,0,2.589.487,4.037,4.037,0,0,0,1.251-.352,3.862,3.862,0,0,0,.574-.313l1.112-.716L222.978,435.9,261.088,411l9.527-6.222c4.128-2.628,4.136-2.68,4.477-4.136a2.915,2.915,0,0,0-.261-1.757c-.047-.139-.158-.253-.222-.392l-.768-1.18-1.56-2.383-6.226-9.527-50.088-76.038-24.735-38.217c-8.142-12.8-16.13-25.7-24.09-38.624-15.766-25.938-31.444-51.928-46.672-78.207Q97.464,115,75.953,74.746a.834.834,0,0,1,1.4-.895q27.241,36.634,52.993,74.2c17.278,24.98,34.1,50.246,50.84,75.563,8.293,12.71,16.553,25.436,24.664,38.26l24.023,38.672,47.42,77.728,5.961,9.7,1.492,2.422.752,1.223a16.867,16.867,0,0,1,1.093,2.13,15.7,15.7,0,0,1-3.638,17.571,39.051,39.051,0,0,1-5.716,3.9l-9.694,5.961-38.779,23.856-19.387,11.922-1.3.792a14.776,14.776,0,0,1-1.959.97,14.188,14.188,0,0,1-4.251,1.009,14.4,14.4,0,0,1-8.36-1.9,14.7,14.7,0,0,1-3.365-2.723,13.356,13.356,0,0,1-1.326-1.71c-.435-.629-.55-.871-.839-1.326L185,447.22l-23.852-38.775-94.7-155.551A.832.832,0,0,1,67.851,252" transform="translate(196.204 217.483)" fill="#004f8e"/><path d="M215.6,201.389,116.1,50.7,91.4,12.906l-.368-.554-.21-.277a4.028,4.028,0,0,0-.471-.5,4.1,4.1,0,0,0-1.116-.752,4.4,4.4,0,0,0-2.624-.368,4.09,4.09,0,0,0-1.251.4c-.238.119-.3.174-.661.392l-1.18.768-4.726,3.091L59.9,27.456l-37.785,24.7L17.4,55.239l-2.363,1.548-1.12.736a4.128,4.128,0,0,0-.368.313,3.118,3.118,0,0,0-.72,3.428L24.437,79.1,74.117,154.5l24.529,37.9c8.075,12.694,16,25.487,23.884,38.3,15.631,25.721,31.175,51.5,46.264,77.558q22.8,38.991,44.107,78.927a.835.835,0,0,1-.34,1.128.844.844,0,0,1-1.065-.237q-27.027-36.307-52.577-73.552c-17.143-24.763-33.827-49.814-50.432-74.922-8.221-12.6-16.419-25.218-24.458-37.936L60.216,163.315,13.2,86.228,7.29,76.618,4.337,71.812a41.834,41.834,0,0,1-3.361-6.04A15.663,15.663,0,0,1,5.331,48.589a15.5,15.5,0,0,1,1.864-1.4l1.255-.78,2.4-1.48,4.809-2.953,38.454-23.65L73.341,6.505l4.805-2.957,1.2-.74a16.968,16.968,0,0,1,1.809-.97A13.994,13.994,0,0,1,85.3.667a14.217,14.217,0,0,1,8.328,1.488A14.269,14.269,0,0,1,98.476,6.28l.6.879.4.629L123.12,46.242,217,200.495a.831.831,0,0,1-1.4.895" transform="translate(0.001 1.645)" fill="#004f8e"/><path d="M158.2,95.924,62.921,252.378,14.935,330.383l-3,4.877a3.933,3.933,0,0,0-.629,2.335,3.848,3.848,0,0,0,.815,2.118,3.269,3.269,0,0,0,.823.756l.914.578,1.215.748,19.5,12,39,23.995,9.761,5.981,1.219.744a8.916,8.916,0,0,0,.895.523,2.042,2.042,0,0,0,.709.218,2.51,2.51,0,0,0,1.429-.234,2.547,2.547,0,0,0,1.049-1.077l2.988-4.884,5.977-9.761,23.8-39.127,24.161-38.894c8.158-12.9,16.466-25.7,24.806-38.486,16.834-25.475,33.752-50.891,51.125-76.018q25.9-37.791,53.278-74.652a.835.835,0,0,1,1.405.895q-21.665,40.475-44.807,80.024c-15.318,26.429-31.1,52.565-46.957,78.654-8.008,12.995-16.043,25.97-24.232,38.85l-24.878,38.442-25.25,38.209-6.282,9.571-3.139,4.786a16.716,16.716,0,0,1-7.449,6.329,16.406,16.406,0,0,1-9.781.934,15.734,15.734,0,0,1-4.631-1.758c-.839-.479-1.16-.712-1.552-.966l-1.2-.784-9.571-6.282L28.12,363.976,8.954,351.453l-1.2-.788c-.376-.245-.764-.483-1.469-1a14.546,14.546,0,0,1-3.23-3.25,14.9,14.9,0,0,1-.38-17.032L5.8,324.6l50.1-76.671L156.79,95.034a.832.832,0,0,1,1.405.891" transform="translate(0.55 280.029)" fill="#004f8e"/><path d="M161.174,309.417l94.4-155.084,47.554-77.316,5.945-9.666,1.484-2.418.693-1.14a4.066,4.066,0,0,0,.241-.519,3.632,3.632,0,0,0,.135-2.181,3.583,3.583,0,0,0-1.108-1.833c-.115-.17-2.414-1.54-3.859-2.438L297,50.876,258.337,27.1,238.981,15.252l-1.207-.74c-.123-.036-.218-.119-.332-.139a1.673,1.673,0,0,0-.661-.135,2.212,2.212,0,0,0-1.286.336,2.707,2.707,0,0,0-.483.412c-.174.269-.055.051-.72,1.136l-2.961,4.841L207.75,59.751,183.807,98.3c-8.087,12.789-16.324,25.475-24.593,38.146-16.688,25.242-33.463,50.428-50.689,75.329q-25.679,37.459-52.843,73.968a.835.835,0,0,1-1.405-.895q21.44-40.136,44.372-79.335c15.176-26.2,30.807-52.114,46.521-77.973,7.932-12.88,15.9-25.744,24.015-38.51l24.664-38.1,25.028-37.865,3.115-4.742a21.738,21.738,0,0,1,2.636-3.42,17.376,17.376,0,0,1,4.03-2.988,16.572,16.572,0,0,1,9.678-1.8,15.746,15.746,0,0,1,4.793,1.334,18.266,18.266,0,0,1,2.177,1.176l1.188.776,18.968,12.461,37.991,24.826,9.5,6.21,2.371,1.552a20.385,20.385,0,0,1,3.143,2.371,15.058,15.058,0,0,1,3.416,16.838,14.621,14.621,0,0,1-1.049,2.007l-.815,1.263-1.552,2.375-6.207,9.5L262.6,158.786,162.579,310.311a.833.833,0,0,1-1.405-.895" transform="translate(160.271 -0.001)" fill="#004f8e"/></g></svg>