<svg xmlns="http://www.w3.org/2000/svg" viewBox="0 0 117.6 29.37">
  <defs>
    <style>
      .cls-1 {
        fill: #0061ad;
      }
    </style>
  </defs>
  <g id="Ebene_2" data-name="Ebene 2">
    <g id="Ebene_1-2" data-name="Ebene 1">
      <path class="cls-1" d="M15.48,3A10,10,0,0,0,11.94.78,13.47,13.47,0,0,0,7.33,0H1A.92.92,0,0,0,0,1.09v20.5a.92.92,0,0,0,1,1.05h6.3a13,13,0,0,0,4.61-.77,9.92,9.92,0,0,0,3.54-2.21,9.76,9.76,0,0,0,2.27-3.55,13.57,13.57,0,0,0,.8-4.8,13.44,13.44,0,0,0-.8-4.79A9.81,9.81,0,0,0,15.48,3Zm-.71,12a7.33,7.33,0,0,1-1.66,2.69,7.23,7.23,0,0,1-2.6,1.65,9.86,9.86,0,0,1-3.4.56h-4V2.79h4a10,10,0,0,1,3.37.54A6.92,6.92,0,0,1,13.08,5a7.55,7.55,0,0,1,1.68,2.68,10.58,10.58,0,0,1,.59,3.67A10.73,10.73,0,0,1,14.77,15ZM24.28,0H23.21a.92.92,0,0,0-1,1.06V2.15a.92.92,0,0,0,1,1.05h1.07a.92.92,0,0,0,1-1.05V1.09A.92.92,0,0,0,24.28,0Zm-.06,6.41h-1a.92.92,0,0,0-1,1v14.1a.92.92,0,0,0,1,1.05h1a.92.92,0,0,0,1-1.05V7.49A.92.92,0,0,0,24.22,6.44Zm18.29,0h-.75c-.69,0-1,.3-1,.89v.93a1.61,1.61,0,0,0,0,.39.23.23,0,0,0,0,.13h-.06a3.81,3.81,0,0,0-1-1.35,5.51,5.51,0,0,0-1.52-.94,5.82,5.82,0,0,0-2.42-.44,7.23,7.23,0,0,0-3,.61,6.1,6.1,0,0,0-2.21,1.7,7.57,7.57,0,0,0-1.36,2.56,10.27,10.27,0,0,0-.47,3.2,11,11,0,0,0,.48,3.32,7.5,7.5,0,0,0,1.41,2.62,6.66,6.66,0,0,0,5.25,2.39,5.09,5.09,0,0,0,2.86-.74,5.33,5.33,0,0,0,1.84-2h.06l-.06.32a1.76,1.76,0,0,0,0,.33v1.78a4.93,4.93,0,0,1-.41,2.11A3.85,3.85,0,0,1,39,25.65a4.13,4.13,0,0,1-1.58.79,8.24,8.24,0,0,1-3.95,0A13.58,13.58,0,0,1,32.08,26a.93.93,0,0,0-1.32.55l-.22.54a1,1,0,0,0,.54,1.41,9.27,9.27,0,0,0,2.1.66,12.55,12.55,0,0,0,2.5.24,10.66,10.66,0,0,0,2.85-.4,7,7,0,0,0,2.52-1.3,6.65,6.65,0,0,0,1.81-2.29A7.76,7.76,0,0,0,43.54,22V7.49A.92.92,0,0,0,42.51,6.44ZM40.22,16.85a4.79,4.79,0,0,1-.92,1.71,3.23,3.23,0,0,1-1.35.93,4.73,4.73,0,0,1-1.58.27A4,4,0,0,1,33,18.19,6.71,6.71,0,0,1,31.8,14a6.06,6.06,0,0,1,1.11-3.83,3.9,3.9,0,0,1,3.27-1.43A5.47,5.47,0,0,1,37.86,9a3.21,3.21,0,0,1,1.39.88,4.53,4.53,0,0,1,1,1.68,8.38,8.38,0,0,1,.36,2.66A8.59,8.59,0,0,1,40.22,16.85ZM50,6.44H49a.93.93,0,0,0-1,1v14.1a.93.93,0,0,0,1,1.05h1a.92.92,0,0,0,1-1.05V7.49A.92.92,0,0,0,50,6.44ZM50,0H49a.92.92,0,0,0-1,1.06V2.15A.92.92,0,0,0,49,3.2H50a.92.92,0,0,0,1-1.05V1.09A.92.92,0,0,0,50,0ZM72.9,1.73V1.09c0-.71-.34-1.06-1-1.06H55.67a.93.93,0,0,0-1,1.06v.64a.93.93,0,0,0,1,1.06h6.58v18.8c0,.7.33,1.05,1,1.05h1a.93.93,0,0,0,1-1.05V2.79H71.9C72.56,2.79,72.9,2.43,72.9,1.73Zm5,4.32a9.05,9.05,0,0,0-3.12.48,13.61,13.61,0,0,0-2,.9,1,1,0,0,0-.34,1.44l.25.45a1,1,0,0,0,1.41.38A10.27,10.27,0,0,1,75.54,9a6.08,6.08,0,0,1,2.12-.35A4.89,4.89,0,0,1,79,8.86a2.63,2.63,0,0,1,1.09.59,2.74,2.74,0,0,1,.74,1.1,4.62,4.62,0,0,1,.27,1.68v.42h-.82q-.81,0-1.83.06a19.06,19.06,0,0,0-2.08.26,10.82,10.82,0,0,0-2.06.58,7,7,0,0,0-1.77,1,4.52,4.52,0,0,0-1.25,1.52,4.71,4.71,0,0,0-.47,2.16,4.57,4.57,0,0,0,.44,2,4.65,4.65,0,0,0,1.17,1.5,5.1,5.1,0,0,0,1.71.95,6.5,6.5,0,0,0,2,.32,5,5,0,0,0,2.38-.53,6.49,6.49,0,0,0,1.59-1.17,6.41,6.41,0,0,0,1.19-1.7h.07a2.5,2.5,0,0,1-.07.26,1.39,1.39,0,0,0,0,.32v1.38a.93.93,0,0,0,1,1.05h.78a.92.92,0,0,0,1-1.05v-9.2a6.39,6.39,0,0,0-1.62-4.72A6.27,6.27,0,0,0,77.91,6.05Zm3.23,9.35a5.72,5.72,0,0,1-.3,1.81A5.85,5.85,0,0,1,80,18.88a4.34,4.34,0,0,1-1.34,1.22,3.55,3.55,0,0,1-1.8.46,2.8,2.8,0,0,1-2.21-.82A2.59,2.59,0,0,1,73.9,18a2.38,2.38,0,0,1,.69-1.81,4.23,4.23,0,0,1,1.69-1,9.08,9.08,0,0,1,2.1-.4c.73,0,1.38-.08,1.94-.08h.82ZM103.47,1.09c0-.71-.33-1.06-1-1.06H86.24a.92.92,0,0,0-1,1.06v.64a.93.93,0,0,0,1,1.06h6.58v18.8c0,.7.34,1.05,1,1.05h1a.92.92,0,0,0,1-1.05V2.79h6.58c.67,0,1-.36,1-1.06Zm9.43,2.14h.44a.92.92,0,0,0,1-1V1.06a.92.92,0,0,0-1-1.06h-.44a.92.92,0,0,0-1,1.06V2.18A.92.92,0,0,0,112.9,3.23Zm3.67,3.21h-1a.93.93,0,0,0-1,1V14a7.75,7.75,0,0,1-.34,2.32,5.8,5.8,0,0,1-1,1.94,5.3,5.3,0,0,1-1.63,1.34,4.56,4.56,0,0,1-2.18.51,3.09,3.09,0,0,1-1.52-.32A2.4,2.4,0,0,1,107,19a3.35,3.35,0,0,1-.44-1.28,9.84,9.84,0,0,1-.11-1.57V7.49c0-.7-.34-1-1-1h-1a.92.92,0,0,0-1,1v9.32q0,3.24,1.35,4.73a5.18,5.18,0,0,0,4,1.49,6.11,6.11,0,0,0,2.13-.37,7.23,7.23,0,0,0,1.72-.93,6.2,6.2,0,0,0,1.27-1.23,5.79,5.79,0,0,0,.77-1.28h.06c0,.1,0,.2-.06.28a1.42,1.42,0,0,0,0,.31v1.78a.92.92,0,0,0,1,1.05h.88a.92.92,0,0,0,1-1.05V7.49A.92.92,0,0,0,116.57,6.44Zm-8.9-3.21h.44a.92.92,0,0,0,1-1V1.06a.92.92,0,0,0-1-1.06h-.44a.92.92,0,0,0-1,1.06V2.18A.92.92,0,0,0,107.67,3.23Z"/>
    </g>
  </g>
</svg>
